<svg width="24" height="24" viewBox="0 0 24 24" fill="none" xmlns="http://www.w3.org/2000/svg">
<path fill-rule="evenodd" clip-rule="evenodd" d="M11 1C6.02944 1 2 5.02944 2 10C2 14.9706 6.02944 19 11 19C15.9706 19 20 14.9706 20 10C20 5.02944 15.9706 1 11 1ZM9.33512 4.80232C9.74423 4.73752 10.0234 4.35334 9.95856 3.94423C9.89376 3.53511 9.50958 3.25599 9.10047 3.32079C6.64008 3.71047 4.71044 5.64012 4.32076 8.1005C4.25596 8.50961 4.53508 8.89379 4.9442 8.95859C5.35331 9.02339 5.73749 8.74426 5.80229 8.33515C6.09032 6.51661 7.51658 5.09035 9.33512 4.80232Z" fill="white"/>
<path fill-rule="evenodd" clip-rule="evenodd" d="M19.5303 17.4698C19.2374 17.1769 18.7626 17.1769 18.4697 17.4698C18.1768 17.7626 18.1768 18.2375 18.4697 18.5304L22.4696 22.5304C22.7625 22.8233 23.2373 22.8233 23.5302 22.5304C23.8231 22.2375 23.8231 21.7626 23.5302 21.4697L19.5303 17.4698Z" fill="white"/>
</svg>
