<svg width="50" height="44" viewBox="0 0 50 44" fill="none" xmlns="http://www.w3.org/2000/svg">
<g clip-path="url(#clip0_23_637)">
<path d="M48.9531 20.0499C48.8699 19.8626 48.7769 19.6798 48.6746 19.5022C49.0941 18.7847 49.352 17.9854 49.4306 17.1595C49.5092 16.3336 49.4066 15.5005 49.1298 14.7177C48.853 13.9349 48.4087 13.2209 47.8274 12.6248C47.246 12.0288 46.5415 11.5649 45.7622 11.2649C45.2999 9.84018 44.4976 8.5474 43.4237 7.49659C42.1786 6.22784 40.585 5.35065 38.8413 4.9742C38.1735 3.71131 37.0566 2.73994 35.7076 2.24883C34.3586 1.75772 32.8739 1.78195 31.5419 2.31681C31.1954 1.8397 30.7536 1.43856 30.2441 1.13841C29.7345 0.838252 29.1682 0.645524 28.5803 0.572234C27.9924 0.498944 27.3956 0.546666 26.8271 0.712426C26.2586 0.878186 25.7307 1.15843 25.2761 1.53568C23.7757 0.885853 22.1283 0.643562 20.5026 0.833626C18.2937 1.01842 16.2401 2.036 14.7637 3.67723C14.0747 3.39999 13.325 3.30486 12.5879 3.40113C11.8507 3.4974 11.1514 3.78178 10.558 4.2265L10.5446 4.23351L10.5464 4.2353C9.87863 4.73689 9.37139 5.41962 9.08591 6.20107C8.99918 6.19766 8.91353 6.18886 8.82589 6.18886C8.06423 6.18879 7.31001 6.33765 6.60631 6.62695C5.9026 6.91625 5.26321 7.34031 4.72463 7.87492C4.18605 8.40953 3.75883 9.04422 3.46739 9.74273C3.17594 10.4412 3.02597 11.1899 3.02604 11.946C3.02604 11.9864 3.03129 12.025 3.0322 12.0653C2.04707 13.0698 1.31551 14.2915 0.897374 15.6305C0.479242 16.9694 0.38642 18.3877 0.626502 19.7691C0.712319 21.2258 1.16726 22.6374 1.94916 23.873C2.73106 25.1086 3.81459 26.1283 5.09929 26.8374C5.19465 26.8826 5.29302 26.9213 5.39371 26.9532C6.02148 27.1812 6.6942 27.2606 7.35832 27.185C7.95876 27.1123 8.53661 26.913 9.05314 26.6005C9.65992 27.0233 10.3664 27.2834 11.1042 27.3556C11.8419 27.4278 12.586 27.3098 13.2643 27.0128C13.4271 27.9784 13.7921 28.8993 14.3359 29.716C16.0086 32.2523 18.7016 33.6195 20.6795 32.4892L22.9667 33.2353C25.0968 34.0688 26.9593 35.4599 28.3562 37.2605C29.7532 39.0612 30.6323 41.204 30.9 43.4612H35.3862L34.517 37.002L34.5118 37.0002C35.1565 37.1333 35.8133 37.2004 36.4718 37.2002C38.1843 37.2103 39.8658 36.7472 41.3283 35.8628C41.6231 35.7401 41.8885 35.557 42.1073 35.3256C42.8779 34.7481 43.5209 34.0197 43.9963 33.1855C44.4717 32.3513 44.7695 31.4291 44.8711 30.476L44.8737 30.4796L44.8728 30.4531C44.8887 30.2689 44.9003 30.0811 44.9003 29.8915C44.8989 29.358 44.8309 28.8268 44.6979 28.31C44.6845 28.2205 44.6694 28.1328 44.6535 28.0467C45.9978 27.8144 47.2164 27.1188 48.0949 26.0824C48.9734 25.0461 49.4555 23.7353 49.4562 22.3809C49.4562 22.2527 49.4517 22.1246 49.4437 21.9982C49.4767 21.315 49.306 20.6373 48.9531 20.0499ZM20.8334 32.4049L20.8378 32.4067C20.9669 32.4844 21.1013 32.553 21.2401 32.6121C21.0279 32.5507 20.8485 32.5032 20.7139 32.4718C20.7538 32.4471 20.7945 32.4295 20.8334 32.4049ZM21.8599 32.8104L21.8606 32.8052L21.9704 32.8472L21.8599 32.8104Z" fill="white"/>
<path d="M43.5537 27.9291C40.9598 27.8514 38.3725 27.6269 35.8043 27.2569C35.2013 26.9111 35.3534 30.7393 32.0503 32.821L34.2174 35.6996C35.3947 35.9985 36.6203 36.0609 37.8222 35.8834C39.0242 35.7059 40.1784 35.2919 41.217 34.6658C42.9154 33.6354 43.9524 32.003 43.5537 27.9291Z" fill="#72D99D"/>
<path d="M28.4413 35.1624C28.543 36.1734 29.4643 36.5841 29.7011 36.9598C30.7619 38.6313 31.5001 40.4843 31.878 42.4239H34.0812C33.8894 40.3592 33.583 38.3065 33.1634 36.2753C33.0057 35.9541 32.7994 35.6587 32.5516 35.3995C32.2935 35.1185 31.6683 35.6153 31.3527 35.3977C30.8524 35.0519 30.8683 34.348 29.9805 34.0479C29.4254 33.86 28.3388 34.3708 28.4413 35.1624Z" fill="#4E91AC"/>
<path d="M45.1567 12.3444C45.1567 12.3444 49.0707 13.7767 47.81 19.0863C47.81 19.0863 50.1086 25.0435 44.337 26.9461L37.5603 26.8076C37.0671 24.8608 36.7849 22.8672 36.7185 20.8608C36.8724 20.6502 40.5724 21.0995 42.9587 18.9441C44.4281 17.6171 45.1567 12.3444 45.1567 12.3444Z" fill="#FF6A45"/>
<path d="M23.2621 14.0927C23.7137 16.5598 23.3645 19.1055 22.2647 21.3628C21.0526 23.6622 18.47 25.4666 14.4383 26.3214C14.4383 26.3214 15.5532 31.8064 19.8962 31.5817C22.744 31.7718 25.4684 32.8078 27.7153 34.5551C27.9658 34.1514 28.3275 33.8274 28.7577 33.6213C30.2034 32.8666 33.2651 31.8608 33.968 29.0086C35.0546 24.5995 36.5283 26.6215 36.5283 26.6215L35.5629 20.473C35.3596 20.0947 35.0534 19.7807 34.6793 19.5666C34.3051 19.3525 33.878 19.2469 33.4463 19.2617C27.9346 19.0863 24.4221 18.5791 23.2621 14.0927Z" fill="#81CEDE"/>
<path d="M27.1629 6.77515C28.7136 4.68644 35.0749 0.90912 38.1587 6.00283C38.1587 6.00283 41.8712 5.68505 44.8737 11.5651C44.8737 11.5651 43.7721 16.0375 43.1682 17.64C42.5644 19.2425 38.043 20.6081 36.0183 19.806C33.5507 16.7641 26.0656 21.2347 23.652 14.5701C23.011 12.799 25.8871 8.49342 27.1629 6.77515Z" fill="#FFD65F"/>
<path d="M6.77383 25.8422C5.88829 25.7419 5.04398 25.4158 4.32297 24.8957C3.60197 24.3756 3.0288 23.6791 2.65919 22.8741C0.106649 16.292 3.72805 12.9289 3.87743 12.7429L4.12242 12.4393L4.1188 12.0497C4.11699 11.6178 4.24699 7.77375 9.19636 7.27354L10.0619 7.18763C10.0619 7.18763 10.2927 3.94394 14.3828 4.68643L15.6832 4.18784C16.9227 3.06949 18.4572 2.32429 20.1075 2.03929C21.7578 1.75428 23.4556 1.94124 25.0029 2.57831L25.4662 2.69765L25.8675 2.43973C26.5657 2.03558 27.3548 1.81169 28.1627 1.78855C28.901 1.8777 29.6135 2.11412 30.2573 2.48359C27.6572 4.11191 25.6289 6.49954 24.4511 9.31839C23.4907 10.6335 22.8067 12.1271 22.4398 13.7101C22.3248 15.2265 22.7315 19.9728 20.4178 22.5371C18.3967 24.7785 14.1387 25.4928 13.236 25.851C11.8188 26.2124 10.3181 26.0573 9.00624 25.4139C8.28877 25.67 7.53575 25.8144 6.77383 25.8422Z" fill="#F9A037"/>
<path d="M13.0469 27.3464C12.9166 27.3462 12.7908 27.2995 12.6923 27.2148C12.1748 26.7617 11.7682 26.1973 11.5036 25.5646C11.239 24.9319 11.1233 24.2476 11.1654 23.5639C11.389 21.9385 12.7878 20.5098 15.3207 19.318C15.4509 19.2568 15.6002 19.2494 15.7358 19.2974C15.8715 19.3455 15.9823 19.445 16.044 19.5742C16.1057 19.7034 16.1132 19.8516 16.0648 19.9862C16.0164 20.1209 15.9161 20.2309 15.7859 20.2922C13.6401 21.3014 12.4146 22.481 12.2422 23.7043C12.2258 24.2107 12.3214 24.7145 12.5223 25.1803C12.7232 25.6461 13.0244 26.0625 13.4048 26.4003C13.488 26.4727 13.5469 26.5685 13.5738 26.6749C13.6008 26.7814 13.5943 26.8935 13.5555 26.9962C13.5166 27.099 13.4471 27.1876 13.3562 27.2501C13.2654 27.3127 13.1575 27.3463 13.0469 27.3464Z" fill="#4A4E5C"/>
<path d="M7.94016 19.683C7.87336 19.6834 7.80706 19.6715 7.7446 19.648C7.24272 19.4572 6.78367 19.17 6.39373 18.8028C6.00379 18.4357 5.69063 17.9958 5.47215 17.5084C5.25367 17.021 5.13418 16.4956 5.12051 15.9623C5.10683 15.429 5.19925 14.8983 5.39246 14.4004C5.58568 13.9026 5.8759 13.4475 6.24652 13.0612C6.61714 12.6748 7.06088 12.3648 7.55233 12.1489C8.04379 11.933 8.57332 11.8154 9.11061 11.8029C9.64791 11.7904 10.1824 11.8831 10.6835 12.0759C10.8181 12.1273 10.9266 12.2297 10.9851 12.3606C11.0437 12.4914 11.0474 12.64 10.9956 12.7735C10.9438 12.9071 10.8406 13.0148 10.7088 13.0729C10.577 13.131 10.4274 13.1348 10.2928 13.0833C9.92503 12.9424 9.53291 12.8749 9.13883 12.8845C8.74475 12.8941 8.35644 12.9807 7.99608 13.1393C7.63573 13.2979 7.31039 13.5255 7.03867 13.809C6.76694 14.0924 6.55415 14.4263 6.41244 14.7914C6.27074 15.1566 6.20291 15.5458 6.21282 15.937C6.22273 16.3282 6.3102 16.7136 6.47021 17.0712C6.63023 17.4288 6.85967 17.7516 7.14541 18.0212C7.43115 18.2907 7.7676 18.5017 8.13553 18.6422C8.25382 18.6873 8.35244 18.7722 8.41427 18.882C8.47611 18.9918 8.49726 19.1196 8.47404 19.2433C8.45083 19.3669 8.38472 19.4786 8.2872 19.559C8.18967 19.6393 8.06689 19.6832 7.94016 19.683Z" fill="#4A4E5C"/>
<path d="M16.921 23.3182C16.778 23.318 16.6409 23.2619 16.5393 23.1621C16.4377 23.0623 16.3797 22.9268 16.378 22.7849C16.3762 22.643 16.4309 22.5061 16.53 22.4039C16.6292 22.3017 16.7649 22.2423 16.9078 22.2387C17.7031 22.2196 18.4583 21.8876 19.0071 21.3159C19.5559 20.7441 19.8535 19.9793 19.8342 19.1898C19.815 18.4003 19.4806 17.6507 18.9046 17.106C18.3286 16.5612 17.5581 16.2659 16.7627 16.2849C16.6188 16.288 16.4795 16.2343 16.3754 16.1355C16.2713 16.0368 16.2109 15.9012 16.2074 15.7583C16.2039 15.6154 16.2576 15.477 16.3567 15.3733C16.4559 15.2697 16.5924 15.2093 16.7363 15.2055C17.8201 15.1794 18.8699 15.5818 19.6549 16.3241C20.4398 17.0664 20.8955 18.0878 20.9217 19.1636C20.948 20.2394 20.5426 21.2815 19.7948 22.0606C19.047 22.8398 18.018 23.2921 16.9342 23.3182H16.921Z" fill="#4A4E5C"/>
<path d="M29.4208 30.8885C28.8553 30.8885 28.3026 30.7206 27.8341 30.4062C27.3655 30.0919 27.0024 29.6455 26.7915 29.1246C26.7649 29.0588 26.7516 28.9886 26.7523 28.9177C26.7531 28.8469 26.7679 28.7769 26.7959 28.7117C26.824 28.6466 26.8647 28.5876 26.9157 28.5381C26.9668 28.4886 27.0272 28.4495 27.0934 28.4232C27.1597 28.3969 27.2305 28.3838 27.3019 28.3847C27.3732 28.3856 27.4437 28.4005 27.5093 28.4284C27.5749 28.4564 27.6342 28.4969 27.684 28.5477C27.7338 28.5985 27.773 28.6585 27.7994 28.7243C27.9715 29.1501 28.307 29.4907 28.732 29.671C29.1571 29.8513 29.6369 29.8566 30.0659 29.6858C30.4949 29.5149 30.838 29.1819 31.0196 28.76C31.2013 28.3381 31.2067 27.8618 31.0345 27.4359C31.0077 27.3702 30.9943 27.2998 30.9949 27.2288C30.9955 27.1578 31.0103 27.0877 31.0383 27.0224C31.0663 26.9571 31.107 26.8979 31.1581 26.8482C31.2091 26.7986 31.2696 26.7594 31.3359 26.733C31.4023 26.7065 31.4732 26.6934 31.5447 26.6942C31.6162 26.695 31.6868 26.7098 31.7525 26.7378C31.8183 26.7658 31.8778 26.8063 31.9277 26.8572C31.9775 26.908 32.0168 26.9681 32.0433 27.0341C32.2154 27.46 32.2798 27.9213 32.2307 28.3776C32.1817 28.834 32.0207 29.2714 31.762 29.6517C31.5032 30.032 31.1546 30.3436 30.7464 30.5592C30.3383 30.7748 29.8832 30.8879 29.4208 30.8885Z" fill="#4A4E5C"/>
<path d="M31.0291 13.338C30.9266 13.3383 30.8262 13.309 30.7401 13.2537C30.6798 13.2161 30.6275 13.167 30.5863 13.1093C30.5451 13.0516 30.5158 12.9864 30.5 12.9174C30.4842 12.8485 30.4823 12.7771 30.4944 12.7074C30.5064 12.6377 30.5322 12.571 30.5703 12.5112C30.693 12.3191 30.7763 12.1048 30.8155 11.8807C30.8547 11.6566 30.849 11.427 30.7987 11.205C30.7483 10.9831 30.6544 10.7732 30.5223 10.5874C30.3901 10.4015 30.2223 10.2433 30.0285 10.1219C29.8347 10.0005 29.6187 9.91824 29.3928 9.8798C29.167 9.84137 28.9357 9.84753 28.7122 9.89794C28.4887 9.94835 28.2775 10.042 28.0905 10.1736C27.9035 10.3051 27.7446 10.472 27.6226 10.6646C27.5449 10.7836 27.423 10.8674 27.2834 10.8978C27.1438 10.9282 26.9978 10.9028 26.8769 10.8271C26.7561 10.7513 26.6702 10.6314 26.6378 10.4932C26.6055 10.355 26.6293 10.2098 26.7041 10.0889C27.1046 9.45909 27.7407 9.01299 28.4726 8.84876C29.2045 8.68452 29.9721 8.8156 30.6066 9.21316C31.2411 9.61072 31.6905 10.2422 31.856 10.9687C32.0214 11.6951 31.8894 12.4571 31.4888 13.0869C31.4398 13.1639 31.3719 13.2273 31.2915 13.2712C31.2111 13.3151 31.1209 13.3381 31.0291 13.338Z" fill="#4A4E5C"/>
<path d="M27.6199 36.8142C27.5161 36.8143 27.4144 36.785 27.3268 36.7296C27.2392 36.6742 27.1695 36.5951 27.1258 36.5016C26.8123 35.8252 26.7822 35.053 27.0421 34.3545C27.3019 33.6561 27.8306 33.0887 28.5117 32.777C29.1929 32.4653 29.9709 32.4348 30.6747 32.6922C31.3785 32.9496 31.9505 33.4739 32.2651 34.1498C32.295 34.2141 32.3119 34.2836 32.3148 34.3544C32.3177 34.4252 32.3065 34.4958 32.2819 34.5623C32.2572 34.6288 32.2196 34.6899 32.1713 34.7419C32.1229 34.794 32.0646 34.8361 31.9998 34.8658C31.935 34.8956 31.865 34.9123 31.7937 34.9152C31.7224 34.918 31.6512 34.9069 31.5842 34.8825C31.5172 34.858 31.4557 34.8207 31.4033 34.7727C31.3508 34.7247 31.3084 34.6668 31.2784 34.6025C31.1827 34.3962 31.0469 34.2107 30.8788 34.0565C30.7108 33.9023 30.5138 33.7824 30.2991 33.7038C30.0844 33.6252 29.8563 33.5893 29.6276 33.5982C29.3989 33.6071 29.1743 33.6606 28.9665 33.7557C28.7586 33.8508 28.5717 33.9856 28.4164 34.1524C28.261 34.3192 28.1403 34.5147 28.0611 34.7278C27.9819 34.9409 27.9457 35.1674 27.9547 35.3944C27.9636 35.6214 28.0176 35.8444 28.1133 36.0507C28.1512 36.1328 28.1676 36.223 28.1612 36.313C28.1548 36.4031 28.1257 36.4901 28.0766 36.5661C28.0275 36.6421 27.9599 36.7046 27.8801 36.748C27.8004 36.7913 27.7109 36.8141 27.6199 36.8142Z" fill="#4A4E5C"/>
<path d="M40.4417 36.5771C39.9088 36.5769 39.3868 36.4273 38.9358 36.1454C38.4849 35.8635 38.1234 35.4608 37.893 34.9838C37.6626 34.5068 37.5727 33.9749 37.6337 33.4494C37.6946 32.9239 37.9039 32.4262 38.2375 32.0136C38.2821 31.9584 38.3372 31.9124 38.3997 31.8783C38.4622 31.8441 38.5308 31.8226 38.6017 31.8148C38.6726 31.807 38.7444 31.8132 38.8128 31.8329C38.8813 31.8527 38.9452 31.8856 39.0009 31.9299C39.0566 31.9741 39.1029 32.0288 39.1373 32.0909C39.1716 32.1529 39.1934 32.221 39.2012 32.2914C39.209 32.3618 39.2028 32.433 39.1829 32.501C39.163 32.5689 39.1299 32.6324 39.0853 32.6876C38.7962 33.0456 38.6621 33.503 38.7127 33.959C38.7633 34.4151 38.9943 34.8326 39.355 35.1195C39.7156 35.4065 40.1764 35.5396 40.6358 35.4894C41.0953 35.4391 41.5158 35.2098 41.805 34.8518C41.8952 34.7402 42.0265 34.6688 42.1698 34.6532C42.3132 34.6377 42.4569 34.6793 42.5693 34.7689C42.6818 34.8585 42.7538 34.9888 42.7694 35.1311C42.7851 35.2734 42.7432 35.416 42.6529 35.5276C42.3872 35.8559 42.0505 36.1207 41.6677 36.3024C41.285 36.4841 40.8659 36.5779 40.4417 36.5771Z" fill="#4A4E5C"/>
<path d="M49.4438 22.5388H49.4155C49.2716 22.5312 49.1366 22.4672 49.0402 22.361C48.9437 22.2547 48.8936 22.1148 48.9009 21.972C48.955 21.4934 48.8618 21.0097 48.6334 20.5848C48.405 20.1599 48.0523 19.8136 47.6216 19.5917C47.1878 19.4336 46.7085 19.4528 46.2888 19.645C45.8692 19.8372 45.5435 20.1867 45.3831 20.6169C45.3325 20.7503 45.2308 20.8583 45.1002 20.9175C44.9696 20.9767 44.8208 20.9822 44.6861 20.9328C44.5515 20.8834 44.442 20.7831 44.3816 20.6538C44.3211 20.5246 44.3147 20.3769 44.3636 20.2429C44.624 19.5445 45.1528 18.9772 45.834 18.6653C46.5152 18.3534 47.2932 18.3224 47.9974 18.5791C48.6482 18.8783 49.1892 19.371 49.5455 19.9889C49.9018 20.6068 50.0557 21.3194 49.9859 22.028C49.9787 22.1659 49.9184 22.2958 49.8175 22.3909C49.7166 22.4859 49.5828 22.5389 49.4438 22.5388Z" fill="#4A4E5C"/>
<path d="M5.55564 27.5395C5.51212 27.5394 5.46877 27.5341 5.42654 27.5236C4.69798 27.3475 4.06966 26.8915 3.67962 26.2558C3.28959 25.62 3.16974 24.8566 3.34641 24.1333C3.52309 23.4099 3.98183 22.7857 4.62185 22.3979C5.26188 22.01 6.03083 21.8903 6.75976 22.0649C6.82987 22.0808 6.89609 22.1104 6.95458 22.152C7.01306 22.1936 7.06266 22.2462 7.10047 22.307C7.13829 22.3677 7.16358 22.4353 7.17487 22.5058C7.18617 22.5763 7.18324 22.6483 7.16626 22.7177C7.14929 22.7871 7.1186 22.8524 7.07598 22.91C7.03336 22.9675 6.97966 23.016 6.91799 23.0528C6.85632 23.0895 6.78791 23.1137 6.71674 23.124C6.64556 23.1343 6.57303 23.1305 6.50336 23.1127C6.05426 23.0052 5.58052 23.0791 5.18626 23.3181C4.79199 23.5571 4.50945 23.9418 4.40072 24.3874C4.292 24.8331 4.36597 25.3035 4.6064 25.695C4.84682 26.0866 5.23403 26.3674 5.68293 26.4758C5.81199 26.507 5.92507 26.584 6.00082 26.6923C6.07657 26.8006 6.10974 26.9327 6.09407 27.0636C6.0784 27.1945 6.01498 27.3152 5.91578 27.4029C5.81658 27.4906 5.68847 27.5391 5.55564 27.5395Z" fill="#4A4E5C"/>
<path d="M21.8581 33.3598C21.8158 33.3595 21.7737 33.3548 21.7324 33.3458C20.6773 33.0992 19.764 32.4466 19.1935 31.5316C18.6231 30.6166 18.4422 29.5141 18.6906 28.4667C18.9391 27.4193 19.5965 26.5128 20.5183 25.9465C21.4401 25.3803 22.5508 25.2007 23.606 25.4473C23.6754 25.4635 23.7409 25.4931 23.7988 25.5345C23.8567 25.5758 23.9058 25.628 23.9434 25.6882C23.9809 25.7484 24.0062 25.8153 24.0177 25.8852C24.0292 25.9551 24.0267 26.0265 24.0104 26.0954C23.9941 26.1643 23.9642 26.2293 23.9226 26.2868C23.881 26.3443 23.8283 26.393 23.7677 26.4303C23.7071 26.4676 23.6397 26.4926 23.5693 26.5041C23.4989 26.5155 23.427 26.513 23.3575 26.4968C22.5835 26.3177 21.7695 26.4506 21.0941 26.8665C20.4187 27.2824 19.937 27.9472 19.7549 28.7152C19.5727 29.4831 19.7048 30.2914 20.1223 30.9628C20.5398 31.6341 21.2085 32.1136 21.9818 32.2962C22.1113 32.3265 22.2251 32.4029 22.3016 32.5111C22.3781 32.6192 22.4119 32.7514 22.3966 32.8826C22.3814 33.0138 22.3181 33.135 22.2188 33.2229C22.1195 33.3109 21.9912 33.3596 21.8581 33.3598Z" fill="#4A4E5C"/>
<path d="M13.2448 11.2247C13.1086 11.2243 12.9774 11.1733 12.8773 11.0816C12.7771 10.99 12.7152 10.8644 12.7037 10.7297C12.5181 8.51282 14.8 6.50823 17.7911 6.26091C19.1321 6.12849 20.4816 6.41173 21.6539 7.0717C22.1722 7.34503 22.6159 7.73929 22.9467 8.22055C23.2775 8.70181 23.4855 9.25565 23.5529 9.83442C23.564 9.97649 23.518 10.1171 23.4249 10.2257C23.3319 10.3342 23.1993 10.4017 23.0562 10.4135C22.9132 10.4254 22.7712 10.3805 22.6614 10.2888C22.5515 10.197 22.4827 10.0659 22.4699 9.92392C22.4142 9.5165 22.26 9.1285 22.0207 8.79295C21.7813 8.45741 21.4637 8.18427 21.0951 7.9968C20.1185 7.45154 18.9957 7.22032 17.8813 7.33501C15.4879 7.53344 13.6507 9.01662 13.7869 10.6402C13.7986 10.7828 13.7529 10.9243 13.6597 11.0335C13.5666 11.1427 13.4335 11.2108 13.2899 11.2229L13.2448 11.2247Z" fill="#4A4E5C"/>
<path d="M14.6914 8.46537C14.5879 8.46537 14.4866 8.43601 14.3993 8.38075C14.3121 8.3255 14.2426 8.24665 14.199 8.15349C14.1555 8.06033 14.1396 7.95675 14.1534 7.85495C14.1671 7.75315 14.2099 7.65737 14.2767 7.57891C14.631 7.09535 14.7917 6.49835 14.7275 5.90382C14.6633 5.30928 14.3788 4.75965 13.9292 4.36164C13.0804 3.65258 11.9248 4.10893 10.802 4.70745C10.6752 4.77432 10.5269 4.78864 10.3895 4.74729C10.2521 4.70594 10.1368 4.61227 10.0688 4.48678C10.0008 4.36128 9.98562 4.21416 10.0266 4.07758C10.0675 3.941 10.1613 3.82606 10.2874 3.75791C11.1292 3.30857 13.0999 2.25712 14.6294 3.53665C15.3004 4.11887 15.7227 4.9329 15.8105 5.81319C15.866 6.24928 15.8323 6.69199 15.7114 7.11484C15.5905 7.53769 15.3849 7.93199 15.1069 8.27412C15.0559 8.33421 14.9923 8.38248 14.9205 8.41552C14.8487 8.44856 14.7705 8.46558 14.6914 8.46537Z" fill="#4A4E5C"/>
<path d="M44.8728 31.0184C44.7303 31.0182 44.5937 30.9626 44.4922 30.8634C44.3906 30.7643 44.3324 30.6295 44.3299 30.4882C44.3197 29.459 44.1909 28.4343 43.9462 27.4341C43.475 26.1523 42.5976 25.0567 41.4459 24.3117C40.2942 23.5668 38.9301 23.2126 37.5584 23.3024C37.487 23.3022 37.4164 23.2882 37.3504 23.2609C37.2845 23.2337 37.2246 23.1938 37.1742 23.1436C37.1238 23.0934 37.0839 23.0339 37.0566 22.9683C37.0294 22.9028 37.0155 22.8326 37.0156 22.7617C37.0157 22.6908 37.0299 22.6207 37.0573 22.5552C37.0848 22.4898 37.1249 22.4304 37.1755 22.3803C37.2261 22.3303 37.2861 22.2906 37.3521 22.2636C37.4181 22.2366 37.4888 22.2228 37.5603 22.2229C39.1578 22.1295 40.7444 22.552 42.0799 23.4272C43.4154 24.3023 44.4296 25.5831 44.9709 27.0779C45.2566 28.1869 45.4063 29.3261 45.4165 30.4708C45.4185 30.6136 45.3635 30.7514 45.2634 30.854C45.1633 30.9566 45.0264 31.0157 44.8825 31.0184H44.8728Z" fill="#4A4E5C"/>
<path d="M36.525 29.342C34.9558 29.3324 33.418 28.9049 32.0721 28.104C30.7262 27.3031 29.6216 26.1582 28.8737 24.789C28.8113 24.66 28.8031 24.5118 28.8509 24.3768C28.8986 24.2419 28.9984 24.1313 29.1283 24.0694C29.2582 24.0075 29.4076 23.9993 29.5435 24.0468C29.6795 24.0942 29.7909 24.1932 29.8532 24.3222C30.6567 25.8148 31.9433 26.9954 33.5055 27.6733C35.0677 28.3513 36.8143 28.4872 38.4638 28.0591C38.605 28.0303 38.7519 28.0584 38.8722 28.1372C38.9925 28.2159 39.0763 28.3389 39.1053 28.479C39.1342 28.6191 39.1059 28.7649 39.0266 28.8844C38.9473 29.0038 38.8234 29.087 38.6822 29.1157C37.9726 29.2631 37.2499 29.3389 36.525 29.342Z" fill="#4A4E5C"/>
<path d="M27.1629 5.70624C27.0234 5.70665 26.8892 5.65307 26.7888 5.55688C26.7371 5.50817 26.6956 5.44981 26.6666 5.38514C26.6376 5.32047 26.6218 5.25077 26.62 5.18002C26.6182 5.10926 26.6304 5.03885 26.6561 4.97281C26.6817 4.90677 26.7203 4.8464 26.7694 4.79516C27.9934 3.35286 29.649 2.33582 31.4955 1.89199C33.3419 1.44816 35.2828 1.60069 37.0359 2.3274C37.1642 2.3921 37.2615 2.50467 37.3063 2.64043C37.3511 2.77619 37.3399 2.92405 37.275 3.05159C37.2102 3.17914 37.0971 3.27596 36.9604 3.32083C36.8238 3.3657 36.6748 3.35496 36.5461 3.29096C35.0043 2.65017 33.2947 2.52294 31.6738 2.92835C30.053 3.33376 28.6082 4.24994 27.5564 5.53945C27.5056 5.5923 27.4446 5.63435 27.3769 5.66303C27.3093 5.6917 27.2365 5.7064 27.1629 5.70624Z" fill="#4A4E5C"/>
<path d="M40.3514 18.1788C40.274 18.1794 40.1973 18.1632 40.1267 18.1314C39.9959 18.0718 39.8941 17.9632 39.8437 17.8293C39.7933 17.6955 39.7985 17.5472 39.858 17.4171C40.4958 15.8477 40.5825 14.1108 40.1042 12.4864C39.6258 10.8621 38.6104 9.44498 37.2215 8.46357C37.1094 8.37416 37.0376 8.24435 37.0218 8.10252C37.0059 7.96069 37.0473 7.8184 37.1368 7.70677C37.2264 7.59515 37.3569 7.52329 37.4997 7.5069C37.6425 7.49052 37.786 7.53095 37.8989 7.61935C39.4613 8.76401 40.5979 10.39 41.1311 12.2435C41.6644 14.097 41.5643 16.0736 40.8465 17.8646C40.8031 17.9587 40.7334 18.0384 40.6456 18.0941C40.5578 18.1498 40.4557 18.1792 40.3514 18.1788Z" fill="#4A4E5C"/>
<path d="M29.3635 19.1179C27.7053 19.1159 26.1157 18.4612 24.9432 17.2973C23.7708 16.1335 23.1112 14.5556 23.1091 12.9097C23.1091 12.7667 23.1664 12.6295 23.2682 12.5284C23.3701 12.4272 23.5083 12.3704 23.6524 12.3704C23.7965 12.3704 23.9347 12.4272 24.0366 12.5284C24.1385 12.6295 24.1957 12.7667 24.1957 12.9097C24.1957 14.2703 24.7402 15.5751 25.7094 16.5372C26.6787 17.4993 27.9932 18.0398 29.3639 18.0398C30.7346 18.0398 32.0491 17.4993 33.0184 16.5372C33.9876 15.5751 34.5321 14.2703 34.5321 12.9097C34.5321 12.7668 34.5893 12.6297 34.6911 12.5287C34.7929 12.4276 34.931 12.3708 35.0749 12.3708C35.2189 12.3708 35.357 12.4276 35.4588 12.5287C35.5606 12.6297 35.6178 12.7668 35.6178 12.9097C35.6159 14.5556 34.9563 16.1336 33.7838 17.2975C32.6113 18.4614 31.0216 19.1161 29.3635 19.1179Z" fill="#4A4E5C"/>
<path d="M35.3862 44H30.9C30.7674 43.9998 30.6394 43.9516 30.5401 43.8643C30.4408 43.777 30.377 43.6567 30.3608 43.526C30.1139 41.3593 29.2742 39.301 27.9327 37.5742C26.5913 35.8475 24.7993 34.5181 22.751 33.7303C22.6207 33.6723 22.5187 33.5657 22.4669 33.4337C22.4152 33.3016 22.4179 33.1546 22.4745 33.0245C22.5311 32.8944 22.637 32.7917 22.7693 32.7385C22.9016 32.6853 23.0497 32.6859 23.1815 32.7403C25.3178 33.5884 27.1957 34.9723 28.6315 36.7567C30.0674 38.5412 31.0121 40.665 31.3731 42.9205H34.7654L33.9847 37.116C33.9647 37.0308 33.9669 36.9421 33.991 36.858C34.0263 36.7256 34.1115 36.6117 34.2289 36.5399C34.3464 36.468 34.4872 36.4436 34.6222 36.4718C35.2307 36.597 35.8504 36.6605 36.4718 36.6614C40.8199 36.6614 44.3565 33.6249 44.3565 29.8915C44.3565 29.3203 44.2731 28.7521 44.109 28.2047C44.0872 28.1315 44.0812 28.0546 44.0915 27.9791C44.1019 27.9035 44.1282 27.8309 44.1689 27.7662C44.2096 27.7015 44.2637 27.6461 44.3276 27.6037C44.3914 27.5613 44.4636 27.5329 44.5394 27.5202C45.3753 27.3805 46.1646 27.0418 46.8398 26.5331C47.5149 26.0244 48.0558 25.3608 48.4161 24.5992C48.7763 23.8375 48.9453 23.0006 48.9084 22.16C48.8715 21.3194 48.6299 20.5002 48.2043 19.7725C48.1565 19.6903 48.1314 19.5971 48.1314 19.5022C48.1314 19.4073 48.1565 19.3141 48.2043 19.2319C48.5847 18.5817 48.8187 17.8574 48.89 17.1088C48.9614 16.3603 48.8685 15.6053 48.6176 14.8958C48.3668 14.1863 47.9641 13.5392 47.4371 12.9991C46.9101 12.4589 46.2715 12.0386 45.5652 11.7669C45.4892 11.7375 45.4209 11.6914 45.3653 11.6322C45.3098 11.5729 45.2683 11.502 45.2441 11.4247C44.8076 10.0833 44.0511 8.86637 43.0391 7.87745C41.8681 6.68616 40.3718 5.86068 38.7343 5.50261C38.6552 5.48696 38.5806 5.45393 38.516 5.40594C38.4515 5.35795 38.3985 5.29622 38.3611 5.22528C37.7562 4.08034 36.7439 3.19966 35.5211 2.75454C34.2983 2.30943 32.9524 2.33169 31.7452 2.817C31.6328 2.86222 31.5084 2.86882 31.3918 2.83577C31.2752 2.80271 31.173 2.73188 31.1017 2.63457C30.7987 2.21754 30.4126 1.86687 29.9672 1.60438C29.5219 1.34189 29.0269 1.1732 28.513 1.10881C27.9991 1.04442 27.4774 1.08571 26.9803 1.23011C26.4832 1.37451 26.0214 1.61893 25.6236 1.94815C25.5455 2.01338 25.4505 2.05542 25.3494 2.06941C25.2484 2.0834 25.1454 2.06878 25.0523 2.02724C23.641 1.4147 22.0905 1.18747 20.561 1.36905C18.492 1.53755 16.5667 2.48668 15.1811 4.02122C15.1074 4.10886 15.0077 4.17115 14.8962 4.1992C14.7848 4.22725 14.6672 4.21963 14.5604 4.17742C14.112 3.99622 13.6325 3.90319 13.1484 3.9035C12.3717 3.90559 11.6144 4.14466 10.9791 4.58829C10.3438 5.03193 9.86128 5.6587 9.59689 6.38367C9.55817 6.49225 9.48523 6.58557 9.38888 6.64977C9.29254 6.71396 9.17792 6.74563 9.06201 6.74008L8.95409 6.7329C8.91172 6.73128 8.86917 6.72769 8.82589 6.72769C7.4322 6.72919 6.09603 7.27948 5.11062 8.25779C4.12521 9.23611 3.57106 10.5625 3.56979 11.9459C3.57323 12.0004 3.57505 12.0268 3.57505 12.0549C3.57667 12.1342 3.56073 12.2128 3.52835 12.2853C3.49596 12.3578 3.44793 12.4223 3.38764 12.4744C2.47403 13.4234 1.79716 14.5717 1.4113 15.8272C1.02544 17.0827 0.941337 18.4105 1.16573 19.7041C1.3578 21.6327 2.13892 23.4571 3.40448 24.9329C3.86367 25.511 4.45773 25.9693 5.13533 26.2684C5.81294 26.5675 6.55373 26.6983 7.29368 26.6496C7.81795 26.5855 8.32248 26.4113 8.77375 26.1388C8.86388 26.0852 8.96769 26.0588 9.07266 26.0625C9.17762 26.0662 9.27926 26.1 9.3653 26.1598C9.89708 26.5261 10.5143 26.7515 11.1585 26.8144C11.8027 26.8774 12.4524 26.7759 13.0459 26.5196C13.1218 26.4864 13.2044 26.4708 13.2874 26.4742C13.3703 26.4776 13.4513 26.4998 13.5243 26.5391C13.5972 26.5785 13.66 26.6339 13.708 26.7011C13.756 26.7683 13.7878 26.8456 13.801 26.9269C13.9521 27.8178 14.2894 28.6674 14.7911 29.4211C15.4931 30.5457 16.502 31.4495 17.7009 32.0276C18.1407 32.2554 18.6318 32.3681 19.1277 32.3553C19.6236 32.3424 20.1081 32.2042 20.5353 31.9539C20.595 31.9136 20.6621 31.8855 20.7328 31.8712C20.8036 31.857 20.8764 31.8568 20.9472 31.8708C21.018 31.8848 21.0852 31.9127 21.145 31.9527C21.2048 31.9928 21.256 32.0443 21.2955 32.1043C21.3351 32.1642 21.3622 32.2314 21.3753 32.3018C21.3884 32.3722 21.3872 32.4446 21.3718 32.5146C21.3564 32.5845 21.3271 32.6508 21.2857 32.7094C21.2442 32.768 21.1914 32.8179 21.1303 32.856C20.5532 33.2091 19.8944 33.4091 19.2171 33.4368C18.5398 33.4644 17.8667 33.3189 17.2623 33.014C15.8708 32.352 14.6981 31.3103 13.8814 30.0108C13.4185 29.3104 13.0739 28.5397 12.861 27.7291C12.222 27.9082 11.5529 27.9563 10.8946 27.8703C10.2363 27.7843 9.6025 27.566 9.03195 27.2289C8.52921 27.4862 7.98431 27.6526 7.42278 27.7203C6.50978 27.7937 5.59257 27.6439 4.75136 27.2841C3.91015 26.9242 3.17056 26.3653 2.59727 25.6562C1.18215 24.0142 0.306323 21.9821 0.0870941 19.8322C-0.153791 18.4056 -0.0630553 16.9431 0.352373 15.5566C0.767802 14.1701 1.49694 12.8961 2.4841 11.832C2.51573 10.1997 3.18407 8.64326 4.34845 7.49023C5.51282 6.33719 7.08243 5.67751 8.7269 5.65001C9.21639 4.57907 10.0838 3.72294 11.1654 3.24311C12.247 2.76328 13.4682 2.69291 14.5985 3.04528C16.1546 1.46733 18.2275 0.493153 20.4434 0.298381C22.0544 0.110785 23.6871 0.322412 25.1956 0.914337C26.182 0.206232 27.4003 -0.108274 28.6093 0.0331351C29.8182 0.174544 30.9296 0.761552 31.7232 1.67786C33.1058 1.22277 34.6042 1.25485 35.9658 1.76869C37.3274 2.28253 38.4689 3.24669 39.1977 4.49862C40.9485 4.93179 42.5443 5.83755 43.8083 7.11557C44.881 8.1684 45.699 9.44912 46.2008 10.8613C46.9947 11.2047 47.7092 11.7063 48.2999 12.3349C48.8906 12.9636 49.345 13.7059 49.6349 14.516C49.9249 15.3261 50.0442 16.1866 49.9854 17.0443C49.9267 17.902 49.6912 18.7386 49.2935 19.5022C49.7284 20.3375 49.9689 21.2591 49.9972 22.199C50.0255 23.1388 49.8409 24.073 49.4571 24.9326C49.0732 25.7922 48.4999 26.5553 47.7793 27.1657C47.0588 27.776 46.2094 28.2181 45.2938 28.4592C45.3928 28.9303 45.4429 29.4102 45.4432 29.8915C45.4432 34.2199 41.4185 37.7391 36.4719 37.7391C36.0308 37.7393 35.5901 37.7106 35.1528 37.6532L35.9245 43.3893C35.9347 43.4654 35.9284 43.5429 35.906 43.6164C35.8837 43.6899 35.8457 43.7579 35.7948 43.8157C35.7438 43.8735 35.681 43.9199 35.6105 43.9517C35.5401 43.9834 35.4636 43.9999 35.3862 44Z" fill="#4A4E5C"/>
<path d="M22.9668 33.7741C22.9091 33.7749 22.8516 33.766 22.7969 33.7477L20.2489 32.9175C20.1179 32.8748 20.008 32.7843 19.9418 32.6642C19.8755 32.5441 19.8577 32.4035 19.892 32.2709C19.9263 32.1383 20.0101 32.0235 20.1264 31.95C20.2428 31.8765 20.383 31.8496 20.5185 31.8749C21.4334 32.0731 22.3257 32.363 23.1815 32.7403C23.2963 32.7893 23.3905 32.8762 23.4482 32.9862C23.506 33.0962 23.5237 33.2226 23.4985 33.344C23.4733 33.4655 23.4066 33.5746 23.3097 33.653C23.2129 33.7313 23.0917 33.7741 22.9668 33.7741Z" fill="#4A4E5C"/>
</g>
<defs>
<clipPath id="clip0_23_637">
<rect width="50" height="44" fill="white"/>
</clipPath>
</defs>
</svg>
