<svg width="44" height="44" viewBox="0 0 44 44" fill="none" xmlns="http://www.w3.org/2000/svg">
<g clip-path="url(#clip0_18_82)">
<path d="M38.8998 37.8775C37.9963 38.8141 37.1414 39.418 36.466 39.8952C28.5264 45.5044 19.1318 43.8694 17.1352 43.4701C14.1868 42.8804 8.48768 41.7407 4.3673 36.9697C-1.8665 29.7515 -0.895807 18.3795 3.93955 10.8727C4.82401 9.49953 9.496 1.87836 18.9918 0.656165C24.7385 -0.0834942 31.4374 1.40831 36.2885 5.41014C46.4715 13.8103 45.7466 30.7802 38.8998 37.8775Z" fill="url(#paint0_linear_18_82)"/>
<path d="M30.0794 42.5293C30.0417 42.5243 30.0054 42.5119 29.9726 42.4929C29.9398 42.4738 29.9112 42.4485 29.8885 42.4184C29.2184 41.5291 24.3457 34.5701 30.8306 28.2089C36.9868 22.1702 39.7774 20.9303 40.1485 17.3823C40.1919 16.9679 40.7607 16.8685 40.9479 17.242C42.3468 20.0336 44.5262 26.5479 37.3138 30.8235C29.3578 35.54 30.0099 40.7103 30.3946 42.1795C30.4065 42.2243 30.4069 42.2712 30.396 42.3162C30.3851 42.3611 30.363 42.4027 30.3319 42.4373C30.3007 42.4719 30.2614 42.4984 30.2174 42.5144C30.1733 42.5305 30.126 42.5356 30.0794 42.5293Z" fill="#91B3FA"/>
<path d="M31.0662 42.6616C30.9781 42.65 30.8962 42.6107 30.8327 42.5495C30.7691 42.4883 30.7274 42.4085 30.7138 42.322C30.5239 41.1119 30.0575 36.5901 33.4408 35.391C37.1653 34.0709 40.1722 37.4863 42.91 34.8131C43.054 34.6724 43.2963 34.795 43.2619 34.9919C43.0181 36.3883 41.9328 39.6227 37.1038 40.2736C31.9351 40.9701 31.3534 41.554 31.4578 42.2782C31.49 42.5015 31.2931 42.692 31.0662 42.6616Z" fill="#91B3FA"/>
<path opacity="0.47" d="M39.9685 20.9997C39.9056 21.2573 39.823 21.5098 39.7212 21.7551C39.6221 21.9997 39.5102 22.2392 39.386 22.4725C39.1415 22.9414 38.8481 23.385 38.5268 23.8076C37.8799 24.6507 37.0973 25.3913 36.2346 26.0194C35.8026 26.3295 35.3536 26.616 34.8898 26.8779C34.4468 27.1319 34.0204 27.4131 33.6132 27.7198C32.7971 28.3353 32.0554 29.0407 31.4025 29.8225C30.1 31.3824 29.1755 33.2648 28.8712 35.269C28.7179 36.2736 28.7121 37.2946 28.8539 38.3007C28.9921 39.3102 29.2844 40.2987 29.6697 41.2518C29.6795 41.2757 29.6795 41.3025 29.6696 41.3264C29.6597 41.3503 29.6407 41.3695 29.6166 41.3798C29.5926 41.3901 29.5654 41.3908 29.5409 41.3818C29.5163 41.3727 29.4963 41.3545 29.4851 41.3312C29.0345 40.3894 28.6979 39.3881 28.5115 38.3542C28.3182 37.3162 28.2876 36.2551 28.4209 35.2079C28.5503 34.1592 28.8508 33.1319 29.2835 32.1649C29.7174 31.1974 30.2907 30.2937 30.9603 29.4694C31.6298 28.6439 32.4064 27.9053 33.2556 27.2601C33.6812 26.9371 34.127 26.6407 34.5903 26.3729C35.0449 26.116 35.4765 25.855 35.8945 25.558C36.7288 24.9712 37.4998 24.2938 38.1631 23.5207C38.4981 23.1358 38.8048 22.7279 39.0808 22.3C39.3531 21.8716 39.6076 21.4197 39.7908 20.9523L39.7931 20.9462C39.8015 20.9248 39.8179 20.9074 39.8388 20.8974C39.8598 20.8874 39.8839 20.8856 39.9061 20.8923C39.9284 20.8991 39.9472 20.914 39.9588 20.9339C39.9704 20.9538 39.9738 20.9773 39.9685 20.9997Z" fill="white"/>
<path opacity="0.47" d="M30.8516 41.8409C30.8674 41.7971 30.8624 41.7564 30.861 41.7145L30.8571 41.5898L30.8541 41.3405C30.8544 41.1743 30.8582 41.0082 30.8654 40.8421C30.8804 40.5101 30.9092 40.1785 30.9543 39.8485C31.0463 39.1897 31.1979 38.5327 31.468 37.9139C31.7351 37.2995 32.1396 36.7122 32.7266 36.3286C33.0201 36.1396 33.3473 36.007 33.6909 35.938C34.0325 35.8671 34.3835 35.8566 34.7268 35.8862C36.0723 36.0399 37.3911 36.2939 38.7133 36.5001C39.372 36.5968 40.0399 36.6831 40.6865 36.5961C40.8468 36.5735 41.0049 36.5379 41.1593 36.4897C41.3125 36.4392 41.4603 36.3742 41.6007 36.2955C41.8819 36.1374 42.1292 35.9214 42.3501 35.6815L42.3508 35.6808C42.3653 35.665 42.3855 35.6555 42.4071 35.6544C42.4287 35.6532 42.4498 35.6605 42.466 35.6746C42.4822 35.6887 42.492 35.7086 42.4934 35.7298C42.4948 35.751 42.4876 35.7719 42.4735 35.788C42.2496 36.0418 41.9937 36.2765 41.6947 36.4531C41.545 36.5413 41.387 36.6148 41.2228 36.6727C41.0581 36.7281 40.8891 36.77 40.7175 36.7978C40.0288 36.8971 39.3461 36.8127 38.6799 36.7227C38.0118 36.6291 37.3521 36.5072 36.6901 36.4017C36.0301 36.2959 35.3625 36.1937 34.7053 36.1178C34.3808 36.0868 34.0528 36.0944 33.7365 36.1572C33.4197 36.2179 33.1174 36.3371 32.8458 36.5087C32.2995 36.8512 31.9032 37.3963 31.6341 37.9862C31.3618 38.5792 31.2 39.2211 31.0974 39.8688C31.0469 40.1933 31.0123 40.5206 30.9914 40.8487C30.981 41.0128 30.9742 41.1771 30.971 41.3416L30.9693 41.5881L30.9709 41.7113C30.972 41.752 30.9701 41.7939 30.9905 41.8326C30.9963 41.8437 30.9993 41.856 30.999 41.8684C30.9988 41.8808 30.9955 41.893 30.9893 41.9038C30.9832 41.9147 30.9743 41.9238 30.9637 41.9305C30.953 41.9372 30.9408 41.9411 30.9282 41.942C30.9156 41.9428 30.903 41.9406 30.8915 41.9355C30.88 41.9304 30.87 41.9225 30.8623 41.9126C30.8547 41.9027 30.8496 41.8911 30.8477 41.8789C30.8457 41.8666 30.8469 41.854 30.8511 41.8423L30.8516 41.8409Z" fill="white"/>
<path d="M23.8217 0.499652C21.7946 0.483911 19.7498 0.800434 17.9408 1.5395C13.7296 3.25993 10.1558 7.81217 11.5543 12.462C12.0087 13.9725 11.77 15.639 13.2983 16.2954C14.1252 16.6506 16.377 16.862 17.2332 16.5821C19.5088 15.8382 21.0046 13.8021 19.767 11.5442C19.3706 10.8212 18.8576 10.1606 18.5154 9.41128C18.1731 8.66192 18.0172 7.77246 18.3661 7.02603C19.051 5.5609 21.3263 5.09513 22.8019 5.13909C24.5434 5.19097 26.1215 6.03912 27.0587 7.49412C28.2267 9.3075 28.5226 11.5131 28.3517 13.6181C28.1687 15.8704 27.2042 17.5905 25.7588 19.3183C24.5143 20.8059 23.1439 22.2339 22.3167 23.9806C21.5574 25.5842 21.3093 27.3611 21.275 29.1154C21.2683 29.4555 19.5509 32.6599 19.5583 33.6389C19.5593 33.7772 21.5061 34.2354 21.6466 34.2369C22.3795 34.245 24.4557 34.2679 25.2198 34.2763C25.2953 34.2772 25.3681 34.2486 25.4222 34.1967C25.4763 34.1448 25.5072 34.0739 25.5082 33.9996C25.5626 29.2367 27.0505 24.6958 30.817 21.497C32.1875 20.333 33.6634 19.3852 34.7291 17.9161C36.2479 15.8221 36.9973 13.7614 36.781 11.1772C36.5835 8.81697 35.7942 6.45546 34.2317 4.62421C32.5524 2.65599 30.0944 1.42688 27.5399 0.89646C26.3169 0.643141 25.0714 0.510217 23.8217 0.499652Z" fill="url(#paint1_linear_18_82)"/>
<path d="M27.5599 39.6155C27.5599 41.8057 26.3269 43.7434 24.1026 43.7434C23.622 43.7434 21.9877 43.7478 21.5605 43.5958C20.0098 43.0442 20.0042 41.8712 20.0042 40.1542C20.0042 37.964 20.7554 35.81 22.9797 35.81C25.2041 35.81 27.5599 37.4254 27.5599 39.6155Z" fill="url(#paint2_linear_18_82)"/>
<path d="M21.8955 0.0005581C19.8684 -0.0151829 17.8237 0.301342 16.0146 1.04041C11.8035 2.76083 8.22962 7.31308 9.62819 11.9629C10.0825 13.4734 11.133 15.3748 12.6613 16.0312C13.4882 16.3864 14.4508 16.3629 15.307 16.083C17.5826 15.3391 19.0784 13.303 17.8408 11.0451C17.4445 10.3221 16.9315 9.66155 16.5892 8.91219C16.247 8.16282 16.091 7.27337 16.4399 6.52694C17.1249 5.06181 19.4002 4.59604 20.8757 4.63999C22.6173 4.69187 24.1953 5.54002 25.1325 6.99502C26.3005 8.8084 26.5964 11.014 26.4255 13.119C26.2426 15.3713 25.2781 17.0914 23.8326 18.8192C22.5882 20.3068 21.2177 21.7348 20.3906 23.4815C19.6312 25.0851 19.3831 26.862 19.3488 28.6163C19.3422 28.9564 19.4584 32.5073 19.4658 33.4863C19.4663 33.5527 19.4932 33.6163 19.5408 33.6633C19.5885 33.7104 19.653 33.7371 19.7204 33.7378C20.4534 33.7459 22.5295 33.7688 23.2936 33.7772C23.3691 33.7781 23.4419 33.7495 23.496 33.6976C23.5501 33.6457 23.5811 33.5748 23.5821 33.5005C23.6365 28.7376 25.1244 24.1967 28.8908 20.9979C30.2613 19.8339 31.7372 18.8861 32.8029 17.417C34.3218 15.3231 35.0711 13.2623 34.8549 10.6781C34.6574 8.31787 33.868 5.95637 32.3056 4.12512C30.6262 2.15689 28.1683 0.927783 25.6137 0.397366C24.3907 0.144047 23.1452 0.0111235 21.8955 0.0005581Z" fill="url(#paint3_linear_18_82)"/>
<path d="M22.1057 43.6208C24.33 43.6208 26.1332 41.8453 26.1332 39.6551C26.1332 37.4649 24.33 35.6894 22.1057 35.6894C19.8813 35.6894 18.0781 37.4649 18.0781 39.6551C18.0781 41.8453 19.8813 43.6208 22.1057 43.6208Z" fill="url(#paint4_linear_18_82)"/>
<path opacity="0.63" d="M10.9613 11.5074C10.9496 11.5074 10.9382 11.5035 10.929 11.4962C10.9199 11.489 10.9135 11.4788 10.9109 11.4675C10.6287 10.2127 10.5872 8.24766 11.9927 6.01224C13.3645 3.83039 15.2886 2.37048 17.7119 1.67303C20.3022 0.927549 23.3776 1.08714 26.8529 2.14741C26.8659 2.15141 26.8769 2.16036 26.8832 2.17229C26.8896 2.18422 26.8909 2.19816 26.8869 2.21104C26.8828 2.22392 26.8738 2.23469 26.8617 2.24099C26.8496 2.24729 26.8354 2.24861 26.8223 2.24464C20.1457 0.207613 14.9104 1.56472 12.0805 6.06581C10.6934 8.27213 10.7338 10.2091 11.0119 11.4456C11.0135 11.453 11.0135 11.4607 11.0117 11.4681C11.0099 11.4755 11.0065 11.4825 11.0017 11.4884C10.9968 11.4943 10.9907 11.4991 10.9837 11.5024C10.9767 11.5057 10.9691 11.5074 10.9613 11.5074Z" fill="white"/>
<path opacity="0.63" d="M11.8086 13.5264C11.8004 13.5264 11.7924 13.5246 11.7851 13.5209C11.7779 13.5173 11.7716 13.512 11.7668 13.5056C11.7546 13.4891 11.4643 13.0942 11.1944 12.3988C11.1895 12.3862 11.1899 12.3722 11.1955 12.3599C11.2011 12.3476 11.2115 12.3379 11.2243 12.3331C11.2371 12.3283 11.2513 12.3287 11.2638 12.3342C11.2763 12.3397 11.2861 12.3499 11.291 12.3624C11.5555 13.0441 11.8473 13.4416 11.8503 13.4455C11.8559 13.4531 11.8593 13.4621 11.86 13.4714C11.8608 13.4808 11.8589 13.4902 11.8546 13.4986C11.8503 13.5069 11.8437 13.514 11.8356 13.5189C11.8275 13.5238 11.8181 13.5264 11.8086 13.5264Z" fill="white"/>
<path opacity="0.63" d="M23.4533 37.0848C23.4452 37.0848 23.4372 37.0829 23.43 37.0792C23.0198 36.8737 22.5659 36.7673 22.1056 36.7686C22.0919 36.7686 22.0788 36.7633 22.0691 36.7537C22.0594 36.7442 22.0539 36.7312 22.0539 36.7177C22.0539 36.7042 22.0594 36.6913 22.0691 36.6817C22.0788 36.6722 22.0919 36.6668 22.1056 36.6668C22.5821 36.6654 23.0521 36.7757 23.4768 36.9885C23.4871 36.9937 23.4954 37.0021 23.5003 37.0125C23.5051 37.0229 23.5063 37.0346 23.5036 37.0457C23.5009 37.0569 23.4945 37.0668 23.4853 37.0738C23.4762 37.0809 23.4649 37.0848 23.4533 37.0848Z" fill="white"/>
<path opacity="0.63" d="M20.4377 42.1417C20.4274 42.1417 20.4173 42.1386 20.4088 42.1329C19.9753 41.845 19.6248 41.4517 19.391 40.9912C19.1573 40.5307 19.0483 40.0185 19.0746 39.5043C19.101 38.9901 19.2618 38.4913 19.5414 38.0563C19.8211 37.6213 20.2101 37.2648 20.6708 37.0213C20.6829 37.0149 20.697 37.0135 20.7102 37.0173C20.7233 37.0212 20.7343 37.0301 20.7408 37.042C20.7473 37.0539 20.7487 37.0678 20.7448 37.0807C20.7408 37.0937 20.7318 37.1045 20.7198 37.1109C20.2747 37.3461 19.8989 37.6905 19.6288 38.1107C19.3586 38.5309 19.2033 39.0127 19.1778 39.5094C19.1524 40.0061 19.2576 40.5009 19.4834 40.9457C19.7092 41.3906 20.0479 41.7705 20.4666 42.0486C20.4758 42.0547 20.4828 42.0636 20.4864 42.0738C20.4901 42.0841 20.4904 42.0953 20.4871 42.1057C20.4839 42.1161 20.4773 42.1252 20.4684 42.1317C20.4595 42.1382 20.4487 42.1417 20.4377 42.1417Z" fill="white"/>
<g opacity="0.3">
<path d="M8.70789 7.41926C8.69782 7.43151 8.68539 7.44169 8.67133 7.44921C8.65726 7.45673 8.64182 7.46145 8.6259 7.4631C8.60998 7.46475 8.59389 7.46329 8.57854 7.45882C8.56319 7.45434 8.54889 7.44693 8.53645 7.43701C8.4348 7.35598 8.32809 7.27808 8.21922 7.20549C8.1928 7.18787 8.17445 7.16075 8.16812 7.12995C8.16179 7.09915 8.16798 7.06713 8.18536 7.04078L8.18666 7.03882C8.19563 7.02577 8.20713 7.01459 8.2205 7.00592C8.23387 6.99724 8.24884 6.99125 8.26456 6.98827C8.28028 6.9853 8.29644 6.9854 8.31212 6.98858C8.32779 6.99175 8.34269 6.99793 8.35594 7.00677C8.47051 7.08319 8.58288 7.16518 8.68987 7.2505C8.71326 7.26915 8.72881 7.29566 8.73353 7.32493C8.73825 7.3542 8.7318 7.38415 8.71544 7.40902C8.71311 7.41257 8.71059 7.41599 8.70789 7.41926ZM7.66476 6.88795C7.54693 6.83067 7.4255 6.77783 7.30372 6.73082C7.28881 6.72508 7.27518 6.7165 7.26364 6.70557C7.25209 6.69465 7.24284 6.68159 7.23642 6.66714C7.23 6.65269 7.22654 6.63713 7.22623 6.62137C7.22592 6.6056 7.22878 6.58993 7.23462 6.57524C7.24047 6.56056 7.2492 6.54716 7.26031 6.5358C7.27142 6.52444 7.2847 6.51535 7.29938 6.50905C7.31406 6.50275 7.32986 6.49936 7.34588 6.49907C7.36189 6.49878 7.37781 6.50161 7.39271 6.50738C7.52082 6.55682 7.64866 6.61245 7.77265 6.67269C7.80164 6.68679 7.82375 6.71164 7.83413 6.74179C7.8445 6.77193 7.84229 6.8049 7.82798 6.83344C7.82585 6.83771 7.82346 6.84184 7.82083 6.84583C7.80455 6.87044 7.77968 6.88831 7.75092 6.89607C7.72216 6.90383 7.69151 6.90095 7.66476 6.88795ZM6.69202 6.54192C6.56455 6.51199 6.43422 6.48715 6.30455 6.46811C6.2887 6.4658 6.27348 6.46044 6.25974 6.45233C6.246 6.44422 6.23402 6.43353 6.22449 6.42086C6.21495 6.40819 6.20804 6.39379 6.20416 6.37849C6.20028 6.36319 6.1995 6.34729 6.20186 6.33169C6.20422 6.31609 6.20969 6.30111 6.21793 6.28759C6.22618 6.27407 6.23706 6.26228 6.24993 6.25291C6.26281 6.24353 6.27744 6.23674 6.29298 6.23293C6.30852 6.22913 6.32468 6.22837 6.34052 6.23071C6.47706 6.25077 6.61435 6.27693 6.74856 6.30845C6.76413 6.31211 6.77881 6.31875 6.79178 6.32799C6.80474 6.33723 6.81573 6.3489 6.82411 6.36232C6.8325 6.37575 6.83811 6.39067 6.84064 6.40623C6.84317 6.42179 6.84256 6.43769 6.83885 6.45302C6.83513 6.46835 6.82839 6.48281 6.819 6.49557C6.80962 6.50834 6.79777 6.51915 6.78413 6.52741C6.7705 6.53566 6.75535 6.54119 6.73954 6.54368C6.72374 6.54617 6.70759 6.54557 6.69202 6.54192ZM5.66511 6.41879C5.5339 6.41766 5.40114 6.42216 5.27046 6.43208C5.23825 6.43451 5.20637 6.42424 5.18184 6.40353C5.15731 6.38282 5.14214 6.35337 5.13965 6.32165C5.13716 6.28993 5.14757 6.25854 5.16858 6.23437C5.1896 6.2102 5.21949 6.19524 5.25171 6.19276C5.38931 6.18233 5.52909 6.17762 5.66717 6.17875C5.69944 6.1791 5.73025 6.19205 5.75284 6.21473C5.77544 6.23742 5.78797 6.26801 5.7877 6.29978C5.78743 6.33156 5.77437 6.36193 5.75139 6.38424C5.72841 6.40655 5.69738 6.41897 5.66511 6.41879ZM4.63593 6.52399C4.50806 6.55152 4.37956 6.58483 4.25406 6.62306C4.23876 6.62773 4.22268 6.62939 4.20673 6.62793C4.19078 6.62648 4.17528 6.62195 4.16111 6.6146C4.14695 6.60724 4.13439 6.59721 4.12416 6.58508C4.11393 6.57294 4.10623 6.55894 4.1015 6.54387C4.09677 6.5288 4.09511 6.51297 4.0966 6.49727C4.09809 6.48156 4.10271 6.4663 4.11019 6.45236C4.11768 6.43842 4.12788 6.42607 4.14022 6.41601C4.15255 6.40595 4.16678 6.39838 4.18209 6.39374C4.31412 6.35355 4.44933 6.31849 4.58388 6.28953C4.59952 6.28614 4.61569 6.28583 4.63145 6.2886C4.64722 6.29138 4.66227 6.29718 4.67576 6.30569C4.68924 6.31419 4.70089 6.32523 4.71004 6.33817C4.71919 6.35111 4.72566 6.3657 4.72908 6.38111C4.7325 6.39651 4.73281 6.41243 4.72997 6.42795C4.72714 6.44347 4.72123 6.45829 4.71258 6.47156C4.70393 6.48483 4.69271 6.49629 4.67956 6.50528C4.66641 6.51428 4.65158 6.52064 4.63593 6.52399ZM3.65605 6.85079C3.53735 6.90555 3.41959 6.96603 3.30599 7.03054C3.27799 7.04642 3.24473 7.0507 3.21353 7.04244C3.18232 7.03418 3.15572 7.01406 3.13958 6.9865C3.12343 6.95894 3.11906 6.9262 3.12743 6.89546C3.13579 6.86473 3.15621 6.83853 3.18418 6.82261C3.30372 6.75472 3.42771 6.69107 3.55262 6.63343C3.5819 6.61993 3.61542 6.61843 3.64582 6.62926C3.67621 6.64009 3.70099 6.66237 3.71471 6.69119C3.72843 6.72001 3.72995 6.75302 3.71895 6.78295C3.70795 6.81288 3.68533 6.83728 3.65605 6.85079ZM0.909053 10.3927C0.893225 10.3903 0.878022 10.3849 0.864312 10.3768C0.850602 10.3686 0.838655 10.3579 0.829151 10.3452C0.819647 10.3326 0.812774 10.3182 0.808923 10.3029C0.805072 10.2876 0.80432 10.2717 0.806708 10.2561C0.827293 10.1218 0.854122 9.98662 0.886443 9.85428C0.894005 9.82334 0.913738 9.79662 0.9413 9.78001C0.968863 9.76339 1.002 9.75824 1.03342 9.76568C1.06484 9.77312 1.09198 9.79254 1.10886 9.81967C1.12574 9.84681 1.13099 9.87943 1.12344 9.91038C1.09275 10.036 1.0673 10.1644 1.04777 10.2919C1.04539 10.3075 1.03992 10.3225 1.03166 10.336C1.0234 10.3495 1.01251 10.3612 0.999629 10.3706C0.986745 10.38 0.972112 10.3867 0.95657 10.3905C0.941028 10.3943 0.924881 10.395 0.909053 10.3927ZM2.77466 7.383C2.67136 7.46234 2.5703 7.54707 2.47431 7.63487C2.45062 7.65653 2.41916 7.66803 2.38686 7.66686C2.35455 7.66568 2.32405 7.65192 2.30205 7.62859C2.28005 7.60527 2.26836 7.57429 2.26956 7.54248C2.27076 7.51068 2.28473 7.48064 2.30842 7.45898C2.40952 7.36654 2.51594 7.27731 2.62473 7.19376C2.63735 7.18404 2.65179 7.17687 2.66722 7.17266C2.68265 7.16844 2.69878 7.16726 2.71468 7.16918C2.73058 7.17111 2.74593 7.1761 2.75987 7.18387C2.77381 7.19164 2.78605 7.20204 2.7959 7.21448C2.80576 7.22691 2.81302 7.24114 2.81729 7.25634C2.82155 7.27154 2.82273 7.28742 2.82076 7.30308C2.81878 7.31873 2.81369 7.33384 2.80578 7.34755C2.79787 7.36127 2.7873 7.37331 2.77466 7.383ZM1.15843 9.37592C1.12836 9.36425 1.10423 9.34128 1.09135 9.31209C1.07847 9.2829 1.07789 9.24986 1.08975 9.22025C1.14034 9.09396 1.19714 8.96814 1.2585 8.84628C1.26561 8.83216 1.27547 8.81955 1.28753 8.80919C1.29959 8.79882 1.31361 8.7909 1.32877 8.78586C1.34394 8.78083 1.35997 8.77879 1.37594 8.77986C1.39191 8.78092 1.40751 8.78507 1.42185 8.79208C1.43619 8.79908 1.44899 8.80879 1.45952 8.82067C1.47004 8.83254 1.47809 8.84634 1.4832 8.86128C1.48832 8.87621 1.49039 8.89199 1.48931 8.90772C1.48822 8.92344 1.48401 8.9388 1.47689 8.95292C1.41857 9.06874 1.36459 9.1883 1.31654 9.30833C1.30466 9.33793 1.28134 9.36167 1.25169 9.37435C1.22204 9.38702 1.1885 9.38759 1.15843 9.37592ZM2.0363 8.09568C1.95368 8.19573 1.87437 8.30059 1.80057 8.40743C1.78252 8.43357 1.75473 8.45164 1.72323 8.45772C1.69173 8.4638 1.65907 8.4574 1.63233 8.4399C1.6056 8.42241 1.58695 8.39524 1.58044 8.36429C1.57393 8.33334 1.58009 8.30111 1.59757 8.2746C1.59804 8.2739 1.59852 8.27317 1.59903 8.27249C1.67668 8.15999 1.76017 8.04957 1.8471 7.94427C1.86678 7.92043 1.89499 7.90494 1.92592 7.90096C1.95685 7.89699 1.98815 7.90485 2.01338 7.92291C2.03861 7.94098 2.05584 7.96788 2.06153 7.99808C2.06722 8.02827 2.06094 8.05947 2.04398 8.08525C2.04163 8.08881 2.03904 8.09229 2.0363 8.09568Z" fill="#91B3FA"/>
<path d="M0.978921 11.1806C0.992475 11.1601 0.999306 11.136 0.99849 11.1115C0.996498 11.0497 0.995826 10.9868 0.996378 10.9245C0.996525 10.9088 0.993518 10.8931 0.98753 10.8785C0.981541 10.8639 0.972688 10.8506 0.961476 10.8393C0.950263 10.8281 0.936912 10.8191 0.922183 10.813C0.907454 10.8068 0.891637 10.8036 0.875634 10.8034C0.859631 10.8033 0.843754 10.8062 0.828913 10.8121C0.814072 10.818 0.800556 10.8268 0.789136 10.8378C0.777717 10.8488 0.768617 10.862 0.762358 10.8765C0.756098 10.891 0.7528 10.9066 0.752654 10.9223C0.75202 10.9878 0.752759 11.054 0.754828 11.119C0.755643 11.1446 0.764724 11.1692 0.780748 11.1893C0.796772 11.2095 0.818902 11.224 0.843912 11.2309C0.868923 11.2378 0.895507 11.2366 0.919791 11.2275C0.944076 11.2185 0.964792 11.202 0.978921 11.1806Z" fill="#91B3FA"/>
</g>
<g opacity="0.3">
<path d="M2.53665 14.5024C2.5524 14.4785 2.55898 14.4498 2.55522 14.4216C2.55146 14.3933 2.5376 14.3673 2.51613 14.3481C2.46951 14.3066 2.42299 14.2635 2.37791 14.2199C2.35484 14.1976 2.32373 14.1852 2.2914 14.1855C2.25908 14.1858 2.22819 14.1987 2.20554 14.2214C2.18289 14.2441 2.17032 14.2748 2.17061 14.3066C2.1709 14.3384 2.18402 14.3688 2.20709 14.3911C2.25458 14.437 2.30356 14.4825 2.35263 14.5262C2.36571 14.5378 2.38122 14.5466 2.39807 14.5517C2.41492 14.5569 2.43271 14.5584 2.45021 14.5562C2.46771 14.5539 2.48451 14.5479 2.49943 14.5387C2.51436 14.5294 2.52706 14.517 2.53665 14.5024Z" fill="#91B3FA"/>
<path d="M9.56527 13.7836C9.5559 13.7964 9.54407 13.8073 9.53045 13.8156C9.51682 13.8239 9.50167 13.8294 9.48586 13.8319C9.47005 13.8345 9.45388 13.8339 9.4383 13.8303C9.42271 13.8266 9.408 13.82 9.39501 13.8108C9.38203 13.8015 9.37101 13.7899 9.36261 13.7765C9.3542 13.763 9.34856 13.7481 9.34602 13.7325C9.34347 13.717 9.34407 13.7011 9.34778 13.6857C9.35148 13.6704 9.35823 13.6559 9.36762 13.6431C9.44263 13.5408 9.51437 13.4337 9.58174 13.3238C9.59 13.3103 9.60089 13.2985 9.61377 13.2891C9.62666 13.2798 9.64129 13.273 9.65683 13.2692C9.67237 13.2654 9.68851 13.2647 9.70434 13.2671C9.72017 13.2694 9.73537 13.2748 9.74908 13.283C9.76279 13.2911 9.77474 13.3018 9.78424 13.3145C9.79374 13.3272 9.80061 13.3416 9.80446 13.3569C9.80831 13.3722 9.80906 13.3881 9.80666 13.4037C9.80427 13.4193 9.79879 13.4342 9.79052 13.4477C9.76133 13.4954 9.73146 13.5424 9.7009 13.5887C9.6573 13.6547 9.61168 13.7203 9.56527 13.7836ZM9.93397 12.9287C9.9043 12.9161 9.88092 12.8924 9.86898 12.8629C9.85704 12.8333 9.85753 12.8003 9.87032 12.771C9.92144 12.6542 9.96815 12.5339 10.009 12.4136C10.0141 12.3987 10.0221 12.3849 10.0326 12.373C10.0431 12.3611 10.0559 12.3514 10.0702 12.3443C10.0846 12.3373 10.1002 12.3331 10.1161 12.332C10.1321 12.3309 10.1481 12.3329 10.1633 12.3379C10.1785 12.3429 10.1925 12.3508 10.2046 12.3612C10.2166 12.3715 10.2265 12.3841 10.2337 12.3982C10.2408 12.4123 10.2451 12.4276 10.2462 12.4434C10.2473 12.4591 10.2453 12.4749 10.2402 12.4898C10.1971 12.6165 10.148 12.7431 10.0942 12.866C10.0878 12.8805 10.0787 12.8936 10.0672 12.9046C10.0557 12.9156 10.0422 12.9243 10.0273 12.9301C10.0124 12.9359 9.9965 12.9388 9.98049 12.9386C9.96448 12.9383 9.94867 12.935 9.93397 12.9287ZM9.14055 14.2864C9.04689 14.383 8.94776 14.4769 8.84585 14.5656C8.82163 14.5867 8.78989 14.5974 8.75763 14.5955C8.72536 14.5935 8.6952 14.579 8.67379 14.5551C8.65238 14.5313 8.64147 14.5 8.64346 14.4683C8.64545 14.4365 8.66017 14.4068 8.68439 14.3857C8.78119 14.3015 8.87531 14.2123 8.96423 14.1206C8.98655 14.0976 9.01725 14.0843 9.04957 14.0835C9.08189 14.0828 9.11318 14.0947 9.13656 14.1167C9.15994 14.1387 9.1735 14.1689 9.17424 14.2007C9.17499 14.2326 9.16287 14.2634 9.14055 14.2864ZM10.2651 11.9525C10.2494 11.9495 10.2344 11.9436 10.221 11.935C10.2076 11.9264 10.196 11.9153 10.187 11.9023C10.1779 11.8893 10.1716 11.8746 10.1683 11.8592C10.165 11.8438 10.1648 11.8279 10.1678 11.8124C10.1916 11.6875 10.2103 11.5601 10.2233 11.4338C10.2265 11.4022 10.2424 11.3731 10.2675 11.353C10.2925 11.3329 10.3246 11.3234 10.3568 11.3266C10.3889 11.3298 10.4185 11.3454 10.4389 11.3701C10.4593 11.3947 10.469 11.4264 10.4658 11.458C10.4521 11.591 10.4324 11.7252 10.4074 11.8566C10.4044 11.8721 10.3984 11.8869 10.3897 11.9001C10.3809 11.9133 10.3696 11.9247 10.3564 11.9336C10.3432 11.9425 10.3283 11.9488 10.3127 11.952C10.297 11.9552 10.2808 11.9554 10.2651 11.9525ZM8.31953 14.9637C8.20667 15.0376 8.08902 15.1077 7.96981 15.1722C7.95578 15.1798 7.94038 15.1846 7.92447 15.1863C7.90856 15.188 7.89246 15.1866 7.8771 15.1822C7.86173 15.1778 7.84739 15.1705 7.8349 15.1606C7.82242 15.1508 7.81202 15.1386 7.80432 15.1248C7.79661 15.111 7.79174 15.0958 7.78999 15.0801C7.78824 15.0645 7.78963 15.0486 7.7941 15.0335C7.79857 15.0184 7.80602 15.0042 7.81603 14.9919C7.82604 14.9797 7.83842 14.9694 7.85244 14.9618C7.96566 14.9006 8.07742 14.834 8.18459 14.7638C8.19792 14.7551 8.21287 14.749 8.22858 14.746C8.24429 14.7429 8.26045 14.743 8.27615 14.7461C8.29184 14.7492 8.30676 14.7553 8.32005 14.7641C8.33334 14.7729 8.34475 14.7842 8.35361 14.7973C8.36247 14.8104 8.36862 14.8251 8.37171 14.8406C8.37479 14.8561 8.37475 14.872 8.37159 14.8874C8.36842 14.9029 8.3622 14.9176 8.35326 14.9307C8.34433 14.9437 8.33287 14.955 8.31953 14.9637ZM7.36756 15.4473C7.24073 15.4952 7.11036 15.5384 6.98009 15.5757C6.96471 15.5801 6.9486 15.5815 6.93268 15.5798C6.91676 15.578 6.90134 15.5732 6.8873 15.5657C6.87326 15.5581 6.86087 15.5478 6.85085 15.5355C6.84084 15.5232 6.83338 15.5091 6.82891 15.4939C6.82444 15.4788 6.82304 15.4629 6.82481 15.4473C6.82657 15.4316 6.83145 15.4164 6.83917 15.4026C6.84689 15.3888 6.8573 15.3766 6.86981 15.3667C6.88232 15.3569 6.89667 15.3496 6.91206 15.3452C7.03584 15.3097 7.15973 15.2687 7.28027 15.2232C7.29521 15.2176 7.31114 15.2149 7.32714 15.2153C7.34314 15.2157 7.3589 15.2192 7.37352 15.2256C7.38814 15.232 7.40133 15.2412 7.41234 15.2527C7.42336 15.2641 7.43198 15.2776 7.43771 15.2923C7.44344 15.307 7.44617 15.3227 7.44575 15.3384C7.44533 15.3542 7.44176 15.3697 7.43524 15.3841C7.42873 15.3985 7.4194 15.4115 7.40779 15.4223C7.39617 15.4331 7.38251 15.4416 7.36756 15.4473ZM6.33115 15.7151C6.19666 15.7347 6.05982 15.7489 5.9245 15.7574C5.90852 15.7584 5.89251 15.7562 5.87736 15.7511C5.86221 15.746 5.84824 15.7381 5.83623 15.7276C5.82421 15.7172 5.8144 15.7046 5.80736 15.6904C5.80031 15.6763 5.79616 15.6609 5.79514 15.6452C5.79413 15.6295 5.79627 15.6137 5.80145 15.5988C5.80663 15.5839 5.81474 15.5701 5.82532 15.5583C5.83589 15.5464 5.84874 15.5368 5.86311 15.5298C5.87748 15.5229 5.89309 15.5188 5.90907 15.5178C6.03767 15.5098 6.16765 15.4963 6.29548 15.4777C6.32746 15.473 6.36001 15.4811 6.38597 15.5C6.41192 15.519 6.42916 15.5474 6.43389 15.5788C6.43862 15.6103 6.43045 15.6424 6.41118 15.6679C6.39191 15.6935 6.36312 15.7105 6.33115 15.7151ZM5.26008 15.754C5.12451 15.7441 4.98779 15.7285 4.85373 15.7074C4.83791 15.7049 4.82275 15.6994 4.80909 15.6912C4.79544 15.6829 4.78357 15.6721 4.77417 15.6593C4.76476 15.6466 4.75801 15.6321 4.75428 15.6168C4.75056 15.6014 4.74994 15.5855 4.75247 15.5699C4.75499 15.5544 4.76061 15.5394 4.769 15.526C4.77739 15.5126 4.78838 15.5009 4.80136 15.4917C4.81433 15.4824 4.82903 15.4758 4.84461 15.4721C4.86019 15.4685 4.87635 15.4679 4.89216 15.4704C5.01943 15.4904 5.14924 15.5053 5.27804 15.5146C5.294 15.5158 5.30958 15.52 5.32387 15.5271C5.33817 15.5342 5.35091 15.544 5.36136 15.5559C5.37181 15.5678 5.37978 15.5817 5.38479 15.5967C5.38981 15.6116 5.39179 15.6274 5.39061 15.6431C5.38943 15.6588 5.38512 15.6742 5.37792 15.6883C5.37072 15.7023 5.36078 15.7149 5.34866 15.7252C5.33654 15.7355 5.32248 15.7433 5.30728 15.7482C5.29208 15.7532 5.27604 15.7551 5.26008 15.754ZM4.20598 15.56C4.07626 15.5211 3.94652 15.4762 3.82032 15.4265C3.7903 15.4147 3.76627 15.3916 3.75353 15.3624C3.74078 15.3331 3.74036 15.3001 3.75235 15.2705C3.76435 15.241 3.78777 15.2173 3.81748 15.2048C3.84719 15.1922 3.88074 15.1918 3.91076 15.2036C4.03065 15.2508 4.15388 15.2935 4.27709 15.3305C4.2924 15.3351 4.30664 15.3426 4.31899 15.3526C4.33135 15.3626 4.34158 15.3749 4.34911 15.3888C4.35663 15.4027 4.3613 15.418 4.36284 15.4337C4.36439 15.4493 4.36278 15.4652 4.35811 15.4802C4.35344 15.4953 4.3458 15.5093 4.33563 15.5215C4.32546 15.5337 4.31295 15.5437 4.29883 15.5512C4.2847 15.5586 4.26923 15.5632 4.2533 15.5647C4.23737 15.5662 4.22129 15.5646 4.20598 15.56ZM3.22188 15.1434C3.13493 15.0949 3.04841 15.0431 2.96477 14.9896C2.93447 14.9702 2.90448 14.9506 2.8748 14.9307C2.86143 14.9219 2.84998 14.9106 2.8411 14.8974C2.83223 14.8843 2.82612 14.8695 2.82313 14.8539C2.82014 14.8384 2.82033 14.8224 2.8237 14.807C2.82706 14.7915 2.83353 14.7769 2.84272 14.7639C2.85173 14.7509 2.86325 14.7397 2.87664 14.7311C2.89003 14.7225 2.90501 14.7165 2.92074 14.7136C2.93647 14.7106 2.95263 14.7108 2.9683 14.714C2.98397 14.7172 2.99884 14.7234 3.01207 14.7323C3.04029 14.7512 3.0688 14.7699 3.0976 14.7884C3.17713 14.8393 3.25932 14.8884 3.342 14.9345C3.35592 14.9423 3.36816 14.9527 3.37801 14.9651C3.38786 14.9775 3.39512 14.9917 3.3994 15.0069C3.40367 15.0221 3.40486 15.038 3.4029 15.0536C3.40094 15.0692 3.39587 15.0844 3.38799 15.0981C3.38673 15.1002 3.38544 15.1024 3.38407 15.1044C3.36715 15.13 3.34095 15.1483 3.31081 15.1555C3.28067 15.1628 3.24887 15.1584 3.22188 15.1434Z" fill="#91B3FA"/>
<path d="M10.4676 10.8708C10.4812 10.8501 10.4881 10.8258 10.4871 10.8011C10.4847 10.7362 10.4809 10.6701 10.4757 10.6046C10.4745 10.5889 10.4701 10.5736 10.4629 10.5595C10.4556 10.5455 10.4456 10.533 10.4335 10.5227C10.4213 10.5125 10.4072 10.5047 10.392 10.4998C10.3768 10.4949 10.3607 10.493 10.3448 10.4942C10.3288 10.4955 10.3132 10.4998 10.299 10.5069C10.2847 10.5141 10.272 10.5239 10.2616 10.5359C10.2512 10.5479 10.2433 10.5617 10.2383 10.5767C10.2333 10.5917 10.2314 10.6075 10.2327 10.6232C10.2376 10.6854 10.2412 10.7482 10.2435 10.8099C10.2445 10.8353 10.2536 10.8599 10.2697 10.8799C10.2858 10.8999 10.3079 10.9144 10.3329 10.9212C10.3578 10.928 10.3844 10.9267 10.4086 10.9177C10.4328 10.9086 10.4535 10.8922 10.4676 10.8708Z" fill="#91B3FA"/>
</g>
<path d="M8.93877 9.46829C8.93515 9.45717 8.9281 9.44744 8.9186 9.44046C8.90909 9.43348 8.89762 9.42959 8.88576 9.42933L8.1926 9.41433C8.02386 9.137 7.81033 8.88861 7.5604 8.67895L7.65932 8.0037C7.66101 7.99215 7.659 7.98036 7.65356 7.96999C7.64813 7.95961 7.63954 7.95117 7.629 7.94582L6.88955 7.57111C6.87901 7.56576 6.86704 7.56379 6.85531 7.56546C6.84358 7.56714 6.83267 7.57237 6.8241 7.58044L6.32351 8.05215C6.00497 7.97374 5.67559 7.94699 5.34831 7.97297L4.93307 7.42628C4.92597 7.41694 4.91608 7.41001 4.90479 7.40645C4.89349 7.4029 4.88136 7.40291 4.87007 7.40647L4.07809 7.65633C4.0668 7.6599 4.05692 7.66684 4.04982 7.67619C4.04273 7.68555 4.03878 7.69685 4.03852 7.70852L4.0233 8.39103C3.74163 8.55716 3.48936 8.76742 3.27643 9.01351L2.59064 8.91612C2.57891 8.91445 2.56694 8.91642 2.5564 8.92177C2.54587 8.92712 2.53729 8.93558 2.53186 8.94596L2.15128 9.67406C2.14586 9.68444 2.14386 9.69623 2.14556 9.70778C2.14727 9.71933 2.15259 9.73007 2.16078 9.7385L2.63985 10.2314C2.56021 10.545 2.53305 10.8694 2.55945 11.1916L2.00421 11.6005C1.99472 11.6075 1.98768 11.6172 1.98407 11.6283C1.98046 11.6394 1.98047 11.6514 1.98409 11.6625L2.23785 12.4423C2.24147 12.4534 2.24852 12.4632 2.25802 12.4701C2.26752 12.4771 2.27899 12.481 2.29084 12.4813L2.98402 12.4963C3.15275 12.7736 3.36628 13.022 3.61621 13.2316L3.5173 13.9069C3.5156 13.9185 3.51761 13.9302 3.52304 13.9406C3.52848 13.951 3.53706 13.9594 3.5476 13.9648L4.28707 14.3395C4.29761 14.3448 4.30958 14.3468 4.32131 14.3451C4.33305 14.3435 4.34395 14.3382 4.35252 14.3302L4.85312 13.8585C5.17165 13.9369 5.50104 13.9636 5.82831 13.9376L6.24356 14.4843C6.25065 14.4937 6.26054 14.5006 6.27183 14.5042C6.28313 14.5077 6.29527 14.5077 6.30656 14.5041L7.09854 14.2543C7.10982 14.2507 7.1197 14.2438 7.12679 14.2344C7.13389 14.2251 7.13784 14.2138 7.1381 14.2021L7.15333 13.5196C7.43499 13.3534 7.68726 13.1432 7.90019 12.8971L8.58598 12.9945C8.59771 12.9962 8.60968 12.9942 8.62022 12.9888C8.63075 12.9835 8.63933 12.975 8.64476 12.9646L9.02532 12.2365C9.03075 12.2262 9.03275 12.2144 9.03105 12.2028C9.02935 12.1913 9.02403 12.1805 9.01583 12.1721L8.53677 11.6792C8.6164 11.3656 8.64356 11.0412 8.61718 10.719L9.17241 10.3101C9.1819 10.3031 9.18894 10.2934 9.19255 10.2823C9.19616 10.2712 9.19615 10.2592 9.19254 10.2481L8.93877 9.46829Z" fill="#91B3FA"/>
<path d="M6.21535 11.4996C6.07224 11.6593 5.87183 11.7581 5.65627 11.7752C5.44072 11.7924 5.22681 11.7265 5.05952 11.5916C4.89224 11.4566 4.78462 11.2631 4.7593 11.0516C4.73397 10.8401 4.79292 10.6272 4.92373 10.4577C5.05455 10.2881 5.24704 10.1751 5.46074 10.1424C5.67443 10.1097 5.89267 10.1599 6.06957 10.2824C6.24647 10.4048 6.36825 10.5901 6.40928 10.7992C6.45032 11.0082 6.40742 11.2248 6.28961 11.4034C6.26728 11.4372 6.24246 11.4694 6.21535 11.4996ZM4.94864 10.9949C4.95795 11.1406 5.01828 11.2787 5.11936 11.3855C5.22044 11.4923 5.35602 11.5613 5.50298 11.5808C5.64994 11.6002 5.79921 11.5689 5.92534 11.4921C6.05147 11.4153 6.14666 11.2979 6.19469 11.1597C6.24272 11.0216 6.24063 10.8713 6.18876 10.7346C6.1369 10.5978 6.03846 10.4829 5.91024 10.4096C5.78202 10.3363 5.63194 10.309 5.48557 10.3324C5.33921 10.3558 5.20561 10.4284 5.10754 10.5379C5.08656 10.5614 5.06734 10.5863 5.05005 10.6125C4.97522 10.7259 4.93965 10.86 4.94864 10.9949Z" fill="#BDD0FB"/>
<path d="M7.2927 12.0653C7.33109 12.0071 7.36647 11.9471 7.39871 11.8854C7.40894 11.8659 7.41884 11.8462 7.42842 11.8263C7.47555 11.7285 7.51471 11.6272 7.5455 11.5233C7.54592 11.5219 7.54634 11.5205 7.54676 11.5191C7.54793 11.5151 7.5491 11.5111 7.55022 11.5071C7.55248 11.4993 7.55464 11.4914 7.5568 11.4836C7.55847 11.4775 7.55891 11.4712 7.55809 11.4649C7.55727 11.4586 7.55521 11.4526 7.55202 11.4471C7.54882 11.4417 7.54457 11.4369 7.53949 11.433C7.53441 11.4292 7.52861 11.4263 7.52242 11.4247C7.51624 11.4231 7.50978 11.4226 7.50342 11.4235C7.49707 11.4243 7.49094 11.4263 7.48539 11.4295C7.47984 11.4326 7.47498 11.4368 7.47107 11.4418C7.46717 11.4468 7.46431 11.4526 7.46266 11.4586C7.35846 11.8395 7.13829 12.1797 6.83177 12.4336C6.52525 12.6875 6.1471 12.8428 5.74821 12.8787C5.37793 12.9126 5.00552 12.8414 4.67508 12.6734C4.6153 12.6431 4.55713 12.6099 4.50077 12.5738C4.2554 12.416 4.04914 12.206 3.89719 11.9593C3.74524 11.7125 3.65148 11.4353 3.62283 11.1481C3.59418 10.8609 3.63136 10.5711 3.73164 10.2999C3.83192 10.0288 3.99274 9.78325 4.20224 9.58145C4.41173 9.37965 4.66456 9.22673 4.94208 9.13397C5.21959 9.0412 5.51472 9.01095 5.80569 9.04546C6.09666 9.07996 6.37605 9.17834 6.62326 9.33333C6.87047 9.48833 7.0792 9.69598 7.23404 9.94099C7.23741 9.94635 7.24183 9.951 7.24703 9.95469C7.25223 9.95837 7.25812 9.961 7.26436 9.96244C7.2706 9.96388 7.27706 9.9641 7.28338 9.96307C7.28971 9.96205 7.29576 9.95981 7.3012 9.95648C7.30665 9.95316 7.31137 9.9488 7.3151 9.94368C7.31883 9.93855 7.3215 9.93275 7.32296 9.92661C7.32441 9.92046 7.32463 9.9141 7.32358 9.90787C7.32253 9.90165 7.32025 9.89569 7.31687 9.89034C7.12047 9.57962 6.84222 9.32712 6.51171 9.15969C5.5039 8.64896 4.26195 9.0411 3.74343 10.0331C3.51076 10.4783 3.45395 10.9927 3.58398 11.4768C3.71401 11.961 4.02166 12.3804 4.44747 12.6543C4.50664 12.6921 4.5677 12.727 4.63043 12.7588C5.0827 12.9879 5.60519 13.0439 6.09691 12.9158C6.58863 12.7877 7.01468 12.4847 7.2927 12.0653Z" fill="#BDD0FB"/>
<g opacity="0.3">
<path d="M13.6751 5.69831C13.6839 5.68488 13.6881 5.66899 13.6871 5.65301C13.686 5.63703 13.6796 5.62183 13.669 5.60968C13.6274 5.56192 13.5838 5.51474 13.5393 5.46948C13.5324 5.46249 13.5242 5.45689 13.5152 5.45302C13.5061 5.44915 13.4963 5.44707 13.4865 5.44692C13.4766 5.44676 13.4668 5.44851 13.4576 5.45209C13.4484 5.45567 13.44 5.46099 13.4329 5.46776C13.4258 5.47453 13.4201 5.48261 13.4162 5.49154C13.4122 5.50047 13.4101 5.51008 13.41 5.51981C13.4098 5.52954 13.4116 5.53921 13.4152 5.54826C13.4188 5.55732 13.4243 5.56558 13.4311 5.57257C13.4735 5.6157 13.5151 5.66066 13.5548 5.70623C13.5678 5.72114 13.5863 5.73036 13.6062 5.73186C13.6261 5.73336 13.6458 5.72702 13.661 5.71424C13.6664 5.70961 13.6712 5.70425 13.6751 5.69831Z" fill="#91B3FA"/>
<path d="M13.2548 5.30762C13.2422 5.32292 13.2241 5.3327 13.2042 5.33481C13.1844 5.33691 13.1645 5.33116 13.1489 5.31883C13.0668 5.2538 12.9815 5.1929 12.8931 5.13635C12.8746 5.12448 12.8558 5.11277 12.8369 5.10122C12.8199 5.09085 12.8079 5.07427 12.8033 5.05513C12.7988 5.036 12.8021 5.01586 12.8126 4.99916C12.8236 4.98296 12.8404 4.97148 12.8597 4.96705C12.8789 4.96261 12.8992 4.96554 12.9163 4.97526C12.9361 4.98737 12.9558 4.99963 12.9752 5.01204C13.0678 5.07133 13.1573 5.1352 13.2433 5.2034C13.2578 5.2149 13.2675 5.23129 13.2705 5.2494C13.2734 5.26751 13.2694 5.28605 13.2593 5.30144C13.2579 5.30353 13.2564 5.30558 13.2548 5.30762ZM12.5004 4.92262C12.3846 4.8699 12.2657 4.82421 12.1443 4.78582C12.1253 4.77981 12.1095 4.76662 12.1003 4.74914C12.0912 4.73166 12.0895 4.71132 12.0956 4.6926C12.1017 4.67389 12.1151 4.65832 12.1329 4.64933C12.1506 4.64034 12.1713 4.63866 12.1903 4.64467C12.3176 4.6849 12.4422 4.73279 12.5636 4.78807C12.5817 4.79634 12.5957 4.81135 12.6026 4.82981C12.6095 4.84826 12.6087 4.86866 12.6003 4.88651C12.5988 4.88973 12.597 4.89284 12.595 4.89582C12.5851 4.91074 12.5701 4.92166 12.5528 4.92658C12.5354 4.9315 12.5168 4.93009 12.5004 4.92262ZM11.7736 4.69343C11.6483 4.67026 11.5216 4.65474 11.3942 4.64698C11.3743 4.64577 11.3557 4.63681 11.3425 4.62208C11.3293 4.60735 11.3225 4.58804 11.3238 4.56842C11.325 4.5488 11.3341 4.53046 11.349 4.51744C11.364 4.50443 11.3836 4.4978 11.4035 4.49901C11.5371 4.50716 11.6699 4.52342 11.8014 4.54771C11.821 4.55136 11.8384 4.56252 11.8496 4.57874C11.8609 4.59497 11.8651 4.61493 11.8615 4.63424C11.8578 4.65355 11.8465 4.67063 11.83 4.68173C11.8135 4.69283 11.7933 4.69704 11.7736 4.69343ZM11.0119 4.64706C10.8847 4.65484 10.758 4.67032 10.6327 4.69343C10.613 4.69703 10.5928 4.69282 10.5763 4.68172C10.5599 4.67062 10.5485 4.65354 10.5449 4.63424C10.5412 4.61493 10.5454 4.59497 10.5567 4.57875C10.5679 4.56253 10.5853 4.55136 10.6049 4.54771C10.7363 4.5235 10.8692 4.50726 11.0026 4.49909C11.0226 4.49789 11.0421 4.50453 11.0571 4.51754C11.072 4.53056 11.0811 4.54889 11.0824 4.5685C11.0836 4.58811 11.0769 4.6074 11.0637 4.62213C11.0505 4.63686 11.0319 4.64583 11.0119 4.64706ZM10.2618 4.78519C10.1403 4.82324 10.0212 4.86854 9.90532 4.92086C9.89633 4.92493 9.88661 4.92721 9.87673 4.92759C9.86684 4.92796 9.85698 4.92641 9.8477 4.92302C9.83842 4.91964 9.82991 4.91448 9.82266 4.90786C9.81541 4.90123 9.80955 4.89326 9.80543 4.88441C9.80131 4.87555 9.799 4.86598 9.79863 4.85625C9.79827 4.84651 9.79986 4.8368 9.80331 4.82767C9.80676 4.81854 9.81201 4.81017 9.81874 4.80304C9.82548 4.7959 9.83358 4.79015 9.84258 4.7861C9.96408 4.73127 10.0889 4.68377 10.2162 4.64387C10.2353 4.63791 10.2559 4.63965 10.2736 4.64869C10.2914 4.65773 10.3047 4.67334 10.3108 4.69208C10.3168 4.71082 10.3151 4.73116 10.3059 4.74862C10.2967 4.76608 10.2809 4.77924 10.2618 4.78519ZM9.5685 5.09843C9.46011 5.16437 9.35598 5.23684 9.25668 5.31544C9.24112 5.32775 9.22123 5.33346 9.20139 5.33133C9.18155 5.32921 9.16338 5.31941 9.15088 5.30409C9.13837 5.28878 9.13255 5.2692 9.13469 5.24966C9.13684 5.23013 9.14678 5.21223 9.16232 5.1999C9.26647 5.11746 9.37571 5.04144 9.48939 4.97228C9.50638 4.96195 9.52684 4.95869 9.54627 4.96322C9.56571 4.96774 9.58252 4.97968 9.59301 4.99641C9.6035 5.01314 9.60681 5.03329 9.60221 5.05242C9.59762 5.07155 9.58549 5.0881 9.5685 5.09843ZM8.97428 5.56892C8.88558 5.65912 8.80263 5.75464 8.7259 5.85492C8.71386 5.8706 8.696 5.88093 8.67623 5.88364C8.65647 5.88636 8.63642 5.88124 8.62048 5.86941C8.60455 5.85758 8.59403 5.84 8.59125 5.82054C8.58846 5.80108 8.59364 5.78133 8.60563 5.76563C8.68614 5.66052 8.77313 5.56039 8.86612 5.46579C8.88001 5.45167 8.89903 5.44355 8.91899 5.44324C8.93895 5.44292 8.95823 5.45043 8.97257 5.46411C8.98691 5.47778 8.99515 5.49651 8.99547 5.51617C8.99579 5.53582 8.98817 5.5548 8.97428 5.56892ZM8.24606 6.54531C8.23696 6.54152 8.2287 6.536 8.22177 6.52907C8.21483 6.52213 8.20935 6.51392 8.20564 6.5049C8.20193 6.49588 8.20006 6.48622 8.20014 6.47649C8.20022 6.46676 8.20224 6.45714 8.2061 6.44818C8.25142 6.3429 8.3024 6.24007 8.35882 6.14012C8.36731 6.12487 8.376 6.10985 8.38477 6.09483C8.39479 6.07784 8.41125 6.06546 8.43053 6.0604C8.44981 6.05535 8.47034 6.05804 8.48761 6.06788C8.50488 6.07772 8.51748 6.0939 8.52264 6.11288C8.5278 6.13185 8.5251 6.15207 8.51513 6.16909C8.50684 6.18313 8.49872 6.1973 8.49061 6.21184C8.43671 6.30726 8.38801 6.40544 8.34472 6.50597C8.34299 6.50999 8.34091 6.51386 8.33849 6.51752C8.32884 6.5321 8.3143 6.54287 8.2974 6.54795C8.28051 6.55303 8.26233 6.5521 8.24606 6.54531Z" fill="#91B3FA"/>
</g>
<g opacity="0.3">
<path d="M13.9023 9.47651C13.8292 9.58412 13.7496 9.68729 13.6639 9.78549C13.6509 9.80039 13.6324 9.80959 13.6125 9.81107C13.5926 9.81254 13.5729 9.80616 13.5578 9.79334C13.5426 9.78052 13.5333 9.7623 13.5318 9.74269C13.5303 9.72308 13.5368 9.70369 13.5498 9.68879C13.6315 9.59515 13.7075 9.49674 13.7772 9.39409C13.7882 9.37782 13.8053 9.36652 13.8248 9.36264C13.8443 9.35876 13.8646 9.36263 13.8812 9.3734C13.8978 9.38417 13.9094 9.40097 13.9134 9.42012C13.9175 9.43928 13.9137 9.45924 13.9029 9.47566L13.9023 9.47651ZM14.0002 9.17391C13.9913 9.16951 13.9835 9.16344 13.9771 9.15605C13.9706 9.14867 13.9657 9.1401 13.9627 9.13085C13.9596 9.1216 13.9584 9.11185 13.9592 9.10215C13.9599 9.09245 13.9626 9.08299 13.9671 9.07431C14.0238 8.96408 14.0738 8.85061 14.1167 8.73451C14.1236 8.71603 14.1376 8.70099 14.1557 8.69268C14.1738 8.68437 14.1945 8.68349 14.2133 8.69022C14.232 8.69695 14.2473 8.71074 14.2557 8.72856C14.2642 8.74638 14.2651 8.76678 14.2582 8.78525C14.2132 8.90692 14.1608 9.02583 14.1014 9.14132C14.1001 9.14372 14.0988 9.14605 14.0973 9.1483C14.0871 9.16361 14.0716 9.17469 14.0537 9.17942C14.0358 9.18414 14.0167 9.18218 14.0002 9.17391ZM13.389 10.0638C13.2916 10.1509 13.189 10.2321 13.0817 10.307C13.0654 10.3184 13.0452 10.3229 13.0255 10.3196C13.0058 10.3163 12.9883 10.3054 12.9767 10.2894C12.9652 10.2733 12.9606 10.2534 12.964 10.234C12.9673 10.2147 12.9783 10.1974 12.9946 10.186C13.097 10.1146 13.1949 10.0371 13.2878 9.95412C13.2951 9.94757 13.3037 9.9425 13.313 9.9392C13.3223 9.93591 13.3321 9.93445 13.342 9.93492C13.3519 9.93538 13.3616 9.93776 13.3705 9.94191C13.3795 9.94606 13.3875 9.95191 13.3942 9.95912C13.4008 9.96633 13.4059 9.97476 13.4093 9.98392C13.4126 9.99309 13.4141 10.0028 13.4136 10.0125C13.4131 10.0223 13.4107 10.0318 13.4065 10.0406C13.4022 10.0494 13.3963 10.0573 13.389 10.0638ZM14.2799 8.4684C14.2605 8.46399 14.2436 8.45214 14.233 8.43548C14.2224 8.41881 14.219 8.39869 14.2234 8.37953C14.2516 8.25914 14.2723 8.13718 14.2854 8.01432C14.2864 8.00463 14.2893 7.99523 14.294 7.98667C14.2987 7.9781 14.3051 7.97053 14.3128 7.9644C14.3205 7.95826 14.3293 7.95367 14.3388 7.9509C14.3483 7.94813 14.3582 7.94722 14.3681 7.94824C14.3779 7.94925 14.3875 7.95216 14.3961 7.95681C14.4048 7.96146 14.4125 7.96775 14.4187 7.97532C14.425 7.98289 14.4296 7.99159 14.4324 8.00093C14.4352 8.01027 14.4361 8.02006 14.4351 8.02975C14.4214 8.15862 14.3997 8.28655 14.3702 8.41281C14.3657 8.43197 14.3537 8.44858 14.3367 8.45901C14.3198 8.46943 14.2994 8.47281 14.2799 8.4684ZM12.7469 10.5114C12.6311 10.5729 12.5117 10.6274 12.3893 10.6746C12.3707 10.6818 12.35 10.6814 12.3317 10.6735C12.3135 10.6656 12.2991 10.6509 12.2918 10.6326C12.2845 10.6143 12.2849 10.594 12.2929 10.5759C12.3009 10.5579 12.3158 10.5438 12.3344 10.5366C12.4511 10.4915 12.565 10.4396 12.6754 10.3809C12.693 10.3716 12.7136 10.3695 12.7327 10.3751C12.7519 10.3808 12.768 10.3937 12.7774 10.411C12.7869 10.4283 12.789 10.4486 12.7833 10.4674C12.7776 10.4863 12.7645 10.5021 12.7469 10.5114ZM12.0144 10.7944C11.8871 10.8267 11.7579 10.8515 11.6275 10.8687C11.6077 10.8712 11.5877 10.866 11.5718 10.854C11.556 10.8421 11.5456 10.8244 11.543 10.8049C11.5403 10.7855 11.5457 10.7658 11.5578 10.7501C11.5699 10.7345 11.5879 10.7243 11.6077 10.7217C11.732 10.7054 11.8553 10.6817 11.9768 10.6508C11.9961 10.6459 12.0166 10.6487 12.0338 10.6587C12.051 10.6687 12.0635 10.685 12.0685 10.704C12.0735 10.7231 12.0706 10.7433 12.0605 10.7602C12.0503 10.7772 12.0338 10.7894 12.0144 10.7944ZM11.2342 10.8965C11.1026 10.8979 10.971 10.8914 10.8403 10.8772C10.8204 10.875 10.8023 10.8651 10.7898 10.8498C10.7773 10.8344 10.7715 10.8148 10.7737 10.7953C10.7759 10.7758 10.7859 10.7579 10.8015 10.7456C10.8171 10.7333 10.837 10.7276 10.8569 10.7298C10.9815 10.7434 11.107 10.7496 11.2324 10.7482C11.2423 10.7481 11.2521 10.7499 11.2613 10.7535C11.2705 10.7571 11.2788 10.7625 11.2859 10.7693C11.293 10.7761 11.2986 10.7842 11.3025 10.7932C11.3064 10.8021 11.3084 10.8117 11.3085 10.8215C11.3088 10.8361 11.3046 10.8504 11.2965 10.8626C11.2897 10.8729 11.2805 10.8813 11.2696 10.8872C11.2587 10.8931 11.2466 10.8963 11.2342 10.8965Z" fill="#91B3FA"/>
<path d="M14.4401 7.68C14.4483 7.6676 14.4525 7.65306 14.4522 7.63827C14.451 7.57484 14.4479 7.51117 14.443 7.44898C14.4422 7.43928 14.4395 7.42981 14.435 7.42113C14.4305 7.41245 14.4244 7.40473 14.4169 7.3984C14.4093 7.39207 14.4006 7.38726 14.3912 7.38424C14.3818 7.38122 14.3719 7.38006 14.3621 7.38081C14.3522 7.38157 14.3426 7.38423 14.3338 7.38864C14.325 7.39305 14.3171 7.39913 14.3107 7.40652C14.3043 7.41392 14.2994 7.42249 14.2963 7.43175C14.2932 7.44101 14.2921 7.45077 14.2928 7.46048C14.2975 7.51977 14.3005 7.58053 14.3017 7.64106C14.302 7.65693 14.3074 7.67228 14.3172 7.68486C14.3271 7.69744 14.3407 7.70658 14.3562 7.71094C14.3717 7.7153 14.3882 7.71464 14.4033 7.70907C14.4184 7.7035 14.4313 7.69331 14.4401 7.68Z" fill="#91B3FA"/>
</g>
<path d="M13.4207 6.68809C13.4183 6.68065 13.4136 6.67414 13.4072 6.66947C13.4009 6.66479 13.3932 6.66219 13.3853 6.66202L12.9214 6.65198C12.8085 6.4664 12.6656 6.3002 12.4984 6.1599L12.5646 5.70805C12.5657 5.70032 12.5644 5.69243 12.5607 5.68549C12.5571 5.67855 12.5513 5.6729 12.5443 5.66932L12.0495 5.41858C12.0424 5.415 12.0344 5.41368 12.0266 5.4148C12.0187 5.41592 12.0114 5.41942 12.0057 5.42483L11.6707 5.74047C11.4576 5.688 11.2372 5.6701 11.0182 5.68749L10.7403 5.32167C10.7355 5.31542 10.7289 5.31078 10.7214 5.3084C10.7138 5.30602 10.7057 5.30603 10.6981 5.30841L10.1682 5.47561C10.1606 5.47799 10.154 5.48264 10.1493 5.4889C10.1445 5.49516 10.1419 5.50272 10.1417 5.51053L10.1315 5.96723C9.94304 6.0784 9.77423 6.2191 9.63175 6.38377L9.17285 6.3186C9.165 6.31748 9.15699 6.3188 9.14994 6.32238C9.14289 6.32596 9.13715 6.33162 9.13352 6.33857L8.87885 6.82578C8.87522 6.83272 8.87388 6.84061 8.87502 6.84834C8.87616 6.85607 8.87972 6.86326 8.88521 6.8689L9.20578 7.19873C9.15249 7.4086 9.13431 7.62563 9.15198 7.84126L8.78044 8.11485C8.77408 8.11953 8.76937 8.12604 8.76696 8.13348C8.76455 8.14092 8.76455 8.14892 8.76697 8.15635L8.93678 8.67818C8.93921 8.68561 8.94392 8.69212 8.95028 8.69679C8.95663 8.70146 8.96431 8.70406 8.97223 8.70424L9.43608 8.71428C9.54899 8.89986 9.69187 9.06607 9.85912 9.20636L9.79293 9.65821C9.79179 9.66594 9.79313 9.67382 9.79677 9.68077C9.80041 9.68771 9.80615 9.69336 9.81321 9.69693L10.308 9.94769C10.3151 9.95126 10.3231 9.95258 10.3309 9.95145C10.3388 9.95033 10.3461 9.94683 10.3518 9.94143L10.6868 9.62578C10.8999 9.67825 11.1204 9.69615 11.3393 9.67876L11.6172 10.0446C11.622 10.0508 11.6286 10.0555 11.6361 10.0579C11.6437 10.0602 11.6518 10.0602 11.6594 10.0578L12.1893 9.89065C12.1969 9.88826 12.2035 9.88362 12.2082 9.87736C12.213 9.8711 12.2156 9.86354 12.2158 9.85573L12.226 9.39902C12.4145 9.28785 12.5833 9.14716 12.7258 8.98248L13.1847 9.04766C13.1925 9.04877 13.2005 9.04745 13.2076 9.04387C13.2146 9.04029 13.2204 9.03463 13.224 9.02769L13.4786 8.54048C13.4823 8.53353 13.4836 8.52564 13.4825 8.51791C13.4813 8.51018 13.4778 8.503 13.4723 8.49735L13.1517 8.16753C13.205 7.95766 13.2232 7.74063 13.2055 7.525L13.5771 7.25141C13.5834 7.24673 13.5881 7.24022 13.5905 7.23278C13.593 7.22534 13.593 7.21734 13.5905 7.2099L13.4207 6.68809Z" fill="#91B3FA"/>
<path d="M11.6059 8.05388C11.5086 8.16223 11.3725 8.22923 11.2261 8.24081C11.0797 8.25238 10.9344 8.20763 10.8208 8.11595C10.7072 8.02426 10.6342 7.8928 10.617 7.74918C10.5998 7.60556 10.6398 7.46096 10.7286 7.34579C10.8175 7.23062 10.9482 7.15383 11.0933 7.13157C11.2384 7.10931 11.3866 7.14331 11.5068 7.22642C11.627 7.30953 11.7098 7.43528 11.7378 7.57725C11.7658 7.71921 11.7368 7.86633 11.6569 7.98769C11.6416 8.01094 11.6245 8.03306 11.6059 8.05388ZM10.9017 7.99247C10.943 8.0283 10.991 8.05577 11.043 8.07333C11.0951 8.09088 11.1501 8.09816 11.205 8.09476C11.2599 8.09137 11.3136 8.07735 11.363 8.05352C11.4124 8.02969 11.4566 7.99652 11.4929 7.95588C11.5663 7.87382 11.6036 7.76642 11.5966 7.65729C11.5896 7.54817 11.5389 7.44624 11.4556 7.37392C11.3723 7.3016 11.2633 7.26482 11.1524 7.27164C11.0416 7.27847 10.9381 7.32836 10.8646 7.41033C10.851 7.42551 10.8386 7.44163 10.8274 7.45858C10.7728 7.5416 10.7503 7.64114 10.764 7.7391C10.7776 7.83707 10.8265 7.92697 10.9017 7.99247Z" fill="#BDD0FB"/>
<path d="M12.3557 8.44752C12.3817 8.40819 12.4058 8.36726 12.4281 8.32471C12.4723 8.24019 12.5077 8.15146 12.5337 8.05989C12.5349 8.05578 12.536 8.05167 12.5371 8.04756C12.5397 8.03815 12.5404 8.02833 12.5392 8.01865C12.5379 8.00898 12.5347 7.99964 12.5298 7.99118C12.5249 7.98272 12.5183 7.97531 12.5104 7.96935C12.5026 7.9634 12.4936 7.95903 12.4841 7.9565C12.4745 7.95396 12.4645 7.95331 12.4547 7.95458C12.4449 7.95585 12.4354 7.95901 12.4268 7.96389C12.4183 7.96877 12.4108 7.97527 12.4047 7.98301C12.3987 7.99076 12.3943 7.9996 12.3918 8.00902C12.3683 8.09479 12.3356 8.17785 12.2943 8.2568L12.2942 8.25684C12.292 8.26118 12.2896 8.26551 12.2874 8.26978C12.1896 8.45302 12.0468 8.60916 11.8718 8.72388C11.7767 8.78618 11.6734 8.8356 11.5649 8.8708L11.5622 8.87168C11.5595 8.87254 11.5568 8.87345 11.554 8.87428C11.3956 8.92474 11.2285 8.94375 11.0626 8.93022C10.8966 8.91668 10.735 8.87088 10.5872 8.79545C10.5485 8.77587 10.5108 8.75437 10.4743 8.73102C10.3155 8.62887 10.1819 8.49291 10.0836 8.33317C9.98519 8.17342 9.92449 7.99398 9.90593 7.80805C9.88738 7.62213 9.91144 7.43448 9.97636 7.25894C10.0413 7.0834 10.1454 6.92444 10.281 6.7938C10.4166 6.66315 10.5803 6.56415 10.76 6.50409C10.9396 6.44403 11.1307 6.42445 11.3191 6.44678C11.5074 6.46912 11.6883 6.53281 11.8483 6.63315C12.0084 6.73349 12.1435 6.86792 12.2438 7.02654C12.2543 7.04323 12.2711 7.05513 12.2906 7.05961C12.31 7.06409 12.3304 7.06079 12.3474 7.05043C12.3644 7.04005 12.3764 7.02347 12.381 7.00432C12.3855 6.98517 12.3822 6.96503 12.3717 6.94832C12.2595 6.77084 12.1084 6.62041 11.9293 6.50813C11.7503 6.39584 11.5479 6.32456 11.3371 6.29955C11.1264 6.27454 10.9126 6.29644 10.7116 6.36363C10.5106 6.43081 10.3274 6.54157 10.1757 6.68774C10.0239 6.83391 9.90745 7.01176 9.83482 7.20816C9.76219 7.40457 9.73527 7.61453 9.75603 7.82254C9.7768 8.03056 9.84473 8.23134 9.95481 8.41006C10.0649 8.58878 10.2143 8.74089 10.3921 8.85517C10.4329 8.88127 10.475 8.90534 10.5182 8.92727C10.8306 9.08506 11.1912 9.12336 11.5305 9.03476C11.8699 8.94617 12.1638 8.73697 12.3557 8.44752Z" fill="#BDD0FB"/>
<path d="M28.9214 13.4794L26.7322 15.6843L29.3582 14.9936L28.9214 13.4794Z" fill="#91B3FA"/>
<path d="M41.9475 14.392L29.5083 14.9864C29.4326 14.9901 29.357 14.9785 29.2859 14.9525C29.2149 14.9264 29.15 14.8865 29.0951 14.835C29.0402 14.7835 28.9965 14.7216 28.9666 14.653C28.9368 14.5844 28.9214 14.5105 28.9214 14.4359V9.39703C28.9214 9.13359 29.0255 8.88049 29.2118 8.69136C29.398 8.50222 29.6517 8.39189 29.9191 8.38374L41.13 8.04216C41.3285 8.04216 41.5251 8.08066 41.7085 8.15546C41.8919 8.23026 42.0585 8.3399 42.1989 8.47811C42.3393 8.61632 42.4506 8.7804 42.5266 8.96099C42.6026 9.14157 42.6417 9.33512 42.6417 9.53058V13.6745C42.6417 13.859 42.5696 14.0364 42.4403 14.17C42.3111 14.3036 42.1346 14.3831 41.9475 14.392Z" fill="#91B3FA"/>
<path opacity="0.85" d="M29.8804 14.7841C29.6766 14.7838 29.4812 14.7038 29.3373 14.5618C29.1933 14.4198 29.1124 14.2274 29.1124 14.0267V9.48527C29.1124 8.95006 29.5482 8.51786 30.1046 8.50132L40.9593 8.17858C41.782 8.17858 42.4506 8.82137 42.4506 9.61144V13.5269C42.4506 13.9036 42.1441 14.2131 41.7528 14.2313L29.9179 14.7832C29.9054 14.7838 29.8929 14.7841 29.8804 14.7841ZM40.9601 8.23168L30.1062 8.55443C29.5792 8.57009 29.1664 8.97897 29.1664 9.48527V14.0267C29.1664 14.122 29.186 14.2163 29.2241 14.3039C29.2622 14.3915 29.3179 14.4706 29.3879 14.5363C29.458 14.6021 29.5408 14.6532 29.6315 14.6865C29.7221 14.7198 29.8187 14.7347 29.9154 14.7302L41.7503 14.1782C42.1128 14.1614 42.3967 13.8753 42.3967 13.5269V9.61144C42.3967 8.85064 41.7523 8.23168 40.9601 8.23168Z" fill="white"/>
<path d="M40.9238 9.15035L30.9773 9.5169C30.8796 9.5205 30.8027 9.58424 30.8059 9.65892L30.8097 9.74501C30.8129 9.8189 30.8934 9.87569 30.9901 9.87222L40.937 9.51458C41.0348 9.51106 41.1118 9.44729 41.1085 9.37255L41.1044 9.27756C41.1012 9.2036 41.0205 9.14679 40.9238 9.15035Z" fill="url(#paint5_linear_18_82)"/>
<path d="M40.0337 11.6298L30.0871 11.9945C29.9894 11.998 29.9126 12.0639 29.916 12.1413L29.9198 12.2305C29.9232 12.307 30.0038 12.366 30.1004 12.3625L40.0475 12.007C40.1452 12.0035 40.2221 11.9376 40.2188 11.8602L40.2145 11.7618C40.2112 11.6852 40.1304 11.6262 40.0337 11.6298Z" fill="url(#paint6_linear_18_82)"/>
<path d="M41.1957 12.667L30.1074 13.0792C29.9985 13.0832 29.9126 13.1502 29.916 13.2283L29.9199 13.3183C29.9233 13.3956 30.0129 13.4548 30.1206 13.4509L41.2093 13.048C41.3183 13.044 41.4044 12.9771 41.401 12.8989L41.3967 12.7995C41.3933 12.7222 41.3036 12.663 41.1957 12.667Z" fill="url(#paint7_linear_18_82)"/>
<path d="M35.4704 10.6122L30.0491 10.7678C29.9959 10.7693 29.9561 10.8412 29.9604 10.9281L29.9654 11.0281C29.9697 11.1141 30.0157 11.1822 30.0684 11.1808L35.4902 11.0355C35.5435 11.0341 35.5833 10.9621 35.579 10.8752L35.5734 10.7648C35.5691 10.6788 35.5231 10.6106 35.4704 10.6122Z" fill="url(#paint8_linear_18_82)"/>
<path d="M41.4439 10.4277L36.3197 10.5723C36.2694 10.5737 36.232 10.6456 36.2364 10.7324L36.2414 10.8325C36.2458 10.9184 36.2894 10.9866 36.3392 10.9853L41.4639 10.851C41.5143 10.8497 41.5518 10.7778 41.5474 10.6909L41.5418 10.5805C41.5375 10.4945 41.4937 10.4262 41.4439 10.4277Z" fill="url(#paint9_linear_18_82)"/>
<path d="M10.0339 42.1842C10.0339 42.1842 9.93133 42.7557 9.88107 43.3215C9.87657 43.374 9.8829 43.4268 9.8997 43.4768C9.91649 43.5268 9.9434 43.5729 9.97879 43.6123C10.0142 43.6518 10.0573 43.6838 10.1056 43.7064C10.1539 43.729 10.2064 43.7417 10.2598 43.7438C11.0249 43.7752 12.6617 43.8362 13.249 43.8104C13.2695 43.8094 13.2895 43.8037 13.3072 43.7936C13.325 43.7834 13.3401 43.7693 13.3511 43.7523C13.3622 43.7353 13.369 43.716 13.371 43.6958C13.3729 43.6757 13.37 43.6555 13.3624 43.6367C13.335 43.5689 13.2822 43.5142 13.2149 43.4837L10.5113 42.2602L10.0339 42.1842Z" fill="url(#paint10_linear_18_82)"/>
<path d="M9.94987 41.8484L10.0323 42.532C10.0323 42.532 10.5059 42.7491 10.8293 42.5047L10.6332 41.7428L9.94987 41.8484Z" fill="url(#paint11_linear_18_82)"/>
<path d="M10.0118 28.996C9.9762 29.1745 9.82079 37.9048 10.7686 41.8172C10.7763 41.848 10.7726 41.8805 10.7581 41.9088C10.7435 41.9372 10.7192 41.9594 10.6895 41.9716C10.4428 42.0655 10.1819 42.1178 9.91757 42.1261C9.86612 42.1277 9.81557 42.1125 9.77386 42.0828C9.73215 42.0531 9.70165 42.0106 9.68714 41.9619C9.41622 41.0542 8.11804 36.5062 7.94868 32.1617C7.75945 27.3071 7.94868 31.9964 7.94868 31.9964L8.05967 28.9956L10.0118 28.996Z" fill="url(#paint12_linear_18_82)"/>
<path d="M6.92382 42.4824C6.92382 42.4824 6.76061 42.7709 6.60259 43.5376C6.59574 43.5702 6.59593 43.6039 6.60314 43.6365C6.61036 43.669 6.62444 43.6997 6.64448 43.7266C6.66452 43.7534 6.69006 43.7758 6.71946 43.7924C6.74886 43.8089 6.78145 43.8191 6.81513 43.8224C7.06779 43.8469 7.45675 43.8783 7.76831 43.8762C7.80222 43.8761 7.83572 43.869 7.86663 43.8552C7.89753 43.8415 7.92514 43.8215 7.94765 43.7965C7.97015 43.7715 7.98705 43.7422 7.99723 43.7103C8.00741 43.6785 8.01065 43.6449 8.00673 43.6117C7.97222 43.3319 7.8647 42.8727 7.53256 42.5149L6.92382 42.4824Z" fill="url(#paint13_linear_18_82)"/>
<path d="M6.78047 41.6031L6.97296 42.6369C6.97296 42.6369 7.16328 42.7763 7.53977 42.6753L7.4479 41.5629L6.78047 41.6031Z" fill="url(#paint14_linear_18_82)"/>
<path d="M6.26048 29.2639C5.48533 33.8701 6.42862 40.6485 6.74676 41.9751C6.75615 42.0149 6.77727 42.051 6.80746 42.079C6.83765 42.1069 6.87556 42.1255 6.91642 42.1323C7.05843 42.1554 7.29222 42.1743 7.52271 42.1084C7.56147 42.0973 7.59568 42.0744 7.62052 42.0431C7.64536 42.0118 7.65958 41.9735 7.66116 41.9338C7.70384 40.8612 7.62702 34.2765 8.34928 31.6742C8.38588 31.5425 8.4677 31.4272 8.58085 31.3481L9.98271 30.3668L10.0902 28.7807L6.26048 29.2639Z" fill="url(#paint15_linear_18_82)"/>
<path d="M11.1998 20.536C8.87677 20.4982 6.31364 21.1366 6.31364 21.1366C5.6212 25.1148 6.19256 29.7034 6.19256 29.7034C7.99094 30.1678 10.0196 29.4195 10.0196 29.4195C10.3185 27.7567 11.7131 23.077 11.7131 23.077C12.8481 22.9383 13.7831 22.6159 14.5531 22.1896C13.9658 21.5193 13.6889 20.6663 13.5687 20.1621C12.7473 20.4134 11.9162 20.5477 11.1998 20.536Z" fill="url(#paint16_linear_18_82)"/>
<path d="M18.0614 17.167C17.8332 16.8956 17.5444 17.024 17.5444 17.024C17.2026 18.4458 15.4101 19.5986 13.5687 20.1621C13.6889 20.6663 13.9658 21.5193 14.5531 22.1896C17.6092 20.4977 18.0614 17.167 18.0614 17.167Z" fill="url(#paint17_linear_18_82)"/>
<path d="M18.006 17.236C18.0299 17.3107 17.7534 17.4245 17.5906 17.1188C17.5849 16.9723 17.4944 16.3447 17.5833 16.2253C18.0569 15.5897 18.9749 14.7929 18.9749 14.7929C19.1301 14.9436 19.0023 15.0917 19.0023 15.0917L18.5569 15.5485C18.65 15.7143 18.7637 15.8542 18.8169 16.0547C18.8559 16.2077 18.8336 16.3696 18.7547 16.5069C18.6765 16.6456 18.5699 16.8259 18.469 16.967C18.2782 17.234 18.006 17.236 18.006 17.236Z" fill="url(#paint18_linear_18_82)"/>
<path d="M18.3621 15.8449L17.9562 16.1837L17.8288 16.521L18.1907 16.9162C18.1907 16.9162 18.3123 16.247 18.4028 16.1022C18.4932 15.9573 18.4463 15.8873 18.3621 15.8449Z" fill="url(#paint19_linear_18_82)"/>
<path d="M7.20464 23.3513L6.31364 21.1366C6.31364 21.1366 4.14385 22.5882 3.78701 24.4287C4.19699 24.4584 4.94303 24.5634 5.67326 24.9265C5.83372 24.0574 7.20464 23.3513 7.20464 23.3513Z" fill="url(#paint20_linear_18_82)"/>
<path d="M9.10079 25.4354C9.10079 25.4354 6.66467 26.791 5.84268 25.6334C5.67201 25.3931 5.63121 25.1542 5.67326 24.9265C4.94303 24.5634 4.19699 24.4584 3.78701 24.4287C3.67942 24.9836 3.73631 25.5737 4.06743 26.1701C5.50727 28.7635 9.42319 26.0268 9.42319 26.0268L9.10079 25.4354Z" fill="url(#paint21_linear_18_82)"/>
<path d="M8.80808 27.1504L10.1376 22.5786C10.1449 22.5533 10.1597 22.5306 10.1801 22.5135C10.2005 22.4964 10.2256 22.4857 10.2521 22.4826C10.493 22.455 11.191 22.3773 11.997 22.3101C12.9677 22.2293 14.0951 22.1638 14.7687 22.2195C14.7908 22.2213 14.8122 22.2283 14.8309 22.24C14.8496 22.2517 14.8651 22.2678 14.8761 22.2868C14.887 22.3058 14.8931 22.3271 14.8937 22.3489C14.8944 22.3708 14.8896 22.3924 14.8798 22.412C14.4967 23.1751 12.9209 26.2793 12.1318 27.2962C12.119 27.3128 12.1024 27.3263 12.0834 27.3355C12.0644 27.3447 12.0434 27.3494 12.0222 27.3492L8.93743 27.3209C8.9165 27.3208 8.8959 27.3158 8.87724 27.3065C8.85858 27.2972 8.84235 27.2837 8.82983 27.2672C8.81731 27.2507 8.80883 27.2316 8.80506 27.2113C8.80129 27.191 8.80232 27.1702 8.80808 27.1504Z" fill="#91B3FA"/>
<path d="M12.1349 21.9138L13.0988 21.7556C13.1106 21.7537 13.1226 21.7548 13.1338 21.7588C13.145 21.7628 13.155 21.7696 13.1627 21.7785C13.1705 21.7874 13.1758 21.7981 13.1781 21.8096C13.1804 21.8212 13.1796 21.8331 13.1759 21.8442L13.0805 22.1289C13.0764 22.141 13.0689 22.1518 13.0589 22.16C13.0489 22.1682 13.0368 22.1734 13.0239 22.1751L12.0963 22.2971C12.0852 22.2985 12.0739 22.2973 12.0634 22.2935C12.0529 22.2897 12.0435 22.2835 12.0359 22.2753C12.0284 22.2672 12.023 22.2573 12.0202 22.2466C12.0174 22.236 12.0173 22.2248 12.0198 22.214L12.0789 21.9655C12.082 21.9524 12.089 21.9405 12.0989 21.9313C12.1089 21.9221 12.1214 21.916 12.1349 21.9138Z" fill="#BDD0FB"/>
<path d="M11.4131 22.7173L11.4925 22.31C11.4964 22.2901 11.5067 22.272 11.5219 22.2583C11.537 22.2447 11.5563 22.2362 11.5767 22.2341L13.5237 22.0396C13.5389 22.0381 13.5542 22.0402 13.5684 22.0457C13.5826 22.0512 13.5953 22.06 13.6054 22.0713C13.6154 22.0826 13.6225 22.0962 13.6262 22.1108C13.6298 22.1254 13.6299 22.1406 13.6263 22.1552L13.5025 22.6627C13.4977 22.6825 13.4865 22.7002 13.4706 22.7132C13.4547 22.7262 13.435 22.7338 13.4144 22.7348L11.5118 22.8291C11.4973 22.8298 11.4829 22.8273 11.4696 22.8217C11.4562 22.8161 11.4444 22.8076 11.4348 22.7968C11.4253 22.7861 11.4184 22.7733 11.4147 22.7595C11.4109 22.7458 11.4104 22.7313 11.4131 22.7173Z" fill="#BDD0FB"/>
<path d="M9.12931 26.0458C9.12931 26.0458 8.94411 25.296 9.0188 25.0299C9.09352 24.7639 9.23827 24.4218 9.72074 24.4979C10.2032 24.5739 10.7724 24.774 10.7724 24.774C10.7724 24.774 10.7436 25.1205 10.3769 25.0087L10.6043 25.182C10.6043 25.182 10.5718 25.4594 10.2621 25.3112L10.4736 25.5409C10.4736 25.5409 10.3405 25.7688 10.1127 25.6227C9.88479 25.4765 9.77555 26.1361 9.12931 26.0458Z" fill="url(#paint22_linear_18_82)"/>
<path d="M8.84677 18.6791L8.10764 20.7838C8.10163 20.8006 8.10185 20.819 8.10827 20.8357C8.11469 20.8524 8.1269 20.8664 8.14274 20.8751C8.34421 20.9848 9.07012 21.3018 9.94488 20.7557C9.99003 20.7279 10.0284 20.6906 10.0573 20.6465C10.0861 20.6025 10.1048 20.5527 10.1119 20.5007L10.3512 18.6791H8.84677Z" fill="url(#paint23_linear_18_82)"/>
<path d="M10.455 16.7301C10.455 16.7301 11.2667 18.2345 11.1626 18.8421C11.0586 19.4498 10.0527 19.4062 9.17429 18.9126L8.56049 17.2883L10.455 16.7301Z" fill="url(#paint24_linear_18_82)"/>
<path d="M9.21312 18.1149C9.22151 18.1113 9.229 18.1059 9.23506 18.0992C9.24113 18.0924 9.24563 18.0845 9.24824 18.0758C9.25086 18.0672 9.25153 18.0581 9.25021 18.0492C9.24889 18.0403 9.24561 18.0317 9.2406 18.0242C9.17557 17.9264 9.05367 17.7268 9.01479 17.5521C9.01479 17.5521 8.86888 17.4601 9.38616 17.3382C9.90344 17.2163 10.6748 17.027 10.837 16.5935C10.9951 16.1708 10.5797 15.1078 9.91704 15.9548C9.91121 15.9624 9.9037 15.9685 9.89508 15.9728C9.88646 15.977 9.87696 15.9793 9.86732 15.9793C9.85768 15.9794 9.84815 15.9773 9.83947 15.9731C9.83079 15.969 9.8232 15.963 9.81726 15.9555C9.70863 15.8163 9.42302 15.5273 9.02651 15.7025C8.65545 15.8664 8.61366 16.1342 8.61876 16.2691C8.61915 16.2784 8.61741 16.2876 8.61366 16.2961C8.60992 16.3046 8.60427 16.3122 8.59714 16.3183C8.59001 16.3244 8.58158 16.3288 8.57248 16.3312C8.56338 16.3336 8.55384 16.3339 8.54458 16.3322C8.35698 16.297 7.90677 16.2667 7.69664 16.7215C7.52355 17.096 7.63606 17.3081 7.7385 17.4117C7.74611 17.4193 7.75159 17.4288 7.75441 17.4391C7.75723 17.4494 7.75729 17.4602 7.75459 17.4706C7.75188 17.4809 7.7465 17.4904 7.73897 17.498C7.73145 17.5057 7.72203 17.5113 7.71163 17.5144C7.58834 17.5515 7.42913 17.6545 7.44506 17.9389C7.4671 18.3321 7.91359 18.2975 8.04071 18.2796C8.05094 18.278 8.06139 18.279 8.07114 18.2824C8.0809 18.2858 8.08965 18.2915 8.09664 18.299C8.20563 18.4178 8.69673 18.9221 9.22825 18.9829C9.23887 18.984 9.24961 18.9824 9.25945 18.9783C9.2693 18.9743 9.27795 18.9678 9.28459 18.9596C9.29123 18.9513 9.29566 18.9416 9.29745 18.9312C9.29925 18.9209 9.29836 18.9102 9.29487 18.9003L9.06484 18.2419C9.05969 18.2271 9.06035 18.211 9.06668 18.1967C9.07301 18.1824 9.08456 18.171 9.09904 18.1647L9.21312 18.1149Z" fill="url(#paint25_linear_18_82)"/>
<path d="M9.30557 18.2084C9.30557 18.2084 8.72768 17.818 8.68545 18.1467C8.64323 18.4755 9.20586 18.623 9.48453 18.5004L9.30557 18.2084Z" fill="url(#paint26_linear_18_82)"/>
</g>
<defs>
<linearGradient id="paint0_linear_18_82" x1="49.7211" y1="56.8467" x2="11.1228" y2="8.16201" gradientUnits="userSpaceOnUse">
<stop stop-color="#DAE3FE"/>
<stop offset="1" stop-color="#E9EFFD"/>
</linearGradient>
<linearGradient id="paint1_linear_18_82" x1="78.0885" y1="-29.8299" x2="-3.03908" y2="40.3993" gradientUnits="userSpaceOnUse">
<stop stop-color="#E1473D"/>
<stop offset="1" stop-color="#E9605A"/>
</linearGradient>
<linearGradient id="paint2_linear_18_82" x1="90.0778" y1="-15.9802" x2="8.95011" y2="54.2492" gradientUnits="userSpaceOnUse">
<stop stop-color="#E1473D"/>
<stop offset="1" stop-color="#E9605A"/>
</linearGradient>
<linearGradient id="paint3_linear_18_82" x1="1.34987" y1="35.839" x2="71.5426" y2="-39.6521" gradientUnits="userSpaceOnUse">
<stop stop-color="#FF928E"/>
<stop offset="1" stop-color="#FE7062"/>
</linearGradient>
<linearGradient id="paint4_linear_18_82" x1="30.368" y1="30.6655" x2="14.464" y2="48.5136" gradientUnits="userSpaceOnUse">
<stop stop-color="#FF928E"/>
<stop offset="1" stop-color="#FE7062"/>
</linearGradient>
<linearGradient id="paint5_linear_18_82" x1="30.8058" y1="9.51128" x2="41.1086" y2="9.51128" gradientUnits="userSpaceOnUse">
<stop stop-color="#DAE3FE"/>
<stop offset="1" stop-color="#E9EFFD"/>
</linearGradient>
<linearGradient id="paint6_linear_18_82" x1="29.9159" y1="11.9961" x2="40.2189" y2="11.9961" gradientUnits="userSpaceOnUse">
<stop stop-color="#DAE3FE"/>
<stop offset="1" stop-color="#E9EFFD"/>
</linearGradient>
<linearGradient id="paint7_linear_18_82" x1="29.9159" y1="13.0589" x2="41.4011" y2="13.0589" gradientUnits="userSpaceOnUse">
<stop stop-color="#DAE3FE"/>
<stop offset="1" stop-color="#E9EFFD"/>
</linearGradient>
<linearGradient id="paint8_linear_18_82" x1="29.9601" y1="10.8965" x2="35.5793" y2="10.8965" gradientUnits="userSpaceOnUse">
<stop stop-color="#DAE3FE"/>
<stop offset="1" stop-color="#E9EFFD"/>
</linearGradient>
<linearGradient id="paint9_linear_18_82" x1="36.236" y1="10.7065" x2="41.5477" y2="10.7065" gradientUnits="userSpaceOnUse">
<stop stop-color="#DAE3FE"/>
<stop offset="1" stop-color="#E9EFFD"/>
</linearGradient>
<linearGradient id="paint10_linear_18_82" x1="13.1634" y1="41.3943" x2="3.42887" y2="52.1481" gradientUnits="userSpaceOnUse">
<stop stop-color="#09005D"/>
<stop offset="1" stop-color="#1A0F91"/>
</linearGradient>
<linearGradient id="paint11_linear_18_82" x1="9.94987" y1="42.1819" x2="10.8293" y2="42.1819" gradientUnits="userSpaceOnUse">
<stop stop-color="#FEBBBA"/>
<stop offset="1" stop-color="#FF928E"/>
</linearGradient>
<linearGradient id="paint12_linear_18_82" x1="13.943" y1="29.4029" x2="5.68677" y2="40.7678" gradientUnits="userSpaceOnUse">
<stop stop-color="#09005D"/>
<stop offset="1" stop-color="#1A0F91"/>
</linearGradient>
<linearGradient id="paint13_linear_18_82" x1="10.9424" y1="39.3838" x2="1.20785" y2="50.1375" gradientUnits="userSpaceOnUse">
<stop stop-color="#09005D"/>
<stop offset="1" stop-color="#1A0F91"/>
</linearGradient>
<linearGradient id="paint14_linear_18_82" x1="6.78047" y1="42.1375" x2="7.53977" y2="42.1375" gradientUnits="userSpaceOnUse">
<stop stop-color="#FEBBBA"/>
<stop offset="1" stop-color="#FF928E"/>
</linearGradient>
<linearGradient id="paint15_linear_18_82" x1="12.4416" y1="28.3121" x2="4.18534" y2="39.677" gradientUnits="userSpaceOnUse">
<stop stop-color="#09005D"/>
<stop offset="1" stop-color="#1A0F91"/>
</linearGradient>
<linearGradient id="paint16_linear_18_82" x1="9.46277" y1="23.3096" x2="22.5846" y2="0.349357" gradientUnits="userSpaceOnUse">
<stop stop-color="#4F52FF"/>
<stop offset="1" stop-color="#4042E2"/>
</linearGradient>
<linearGradient id="paint17_linear_18_82" x1="17.3686" y1="14.4375" x2="15.8593" y2="18.8171" gradientUnits="userSpaceOnUse">
<stop stop-color="#FEBBBA"/>
<stop offset="1" stop-color="#FF928E"/>
</linearGradient>
<linearGradient id="paint18_linear_18_82" x1="18.6948" y1="14.8945" x2="17.1855" y2="19.2741" gradientUnits="userSpaceOnUse">
<stop stop-color="#FEBBBA"/>
<stop offset="1" stop-color="#FF928E"/>
</linearGradient>
<linearGradient id="paint19_linear_18_82" x1="17.5028" y1="17.6833" x2="18.6428" y2="15.3479" gradientUnits="userSpaceOnUse">
<stop stop-color="#FEBBBA"/>
<stop offset="1" stop-color="#FF928E"/>
</linearGradient>
<linearGradient id="paint20_linear_18_82" x1="6.66918" y1="21.7131" x2="19.791" y2="-1.24719" gradientUnits="userSpaceOnUse">
<stop stop-color="#4F52FF"/>
<stop offset="1" stop-color="#4042E2"/>
</linearGradient>
<linearGradient id="paint21_linear_18_82" x1="3.73755" y1="25.8577" x2="9.42319" y2="25.8577" gradientUnits="userSpaceOnUse">
<stop stop-color="#FEBBBA"/>
<stop offset="1" stop-color="#FF928E"/>
</linearGradient>
<linearGradient id="paint22_linear_18_82" x1="9.00105" y1="25.2707" x2="10.7724" y2="25.2707" gradientUnits="userSpaceOnUse">
<stop stop-color="#FEBBBA"/>
<stop offset="1" stop-color="#FF928E"/>
</linearGradient>
<linearGradient id="paint23_linear_18_82" x1="8.10333" y1="19.8728" x2="10.3512" y2="19.8728" gradientUnits="userSpaceOnUse">
<stop stop-color="#FEBBBA"/>
<stop offset="1" stop-color="#FF928E"/>
</linearGradient>
<linearGradient id="paint24_linear_18_82" x1="10.8859" y1="18.4647" x2="8.4352" y2="16.9466" gradientUnits="userSpaceOnUse">
<stop stop-color="#FEBBBA"/>
<stop offset="1" stop-color="#FF928E"/>
</linearGradient>
<linearGradient id="paint25_linear_18_82" x1="7.10599" y1="15.4158" x2="10.2609" y2="17.9465" gradientUnits="userSpaceOnUse">
<stop stop-color="#09005D"/>
<stop offset="1" stop-color="#1A0F91"/>
</linearGradient>
<linearGradient id="paint26_linear_18_82" x1="10.2367" y1="19.0182" x2="8.03178" y2="17.6524" gradientUnits="userSpaceOnUse">
<stop stop-color="#FEBBBA"/>
<stop offset="1" stop-color="#FF928E"/>
</linearGradient>
<clipPath id="clip0_18_82">
<rect width="44" height="44" fill="white"/>
</clipPath>
</defs>
</svg>
