<svg width="44" height="44" viewBox="0 0 44 44" fill="none" xmlns="http://www.w3.org/2000/svg">
<path d="M30.9456 27.446L31.2853 28.1328C31.0006 28.3389 30.7348 28.5691 30.4911 28.8208L29.8493 28.3943C29.8075 28.3667 29.7605 28.3475 29.7111 28.3378C29.6617 28.3281 29.6108 28.3281 29.5614 28.3379C29.512 28.3476 29.465 28.3668 29.4232 28.3945C29.3814 28.4221 29.3456 28.4576 29.3179 28.4989L28.5763 29.5893C28.5191 29.6728 28.4978 29.775 28.5169 29.8738C28.536 29.9726 28.5939 30.0601 28.6782 30.1172L29.3264 30.5503C29.1839 30.8696 29.0695 31.2004 28.9844 31.5388L28.201 31.4862C28.0986 31.4801 27.9979 31.5141 27.921 31.5807C27.8441 31.6473 27.7971 31.7411 27.7904 31.8417L27.693 33.1609C27.6888 33.2107 27.6948 33.2608 27.7104 33.3083C27.726 33.3558 27.7511 33.3998 27.784 33.4378C27.817 33.4758 27.8573 33.5071 27.9026 33.5298C27.948 33.5524 27.9974 33.5661 28.0481 33.57L28.8345 33.624C28.8712 33.9724 28.9385 34.3171 29.0356 34.6542L28.3221 35.002C28.2296 35.0479 28.1591 35.1276 28.1256 35.224C28.0922 35.3204 28.0984 35.4258 28.143 35.5177L28.7239 36.7178C28.7454 36.7632 28.7759 36.804 28.8137 36.8377C28.8514 36.8714 28.8957 36.8973 28.9438 36.914C28.9919 36.9306 29.0429 36.9376 29.0938 36.9347C29.1448 36.9317 29.1946 36.9187 29.2403 36.8965L29.9559 36.5477C30.1621 36.8341 30.3932 37.1022 30.6468 37.3491L30.2024 38.0087C30.1447 38.0944 30.1234 38.1987 30.1429 38.2996C30.1623 38.4005 30.2211 38.49 30.3067 38.549L31.419 39.3042C31.4612 39.333 31.5088 39.3531 31.559 39.3635C31.6092 39.3738 31.6611 39.3741 31.7114 39.3644C31.7618 39.3547 31.8096 39.3352 31.8521 39.3069C31.8947 39.2787 31.931 39.2424 31.9589 39.2002L32.403 38.5391C32.7276 38.6848 33.0645 38.8022 33.4099 38.8901L33.3571 39.6861C33.3428 39.9016 33.5055 40.0892 33.7206 40.1049L35.0672 40.2031C35.1188 40.2065 35.1705 40.1998 35.2195 40.1834C35.2684 40.1669 35.3135 40.1411 35.3521 40.1073C35.3908 40.0736 35.4222 40.0326 35.4446 39.9869C35.467 39.9411 35.4799 39.8914 35.4825 39.8406L35.5329 39.0513C35.8892 39.015 36.2416 38.9473 36.5856 38.8491L36.9376 39.5608C36.9597 39.6068 36.9909 39.6481 37.0294 39.6822C37.0678 39.7163 37.1128 39.7426 37.1617 39.7595C37.2105 39.7764 37.2623 39.7836 37.3141 39.7807C37.3658 39.7779 37.4164 39.7649 37.463 39.7427L38.6748 39.152C38.8686 39.0576 38.947 38.8232 38.8501 38.6286L38.4988 37.9236C38.79 37.7139 39.0615 37.479 39.31 37.2217L39.9619 37.6573C40.0043 37.6861 40.0522 37.7063 40.1028 37.7166C40.1533 37.727 40.2054 37.7273 40.256 37.7175C40.3067 37.7077 40.3548 37.6881 40.3976 37.6598C40.4404 37.6314 40.4769 37.595 40.5052 37.5526L41.2485 36.4356C41.3053 36.3488 41.3254 36.2436 41.3043 36.1426C41.2832 36.0415 41.2226 35.9525 41.1356 35.8947L40.4866 35.4634C40.6303 35.1352 40.7445 34.7954 40.828 34.4477L41.6004 34.5007C41.6517 34.5042 41.7032 34.4976 41.7519 34.4813C41.8005 34.465 41.8454 34.4393 41.8838 34.4058C41.9223 34.3722 41.9535 34.3315 41.9757 34.2859C41.9979 34.2404 42.0106 34.1909 42.0131 34.1405L42.0883 32.8064C42.094 32.7041 42.0587 32.6036 41.9898 32.5266C41.921 32.4496 41.8241 32.4023 41.72 32.3947L40.9553 32.3434C40.9129 31.988 40.8388 31.637 40.7337 31.2944L41.4181 30.9608C41.4638 30.9383 41.5046 30.907 41.5381 30.8689C41.5715 30.8308 41.597 30.7866 41.613 30.7388C41.629 30.691 41.6353 30.6405 41.6314 30.5904C41.6275 30.5402 41.6136 30.4913 41.5904 30.4464L40.9855 29.258C40.9397 29.1671 40.8591 29.0977 40.7613 29.0651C40.6636 29.0324 40.5566 29.0392 40.4639 29.0838L39.7816 29.4164C39.5682 29.1299 39.3294 28.8625 39.0681 28.6174L39.4863 27.9947C39.5428 27.9102 39.5628 27.8072 39.5421 27.7082C39.5215 27.6092 39.4618 27.5222 39.3761 27.4663L38.262 26.7376C38.2198 26.7099 38.1726 26.6907 38.1229 26.681C38.0732 26.6713 38.022 26.6714 37.9723 26.6812C37.9226 26.6909 37.8754 26.7103 37.8333 26.738C37.7913 26.7658 37.7552 26.8014 37.7272 26.8429L37.3059 27.4681C36.9791 27.3273 36.6403 27.215 36.2936 27.1323L36.3415 26.382C36.3479 26.2818 36.3137 26.1832 36.2463 26.1078C36.1788 26.0324 36.0837 25.9864 35.9817 25.9798L34.6574 25.8964C34.5556 25.8901 34.4554 25.9238 34.3789 25.9901C34.3024 26.0563 34.2558 26.1497 34.2493 26.2496L34.1993 27.0023C33.8477 27.0417 33.5002 27.1118 33.1612 27.2117L32.8222 26.5314C32.8001 26.4869 32.7693 26.4472 32.7315 26.4145C32.6938 26.3818 32.6498 26.3568 32.6021 26.3408C32.5544 26.3249 32.504 26.3184 32.4538 26.3217C32.4036 26.325 32.3545 26.3381 32.3094 26.3601L31.1216 26.939C31.0303 26.9838 30.9606 27.0621 30.9276 27.157C30.8946 27.2519 30.9011 27.3558 30.9456 27.446ZM31.3684 34.6865C30.4244 32.7587 31.2251 30.443 33.1519 29.5039C35.0785 28.5648 37.4186 29.3495 38.3837 31.2671C39.3546 33.1962 38.567 35.5383 36.6191 36.4878C34.6713 37.4372 32.3181 36.626 31.3684 34.6865Z" fill="#D8DEE8"/>
<path d="M21.9217 6.8866C15.3876 6.84575 10.2172 14.1196 10.2172 23.1323C10.2172 32.145 15.3876 39.8364 21.9217 40.3232C28.6349 40.8233 34.2135 33.5661 34.2135 24.1012C34.2135 14.6363 28.6349 6.92858 21.9217 6.8866ZM22.5753 39.478H22.5749C22.3806 39.478 22.1834 39.4706 21.9887 39.4561C19.1138 39.2419 16.4031 37.4615 14.3559 34.4429C12.2579 31.3493 11.1024 27.3325 11.1024 23.1323C11.1024 18.9525 12.2472 15.0481 14.326 12.1384C16.3448 9.31233 19.0229 7.75597 21.8669 7.75597L21.9161 7.75612C23.3954 7.76538 24.8416 8.1859 26.2144 9.00602C27.5719 9.81698 28.7989 10.9794 29.8613 12.461C30.9419 13.968 31.7924 15.722 32.3891 17.6743C33.0123 19.7132 33.3283 21.8755 33.3283 24.1012C33.3283 28.329 32.1744 32.2546 30.0791 35.1549C28.0651 37.9427 25.4002 39.478 22.5753 39.478Z" fill="url(#paint0_linear_17_84)"/>
<path d="M10.6282 23.1323C10.6282 14.7533 15.0971 7.87717 20.9761 6.98452C20.563 6.92244 13.4358 6.88926 13.0127 6.8866C6.47858 6.84575 1.30817 14.1196 1.30817 23.1323C1.30817 32.145 6.47858 39.8364 13.0127 40.3232C13.6765 40.3726 21.0377 40.3459 21.675 40.249C15.455 39.3146 10.6282 31.8403 10.6282 23.1323Z" fill="url(#paint1_linear_17_84)"/>
<path d="M12.8036 6.86644C14.397 7.28993 17.5901 8.37469 20.3302 11.218C24.273 15.3093 24.139 20.0795 24.2704 22.1846C24.3772 23.8972 25.3878 32.8862 18.958 37.5215C16.4499 39.3297 13.8179 39.8607 12.2742 40.0434C13.5258 40.1367 20.6702 40.2299 21.9217 40.3232C23.4011 40.1054 25.5272 39.5799 27.5951 38.1737C34.7142 33.3327 33.8035 23.0459 33.6591 21.6524C33.4396 19.5353 32.8592 13.9351 28.1705 10.0006C25.8711 8.07107 23.4352 7.25673 21.9217 6.8866C20.8466 6.87989 13.8787 6.87315 12.8036 6.86644Z" fill="url(#paint2_linear_17_84)"/>
<path d="M12.6056 6.85415C6.13704 6.81388 1.01808 14.06 1.01808 23.0379C1.01808 32.0157 6.13704 39.6757 12.6056 40.1584C19.2506 40.6543 24.7721 33.4246 24.7721 23.9981C24.7721 14.5716 19.2506 6.89552 12.6056 6.85415ZM13.2503 39.3129H13.2493C13.058 39.3129 12.864 39.3056 12.6726 39.2913C9.83034 39.0793 7.14959 37.308 5.12423 34.3037C3.04721 31.2229 1.90334 27.2219 1.90334 23.0379C1.90334 18.8741 3.03677 14.9846 5.09486 12.0859C7.09217 9.27277 9.74045 7.72352 12.5519 7.72352L12.5999 7.72366C14.0617 7.73277 15.491 8.1509 16.8479 8.96645C18.1906 9.77345 19.4044 10.9305 20.4555 12.4053C21.5249 13.906 22.3666 15.6527 22.9572 17.597C23.5741 19.6276 23.8868 21.7813 23.8868 23.9981C23.8868 28.2099 22.7445 32.1206 20.6702 35.0098C18.6781 37.7846 16.0427 39.3129 13.2503 39.3129Z" fill="url(#paint3_linear_17_84)"/>
<path d="M32.9703 12.109L21.73 12.011C20.6306 12.0015 19.7285 12.887 19.7285 13.9891V31.885C19.7285 32.9871 20.1674 33.5814 21.73 33.8719L22.9638 33.9529C23.9062 33.8356 34.6683 31.544 34.6683 30.5406V13.9406C34.6683 12.9372 33.9127 12.1172 32.9703 12.109Z" fill="url(#paint4_linear_17_84)"/>
<path d="M34.4268 12.1089L23.2175 12.011C22.1211 12.0015 21.2216 12.8858 21.2216 13.9863V32.1934C21.2216 33.2939 22.1211 34.074 23.2175 33.9374L34.4268 32.541C35.3667 32.4239 36.1202 31.5177 36.1202 30.5156V13.938C36.1202 12.936 35.3667 12.1171 34.4268 12.1089Z" fill="url(#paint5_linear_17_84)"/>
<path d="M34.4268 13.0262L23.2175 12.9954C22.672 12.9939 22.2255 13.437 22.2255 13.9831V32.0804C22.2255 32.6264 22.672 33.0177 23.2175 32.9531L34.4268 31.6237C34.8974 31.5678 35.2782 31.1135 35.2782 30.6105V13.9407C35.2782 13.4377 34.8974 13.0275 34.4268 13.0262Z" fill="#D8DEE8"/>
<g style="mix-blend-mode:soft-light" opacity="0.5">
<path d="M27.4569 23.7285C26.1073 19.8542 28.4092 17.4705 27.1786 13.6799C26.9926 13.1087 26.745 12.5587 26.44 12.0392L23.2175 12.011C22.1211 12.0015 21.2216 12.8858 21.2216 13.9863V32.1934C21.2216 33.2939 22.1211 34.074 23.2175 33.9374L33.8864 32.6083C33.522 31.4032 33.0344 30.453 32.5228 29.6926C30.6319 26.8821 28.5514 26.8705 27.4569 23.7285Z" fill="white"/>
</g>
<g style="mix-blend-mode:soft-light">
<path d="M34.2135 13.8296V22.9777L23.024 23.5254V13.8296H34.2135Z" fill="white"/>
</g>
<g style="mix-blend-mode:soft-light">
<path d="M25.7271 32.1173C25.8737 32.1173 34.4253 31.2277 34.4253 31.2277V24.6774L25.7271 25.3974V32.1173Z" fill="white"/>
</g>
<path d="M42.9845 7.0544V14.1755C42.9841 14.5125 42.916 14.8461 42.7841 15.1572C42.6523 15.4682 42.4592 15.7507 42.216 15.9883C41.9727 16.226 41.6841 16.4141 41.3667 16.542C41.0493 16.6699 40.7094 16.7349 40.3663 16.7335H31.5489C30.1035 16.7335 28.9585 15.5953 28.9585 14.1755V7.0544C28.9585 6.19602 29.3734 5.42887 30.0312 4.96202C30.4617 4.65627 30.9774 4.46928 31.5489 4.46928H40.3663C41.8118 4.46928 42.9845 5.63458 42.9845 7.0544Z" fill="url(#paint6_linear_17_84)"/>
<path d="M36.9108 15.1653L32.4709 19.5326C32.4216 19.5793 32.3595 19.611 32.2923 19.6238C32.225 19.6365 32.1554 19.6299 32.0919 19.6046C31.9654 19.5535 31.8737 19.432 31.8737 19.2973V14.7667L36.9108 15.1653Z" fill="url(#paint7_linear_17_84)"/>
<path d="M38.4886 10.6222L36.9676 6.36023H34.9376L33.8661 9.38275L32.1737 14.1402H33.9624L34.5306 12.1952H37.3852L37.9529 14.1402H39.7421L38.4886 10.6222ZM34.9482 10.8985C35.1017 10.4123 35.2382 9.96985 35.3586 9.58218C35.6744 8.56267 35.875 7.8898 35.9604 7.56355C35.989 7.68948 36.0364 7.86097 36.1026 8.07801C36.1536 8.24518 36.3389 8.83912 36.6597 9.85476C36.7571 10.1627 36.8668 10.5203 36.9888 10.8985H34.9482Z" fill="white"/>
<path style="mix-blend-mode:multiply" opacity="0.3" d="M42.2015 16.0019C41.7118 16.4738 41.0523 16.7367 40.3663 16.7335H35.3138L32.4772 19.5262C32.4275 19.5734 32.3651 19.6056 32.2974 19.6189C32.2296 19.6322 32.1594 19.6262 32.0951 19.6014C31.9685 19.5503 31.8737 19.432 31.8737 19.2972V16.7335H31.5489C30.1035 16.7335 28.9585 15.5953 28.9585 14.1755V7.0544C28.9585 6.19602 29.3734 5.43605 30.0312 4.9692C29.9618 6.4737 30.2921 8.93942 33.1635 9.27543C33.4076 9.30402 33.6405 9.33262 33.8694 9.36175C34.4063 9.42939 34.9012 9.50033 35.3603 9.57897C35.8333 9.65979 36.2658 9.74888 36.6605 9.85115C37.3995 10.0425 38.0048 10.2812 38.489 10.6012C39.2241 11.0873 39.6807 11.7583 39.9047 12.7426C40.2982 14.4726 40.9407 15.5263 42.2015 16.0019Z" fill="url(#paint8_linear_17_84)"/>
<path d="M31.1586 17.0625V24.1836C31.1586 24.8457 30.9101 25.4636 30.4914 25.9194C30.0127 26.4407 29.3253 26.7826 28.5538 26.7826H19.7365C18.291 26.7826 17.0777 25.6034 17.0777 24.1836V17.0625C17.0777 16.1573 17.5749 15.3744 18.2948 14.9164C18.7041 14.6563 19.2125 14.5184 19.7365 14.5184H28.5538C29.9993 14.5184 31.1586 15.6427 31.1586 17.0625Z" fill="url(#paint9_linear_17_84)"/>
<path d="M28.1884 24.7505V29.2811C28.1884 29.4158 28.1139 29.5368 27.9874 29.5885C27.9261 29.6138 27.8585 29.6204 27.7933 29.6076C27.7281 29.5947 27.6684 29.563 27.6218 29.5165L23.1698 25.1492L28.1884 24.7505Z" fill="url(#paint10_linear_17_84)"/>
<path d="M27.9684 17.76H20.3229V18.9486H27.9684V17.76Z" fill="white"/>
<path d="M27.4921 24.6748C24.7891 24.0596 23.3274 22.3869 22.5772 21.092C21.7709 19.7001 21.599 18.4517 21.592 18.3992L22.7883 18.2469L22.1902 18.3231L22.7881 18.2455C22.7896 18.2563 22.9458 19.3495 23.6475 20.5434C24.5659 22.1062 25.951 23.1079 27.7643 23.5205L27.4921 24.6748Z" fill="white"/>
<path d="M20.8185 24.6748L20.5462 23.5205C22.3595 23.1079 23.7446 22.1062 24.663 20.5434C25.3648 19.3495 25.5209 18.2563 25.5225 18.2455L26.7185 18.3992C26.7116 18.4517 26.5396 19.7001 25.7333 21.092C24.9831 22.3869 23.5215 24.0596 20.8185 24.6748Z" fill="white"/>
<path d="M24.7232 16.5714H23.5681V18.3003H24.7232V16.5714Z" fill="white"/>
<path style="mix-blend-mode:multiply" opacity="0.3" d="M30.4976 25.9194C30.0189 26.4407 29.3253 26.7826 28.5538 26.7826H28.1884V29.2811C28.1884 29.4158 28.1139 29.5368 27.9874 29.5885C27.8603 29.6402 27.7186 29.6257 27.6218 29.5306L24.8136 26.7826H19.7365C18.291 26.7826 17.0777 25.6034 17.0777 24.1836V17.0625C17.0777 16.1573 17.5749 15.3611 18.2948 14.903C18.2422 16.1782 18.4978 18.1139 20.2999 18.8815C20.3531 18.9041 20.412 18.9255 20.468 18.9459C20.7569 19.0525 21.0859 19.1306 21.4537 19.1735C21.5617 19.1862 21.6694 19.1988 21.7741 19.2115C22.2443 19.2681 22.6867 19.3258 23.101 19.388C23.8372 19.4985 24.4858 19.6217 25.0534 19.774C25.4778 19.8878 25.8564 20.0187 26.1923 20.1727C27.2834 20.6714 27.9245 21.4236 28.2039 22.651C28.5969 24.3793 29.2385 25.4432 30.4976 25.9194Z" fill="url(#paint11_linear_17_84)"/>
<path d="M18.2065 23.3583L24.9561 17.9186L24.9914 17.9354L18.2949 23.5074L18.2065 23.3583Z" fill="url(#paint12_linear_17_84)"/>
<path d="M17.7942 23.72L18.0584 23.4365L18.196 23.1239C18.2197 23.0699 18.2576 23.023 18.3057 22.988L18.3847 22.9305C18.43 22.8975 18.4848 22.8797 18.5412 22.8797H18.8003C18.8003 22.8797 18.7552 22.9626 18.6817 22.9753C18.6081 22.988 18.4544 23.1585 18.4544 23.1585L18.4335 23.3583L18.7275 23.1475L19.0409 22.7937V22.9901C19.0408 23.0573 19.0162 23.1222 18.9715 23.173L18.7173 23.462C18.6546 23.5333 18.5682 23.5806 18.4734 23.5956L18.4107 23.6055C18.3462 23.6157 18.2845 23.6387 18.2293 23.6731C18.1741 23.7075 18.1266 23.7526 18.0897 23.8056L17.911 24.0624L17.7942 23.72Z" fill="url(#paint13_linear_17_84)"/>
<path d="M3.52965 33.139C3.52965 33.139 3.45639 33.4774 3.39262 33.7624C3.32885 34.0473 3.07375 34.2659 2.96214 34.4933C2.85054 34.7208 2.8004 34.4545 2.76969 34.2901C2.73894 34.1256 2.76969 33.7861 2.9078 33.6699C3.04594 33.5537 3.15091 33.4522 3.14422 33.4288C3.13752 33.4053 3.23292 33.0137 3.23292 33.0137L3.52965 33.139Z" fill="url(#paint14_linear_17_84)"/>
<path d="M6.59148 43.3107C6.57407 43.2403 6.58575 43.146 6.64831 43.0827C6.73265 42.9975 6.87384 43.0047 6.96248 43.0441C7.01413 43.0671 7.0543 43.1038 7.19622 43.3945C7.34622 43.7017 7.34556 43.7513 7.32142 43.7793C7.27236 43.8363 7.13473 43.7942 7.10508 43.7852C7.00647 43.7551 6.98238 43.7091 6.77924 43.5223C6.64152 43.3956 6.60734 43.3751 6.59148 43.3107Z" fill="url(#paint15_linear_17_84)"/>
<path d="M6.68741 42.8305L6.72178 43.1866C6.80435 43.2288 6.85561 43.2254 6.8826 43.1866L6.9519 42.8305H6.68741Z" fill="url(#paint16_linear_17_84)"/>
<path d="M10.154 43.2663C10.1054 43.2116 10.0716 43.1226 10.0974 43.0382C10.1323 42.9244 10.2609 42.8668 10.3581 42.8617C10.4147 42.8587 10.4676 42.8731 10.73 43.0668C11.0072 43.2716 11.0299 43.3158 11.0216 43.3516C11.0048 43.4244 10.863 43.4494 10.8324 43.4548C10.7308 43.4727 10.6878 43.4429 10.4199 43.369C10.2382 43.3189 10.1982 43.3162 10.154 43.2663Z" fill="url(#paint17_linear_17_84)"/>
<path d="M10.178 42.6716L10.2124 43.0277C10.295 43.0698 10.3462 43.0664 10.3732 43.0277L10.4425 42.6716H10.178Z" fill="url(#paint18_linear_17_84)"/>
<path d="M6.59462 42.9002C6.72505 42.908 6.85549 42.9157 6.98593 42.9234C7.26212 41.6002 7.56627 40.2466 7.89839 38.8627C8.26341 37.3468 8.64323 35.8776 9.03785 34.4552C9.16243 34.9965 9.28573 35.6295 9.38285 36.3412C9.4786 37.0344 9.53877 37.7318 9.56315 38.4309C9.59872 39.5767 9.49705 39.7121 9.54512 40.4274C9.58291 40.9899 9.70692 41.8162 10.1221 42.8199C10.2464 42.8124 10.3708 42.805 10.4951 42.7976C10.8179 41.263 11.009 39.7044 11.0664 38.1383C11.1353 36.2602 11.0122 34.38 10.699 32.526C9.56915 32.5605 8.43928 32.595 7.30942 32.6295C7.03053 33.2357 6.83067 33.8741 6.7146 34.5294C6.55092 35.4641 6.6513 35.9253 6.52813 37.5178C6.46446 38.3407 6.41801 38.4713 6.37187 39.0178C6.29541 39.923 6.28213 41.2303 6.59462 42.9002Z" fill="url(#paint19_linear_17_84)"/>
<path style="mix-blend-mode:multiply" opacity="0.3" d="M7.34547 39.7415C7.44855 38.6654 7.05328 38.6876 7.2373 37.758C7.40662 36.9026 7.76571 36.7601 8.03061 35.6682C8.24322 34.7918 8.08082 34.5995 8.24697 34.216C8.45224 33.7421 9.05182 33.2248 10.7753 33.005C10.7506 32.8415 10.7252 32.6811 10.699 32.526C9.56915 32.5605 8.43928 32.595 7.30942 32.6295C7.03053 33.2357 6.83067 33.8741 6.7146 34.5294C6.55093 35.4641 6.6513 35.9253 6.52813 37.5178C6.46446 38.3407 6.41804 38.4713 6.37187 39.0178C6.29541 39.923 6.28213 41.2303 6.59462 42.9002C6.72505 42.908 6.85549 42.9157 6.98593 42.9234C6.99396 42.885 7.00254 42.8459 7.01063 42.8073C6.93969 42.6957 6.88262 42.5761 6.84064 42.451C6.55455 41.5877 7.21666 41.0863 7.34547 39.7415Z" fill="url(#paint20_linear_17_84)"/>
<path d="M3.07241 33.2065C3.24068 33.2361 3.40896 33.2656 3.57724 33.2951C3.68118 32.9859 3.83201 32.5197 3.99453 31.9456C4.18034 31.2893 4.27574 30.8651 4.31646 30.7095C4.47842 30.0904 4.95204 29.2219 6.34792 28.1647C6.33405 28.8373 6.32331 29.3906 6.31607 29.7708C6.25802 32.8213 6.26136 33.375 6.67388 33.6792C7.03257 33.9436 7.23069 33.673 8.86003 33.7034C10.346 33.7311 10.6588 33.9652 11.0361 33.6972C11.6485 33.2622 11.4106 32.2297 11.4202 30.9397C11.4281 29.8752 11.6065 28.3688 12.3938 26.53C13.2891 26.6167 14.1928 26.5141 15.0442 26.2289C16.7547 25.6521 17.7267 24.4997 18.0913 24.0152C17.9711 23.8558 17.8509 23.6964 17.7307 23.537C16.8464 23.9172 15.9173 24.1875 14.9649 24.3415C12.8844 24.6754 11.9279 24.2413 9.99588 24.3162C8.88317 24.3594 6.61055 24.4475 5.07372 25.5913C2.24749 27.6947 2.97102 32.5783 3.07241 33.2065Z" fill="url(#paint21_linear_17_84)"/>
<path style="mix-blend-mode:multiply" opacity="0.3" d="M8.46333 32.8524C8.37731 32.3812 8.63567 32.1828 8.49939 31.6481C8.30709 30.8936 7.69041 30.8877 7.5438 30.249C7.40401 29.6399 7.92169 29.4571 8.04864 28.4957C8.14197 27.789 8.01016 26.7674 7.52579 26.6008C6.92318 26.3936 6.03754 27.6001 5.93915 27.7342C5.63751 28.148 5.4158 28.6126 5.28503 29.1051C5.56072 28.8115 5.90846 28.4975 6.34791 28.1647C6.33404 28.8373 6.32331 29.3906 6.31606 29.7708C6.25801 32.8213 6.26135 33.375 6.67388 33.6792C7.03256 33.9436 7.23069 33.673 8.86003 33.7034C8.90661 33.7043 8.94873 33.7059 8.99304 33.7071C8.64104 33.3906 8.50749 33.0943 8.46333 32.8524Z" fill="url(#paint22_linear_17_84)"/>
<path d="M8.96195 23.4433C8.96195 23.4433 8.91165 23.8363 8.7629 24.1219C8.62846 24.3799 8.02229 24.5011 7.89734 24.5512C7.77238 24.6014 8.10328 24.8027 8.44706 24.8642C8.79083 24.9257 9.78686 24.9263 9.97579 24.8113C10.1647 24.6963 9.84216 24.6807 9.60207 24.572C9.36197 24.4634 9.25772 23.9769 9.31897 23.7647C9.38022 23.5524 8.96195 23.4433 8.96195 23.4433Z" fill="url(#paint23_linear_17_84)"/>
<path d="M9.60153 23.2974C9.6831 23.1619 9.63108 22.9163 9.47131 22.8106C9.35275 22.7322 9.21685 22.7586 9.11782 22.7779C9.07199 22.7868 8.75007 22.8534 8.67635 23.0879C8.65292 23.1625 8.66261 23.261 8.69691 23.3373C8.71459 23.3766 8.74751 23.4249 8.8199 23.5166C8.88414 23.598 8.87996 23.5953 8.89959 23.6189C8.9467 23.6756 9.03687 23.7705 9.1985 23.8776C9.20615 23.8243 9.21852 23.7718 9.23547 23.7206C9.25743 23.654 9.28796 23.5905 9.32633 23.5315C9.4327 23.3758 9.53775 23.4034 9.60153 23.2974Z" fill="url(#paint24_linear_17_84)"/>
<path d="M8.99368 23.7748C8.99368 23.7748 9.16748 24.0024 9.46439 23.955C9.73025 23.9126 9.71168 23.3196 9.52854 23.2107C9.46745 23.1744 9.35158 23.1679 9.26125 23.2022C9.20787 23.2225 9.19151 23.2466 9.10368 23.2781C9.02268 23.3071 8.9983 23.3003 8.97526 23.3234C8.94641 23.3523 8.92969 23.4181 8.99895 23.5854C8.94294 23.5394 8.87976 23.5258 8.83833 23.55C8.82425 23.5593 8.81307 23.5723 8.80605 23.5874C8.77523 23.6583 8.84623 23.7383 8.99368 23.7748Z" fill="url(#paint25_linear_17_84)"/>
<path d="M8.93332 23.4395C8.93332 23.4395 9.04663 23.6457 9.10968 23.6944C9.17276 23.743 9.31485 23.7727 9.45279 23.6988C9.52946 23.659 9.6014 23.611 9.66728 23.5556C9.66728 23.5556 9.72375 23.8413 9.68939 23.8766C9.65504 23.9119 9.40069 24.0649 9.3276 24.0541C9.25451 24.0432 9.07603 23.9018 9.03472 23.8142C8.99341 23.7266 8.94367 23.4993 8.94367 23.4993L8.93332 23.4395Z" fill="url(#paint26_linear_17_84)"/>
<path d="M28.6445 0.907662L27.6756 2.45079L27.5283 2.68494C27.5283 2.68494 27.4659 2.66449 27.3488 2.62672C27.2905 2.60613 27.2172 2.58581 27.1313 2.56098C27.0455 2.53433 26.9456 2.51027 26.8333 2.48194C26.2079 2.3291 25.5654 2.25404 24.9209 2.25851C24.486 2.26207 24.0522 2.30002 23.6236 2.37199C23.3952 2.41437 23.1603 2.45983 22.9246 2.5251C22.8949 2.53264 22.865 2.54045 22.8353 2.548C22.8057 2.55659 22.7761 2.56569 22.7465 2.57427C22.6873 2.59197 22.6276 2.6096 22.5675 2.62713C22.4495 2.66798 22.3279 2.7045 22.2094 2.75081C21.7144 2.93331 21.2392 3.16399 20.791 3.43942C20.5612 3.58097 20.3375 3.73714 20.1184 3.90199L19.9572 4.03046C19.9307 4.05195 19.9024 4.07324 19.8772 4.09443L19.8014 4.15927L19.7253 4.22386C19.7002 4.24556 19.6755 4.26568 19.6476 4.29242L19.4849 4.44307L19.4643 4.46199L19.4397 4.45804L19.4225 4.44732L19.4202 4.44973L19.4 4.49665L19.3333 4.57634C19.2843 4.62489 19.2377 4.67625 19.1913 4.72732L19.0508 4.87968C19.0053 4.93202 18.9607 4.98465 18.9151 5.03646C18.7348 5.24451 18.5658 5.46181 18.409 5.68745L18.35 5.7717L18.2942 5.85729C18.257 5.91428 18.2192 5.97108 18.1831 6.02854C18.1132 6.14497 18.0414 6.25966 17.9779 6.37846C17.9106 6.49478 17.8519 6.61498 17.7908 6.73344C17.7617 6.79326 17.7343 6.85356 17.7063 6.91334C17.6922 6.94323 17.6782 6.97313 17.6642 7.00303C17.6513 7.0334 17.6386 7.06351 17.6259 7.09362C17.5195 7.33386 17.433 7.57732 17.3535 7.81818C17.3164 7.93943 17.2783 8.05891 17.2477 8.17914C17.2137 8.29872 17.1876 8.41855 17.1596 8.53662C17.0616 8.98334 17.0009 9.43719 16.9783 9.89363C16.9588 10.2824 16.9676 10.6721 17.0046 11.0597C17.0339 11.36 17.0791 11.6587 17.1402 11.9544C17.1669 12.0773 17.19 12.1878 17.2151 12.2811C17.2395 12.3752 17.2586 12.4555 17.2793 12.5216C17.2895 12.5561 17.2983 12.5863 17.3059 12.6123C17.3136 12.6386 17.312 12.6667 17.3014 12.6921C17.2909 12.7174 17.2719 12.7385 17.2476 12.752C17.2409 12.7558 17.2337 12.7591 17.2263 12.7616L17.2166 12.7648C17.1863 12.7749 17.1532 12.7731 17.1242 12.7599C17.0952 12.7467 17.0726 12.723 17.0609 12.6937C17.0507 12.6689 17.0391 12.6396 17.0256 12.6063C16.9993 12.5434 16.9706 12.4609 16.9363 12.3648C16.8997 12.2685 16.8655 12.1573 16.8254 12.0328C16.7325 11.7316 16.6556 11.4258 16.595 11.1167C16.5173 10.7131 16.4688 10.3046 16.4498 9.89425C16.4271 9.40538 16.4453 8.91551 16.504 8.42955C16.5216 8.29989 16.5374 8.16819 16.562 8.03594C16.5826 7.90302 16.6109 7.7696 16.6391 7.63463C16.6995 7.3658 16.7687 7.09146 16.8594 6.8177C16.8703 6.78349 16.881 6.74902 16.8922 6.71454C16.9042 6.6803 16.9162 6.64604 16.9284 6.61206C16.953 6.54355 16.9766 6.47428 17.0022 6.40572C17.0566 6.26957 17.1088 6.13088 17.1709 5.99522C17.2286 5.85762 17.2952 5.72311 17.3607 5.58656C17.3946 5.51902 17.4305 5.45243 17.4657 5.3846L17.5192 5.28385L17.5757 5.18428C17.7272 4.91517 17.8931 4.65417 18.0728 4.40239C18.1185 4.33913 18.1642 4.27595 18.21 4.21284L18.3537 4.02774C18.4013 3.96519 18.4521 3.90563 18.5023 3.84559L18.578 3.75499L18.6155 3.70995L18.6598 3.66105L18.8075 3.4961C18.8303 3.46928 18.8597 3.43936 18.8878 3.41028L18.9725 3.32247L19.0576 3.23493C19.0859 3.20558 19.1144 3.17985 19.1427 3.15206C19.1996 3.0975 19.2564 3.04243 19.3132 2.98787C19.546 2.77518 19.7867 2.57132 20.0376 2.38221C20.531 2.01071 21.0612 1.68875 21.62 1.42116C21.7553 1.35343 21.8944 1.29625 22.0304 1.23526C22.0994 1.20734 22.1681 1.1796 22.2367 1.15204C22.2709 1.13861 22.3054 1.12491 22.3393 1.11123C22.3738 1.09857 22.4083 1.08643 22.4428 1.07377C22.7167 0.969958 22.9918 0.888484 23.2614 0.812403C23.7717 0.676805 24.2923 0.581772 24.8181 0.528226C25.613 0.448668 26.4148 0.467261 27.205 0.58357C27.3485 0.60532 27.4769 0.624745 27.5874 0.64739C27.6983 0.668481 27.7933 0.685955 27.8692 0.704099C28.0214 0.738312 28.6445 0.907662 28.6445 0.907662Z" fill="url(#paint27_linear_17_84)"/>
<path style="mix-blend-mode:multiply" opacity="0.3" d="M27.619 2.3945C27.6394 2.41166 27.6584 2.43049 27.6756 2.45079L27.5283 2.68493C27.5283 2.68493 27.4659 2.66449 27.3488 2.62672C27.2905 2.60612 27.2172 2.5858 27.1313 2.56098C27.0455 2.53432 26.9456 2.51027 26.8333 2.48194C26.2079 2.3291 25.5654 2.25403 24.9209 2.25851C24.486 2.26206 24.0522 2.30001 23.6236 2.37199C23.3952 2.41437 23.1603 2.45983 22.9246 2.52509C22.8949 2.53264 22.865 2.54045 22.8353 2.548C22.8057 2.55658 22.7761 2.56569 22.7465 2.57427C22.6873 2.59197 22.6276 2.60959 22.5675 2.62713C22.4495 2.66798 22.3279 2.70449 22.2094 2.75081C21.7144 2.9333 21.2392 3.16399 20.791 3.43942C20.5612 3.58096 20.3375 3.73714 20.1184 3.90199L19.9572 4.03046C19.9307 4.05194 19.9024 4.07324 19.8772 4.09443L19.8014 4.15927L19.7253 4.22386C19.7002 4.24555 19.6755 4.26568 19.6476 4.29242L19.4849 4.44307L19.4643 4.46199L19.4397 4.45804L19.4225 4.44731L19.4202 4.44973L19.4 4.49665L19.3333 4.57634C19.2843 4.62489 19.2377 4.67625 19.1913 4.72731L19.0508 4.87968C19.0053 4.93202 18.9607 4.98465 18.9151 5.03646C18.7348 5.24451 18.5658 5.46181 18.409 5.68745L18.35 5.7717L18.2942 5.85729C18.257 5.91428 18.2192 5.97108 18.1831 6.02854C18.1132 6.14497 18.0414 6.25966 17.9779 6.37846C17.9106 6.49478 17.8519 6.61498 17.7908 6.73344C17.7617 6.79326 17.7343 6.85356 17.7063 6.91334C17.6922 6.94323 17.6782 6.97312 17.6642 7.00303C17.6513 7.0334 17.6386 7.06351 17.6259 7.09362C17.5195 7.33386 17.433 7.57732 17.3535 7.81818C17.3164 7.93943 17.2783 8.05891 17.2477 8.17914C17.2137 8.29872 17.1876 8.41855 17.1596 8.53662C17.0616 8.98334 17.0009 9.43719 16.9783 9.89363C16.9588 10.2824 16.9676 10.6721 17.0046 11.0597C17.0339 11.36 17.0791 11.6587 17.1402 11.9544C17.1669 12.0773 17.19 12.1878 17.2151 12.2811C17.2395 12.3752 17.2586 12.4555 17.2793 12.5216C17.2895 12.5561 17.2983 12.5863 17.3059 12.6123C17.3136 12.6386 17.312 12.6667 17.3014 12.6921C17.2909 12.7174 17.2719 12.7385 17.2476 12.752C17.0032 11.8803 16.0979 7.99891 18.4504 5.13353C21.1154 1.88771 25.8622 0.903155 27.619 2.3945Z" fill="url(#paint28_linear_17_84)"/>
<path d="M29.1562 0.364004L31.0795 3.95114L25.9995 3.20378L29.1562 0.364004Z" fill="url(#paint29_linear_17_84)"/>
<path style="mix-blend-mode:multiply" opacity="0.3" d="M29.1562 0.364004L31.0795 3.95114L25.9995 3.20378L29.1562 0.364004Z" fill="url(#paint30_linear_17_84)"/>
<path d="M29.3348 0.175591L31.0986 3.93094L26.1934 3.02937L29.3348 0.175591Z" fill="url(#paint31_linear_17_84)"/>
<path d="M33.1422 28.9523L33.7678 27.5816L33.8629 27.3736C33.8629 27.3736 33.9165 27.3837 34.0168 27.4023C34.0669 27.413 34.1294 27.4219 34.2027 27.4331C34.2761 27.4459 34.3608 27.455 34.4562 27.4663C34.9868 27.5253 35.5228 27.5185 36.0517 27.4462C36.4084 27.397 36.7606 27.3196 37.1047 27.2149C37.2876 27.1558 37.4755 27.0934 37.662 27.0147C37.6855 27.0054 37.7092 26.9957 37.7327 26.9864C37.7561 26.9762 37.7794 26.9656 37.8028 26.9554C37.8495 26.9345 37.8966 26.9137 37.944 26.8929C38.0364 26.8468 38.1322 26.8038 38.2245 26.7532C38.6109 26.5506 38.9757 26.3105 39.3135 26.0365C39.4866 25.8958 39.6531 25.7437 39.8149 25.585L39.9331 25.4623C39.9525 25.4418 39.9735 25.4213 39.9918 25.4012L40.0469 25.3399L40.1023 25.2787C40.1205 25.2583 40.1386 25.2391 40.1586 25.2142L40.2756 25.0731L40.2903 25.0554L40.3157 25.0592L40.3357 25.0695L40.3373 25.0673L40.344 25.0233L40.3877 24.9491C40.4226 24.904 40.454 24.8561 40.4865 24.8092L40.5845 24.6687C40.6161 24.6208 40.6467 24.5726 40.6783 24.5252C40.8035 24.3351 40.9182 24.1386 41.0221 23.9365L41.0612 23.861L41.0976 23.7847C41.1218 23.734 41.1466 23.6833 41.1699 23.6322C41.2145 23.5292 41.2608 23.4273 41.2998 23.323C41.3422 23.2203 41.3771 23.1153 41.4143 23.0115C41.4316 22.9592 41.4475 22.9068 41.4639 22.8547C41.4721 22.8287 41.4803 22.8026 41.4885 22.7766C41.4958 22.7502 41.5028 22.7241 41.5099 22.6981C41.5709 22.4894 41.6151 22.2802 41.6537 22.0739C41.6709 21.9704 41.6889 21.8682 41.7008 21.7662C41.7156 21.6643 41.7238 21.5631 41.7338 21.4632C41.765 21.0858 41.7647 20.7066 41.7329 20.3292C41.706 20.0078 41.6558 19.6887 41.5826 19.3743C41.5254 19.1307 41.4553 18.8902 41.3725 18.6539C41.337 18.5558 41.3058 18.4674 41.2749 18.3934C41.2445 18.3187 41.22 18.2549 41.1957 18.2027C41.1834 18.1755 41.1729 18.1517 41.1638 18.1311C41.1546 18.1103 41.1528 18.087 41.1586 18.0651C41.1645 18.0432 41.1778 18.0238 41.1962 18.0102C41.2014 18.0063 41.2069 18.0029 41.2127 18L41.2203 17.9963C41.2441 17.9848 41.2714 17.9827 41.2967 17.9905C41.322 17.9983 41.3432 18.0153 41.356 18.0381C41.3671 18.0575 41.3799 18.0802 41.3946 18.1062C41.4232 18.155 41.4559 18.2197 41.4946 18.295C41.5353 18.3702 41.5757 18.4579 41.6224 18.5559C41.732 18.7934 41.8289 19.0364 41.9127 19.2838C42.0211 19.6071 42.106 19.9375 42.1669 20.2725C42.2395 20.6716 42.2786 21.0759 42.284 21.4813C42.2839 21.5897 42.2854 21.6995 42.2798 21.8108C42.2776 21.9222 42.2691 22.0348 42.2608 22.1486C42.2409 22.3759 42.2143 22.6086 42.17 22.8431C42.1648 22.8723 42.1599 22.9018 42.1545 22.9313C42.1484 22.9607 42.1423 22.9901 42.136 23.0193C42.1234 23.0782 42.1116 23.1376 42.0981 23.1967C42.0685 23.3143 42.041 23.4338 42.0049 23.5518C41.9727 23.671 41.9328 23.7886 41.8941 23.9077C41.8738 23.9668 41.8515 24.0253 41.8302 24.0848L41.7973 24.1732L41.7619 24.261C41.6672 24.4982 41.5597 24.7302 41.4399 24.9562C41.4094 25.013 41.3786 25.0696 41.3481 25.1265L41.2505 25.2938C41.2184 25.3502 41.1832 25.4046 41.1485 25.4592L41.0964 25.5417L41.0705 25.5827L41.0395 25.6276L40.9365 25.7788C40.9207 25.8032 40.8998 25.831 40.88 25.8578L40.8201 25.939L40.7599 26.0199C40.7399 26.047 40.7193 26.0712 40.6991 26.0971C40.6584 26.1479 40.6178 26.1992 40.5772 26.2501C40.4095 26.4496 40.2342 26.6426 40.049 26.8247C39.6847 27.1824 39.2848 27.5033 38.8553 27.7826C38.7517 27.8526 38.6437 27.9144 38.5387 27.9789C38.4852 28.0092 38.4318 28.0393 38.3785 28.0693C38.3519 28.0839 38.3251 28.0989 38.2987 28.1137C38.2718 28.1278 38.2447 28.1414 38.2178 28.1555C38.0044 28.2699 37.7873 28.3661 37.5743 28.4573C37.1701 28.623 36.753 28.7565 36.327 28.8565C35.6829 29.0065 35.0223 29.0766 34.3604 29.0652C34.2401 29.0626 34.1325 29.0603 34.0393 29.0535C33.9458 29.048 33.8659 29.0437 33.8015 29.0369C33.6727 29.025 33.1422 28.9523 33.1422 28.9523Z" fill="url(#paint32_linear_17_84)"/>
<path style="mix-blend-mode:multiply" opacity="0.3" d="M33.8205 27.6218C33.8018 27.6099 33.7842 27.5964 33.7678 27.5816L33.8629 27.3736C33.8629 27.3736 33.9165 27.3838 34.0168 27.4023C34.0669 27.413 34.1294 27.4219 34.2027 27.4331C34.2761 27.4459 34.3608 27.455 34.4562 27.4663C34.9868 27.5253 35.5228 27.5185 36.0517 27.4462C36.4084 27.397 36.7606 27.3197 37.1047 27.2149C37.2876 27.1558 37.4755 27.0934 37.662 27.0147C37.6855 27.0054 37.7092 26.9958 37.7328 26.9864C37.7561 26.9762 37.7794 26.9656 37.8028 26.9554C37.8495 26.9345 37.8966 26.9137 37.944 26.8929C38.0364 26.8468 38.1322 26.8038 38.2245 26.7532C38.6109 26.5506 38.9757 26.3105 39.3135 26.0365C39.4866 25.8958 39.6531 25.7437 39.815 25.585L39.9331 25.4623C39.9525 25.4418 39.9735 25.4213 39.9918 25.4012L40.0469 25.3399L40.1023 25.2787C40.1205 25.2583 40.1386 25.2391 40.1586 25.2142L40.2756 25.0731L40.2904 25.0554L40.3157 25.0593L40.3357 25.0695L40.3373 25.0673L40.344 25.0233L40.3877 24.9491C40.4226 24.904 40.4541 24.8561 40.4865 24.8092L40.5845 24.6687C40.6161 24.6208 40.6467 24.5726 40.6784 24.5252C40.8035 24.3351 40.9182 24.1386 41.0221 23.9365L41.0612 23.861L41.0976 23.7847C41.1218 23.734 41.1466 23.6833 41.1699 23.6322C41.2145 23.5292 41.2608 23.4273 41.2998 23.323C41.3423 23.2203 41.3772 23.1153 41.4143 23.0115C41.4316 22.9592 41.4475 22.9068 41.4639 22.8547C41.4721 22.8287 41.4803 22.8026 41.4885 22.7766C41.4958 22.7502 41.5029 22.7241 41.51 22.6981C41.5709 22.4894 41.6151 22.2802 41.6537 22.0739C41.6709 21.9704 41.689 21.8682 41.7008 21.7662C41.7156 21.6643 41.7238 21.5631 41.7338 21.4632C41.765 21.0858 41.7647 20.7066 41.7329 20.3292C41.706 20.0078 41.6558 19.6887 41.5827 19.3743C41.5254 19.1307 41.4553 18.8902 41.3725 18.6539C41.337 18.5558 41.3058 18.4674 41.2749 18.3934C41.2445 18.3187 41.22 18.2549 41.1957 18.2027C41.1834 18.1755 41.1729 18.1517 41.1638 18.1311C41.1546 18.1103 41.1528 18.087 41.1586 18.0651C41.1645 18.0432 41.1778 18.0238 41.1962 18.0102C41.4932 18.7001 42.6651 21.7918 41.0491 24.3958C39.2183 27.3456 35.4281 28.6597 33.8205 27.6218Z" fill="url(#paint33_linear_17_84)"/>
<path d="M32.7819 29.4533L30.8063 26.7117L35.0614 26.7847L32.7819 29.4533Z" fill="url(#paint34_linear_17_84)"/>
<path style="mix-blend-mode:multiply" opacity="0.3" d="M32.7819 29.4533L30.8063 26.7117L35.0614 26.7847L32.7819 29.4533Z" fill="url(#paint35_linear_17_84)"/>
<path d="M32.6561 29.6271L30.7928 26.7303L34.9214 26.9486L32.6561 29.6271Z" fill="url(#paint36_linear_17_84)"/>
<defs>
<linearGradient id="paint0_linear_17_84" x1="10.2172" y1="23.617" x2="34.2135" y2="23.617" gradientUnits="userSpaceOnUse">
<stop stop-color="#AA80F9"/>
<stop offset="0.9964" stop-color="#6165D7"/>
</linearGradient>
<linearGradient id="paint1_linear_17_84" x1="1.30817" y1="23.6169" x2="21.675" y2="23.6169" gradientUnits="userSpaceOnUse">
<stop stop-color="#AA80F9"/>
<stop offset="0.9964" stop-color="#6165D7"/>
</linearGradient>
<linearGradient id="paint2_linear_17_84" x1="12.2742" y1="23.5948" x2="33.7739" y2="23.5948" gradientUnits="userSpaceOnUse">
<stop stop-color="#AA80F9"/>
<stop offset="0.9964" stop-color="#6165D7"/>
</linearGradient>
<linearGradient id="paint3_linear_17_84" x1="18.426" y1="15.0289" x2="-1.32898" y2="46.5037" gradientUnits="userSpaceOnUse">
<stop stop-color="#FF9085"/>
<stop offset="1" stop-color="#FB6FBB"/>
</linearGradient>
<linearGradient id="paint4_linear_17_84" x1="43.5581" y1="18.7306" x2="26.966" y2="22.1662" gradientUnits="userSpaceOnUse">
<stop stop-color="#FF9085"/>
<stop offset="1" stop-color="#FB6FBB"/>
</linearGradient>
<linearGradient id="paint5_linear_17_84" x1="15.2943" y1="34.2683" x2="35.0205" y2="15.9383" gradientUnits="userSpaceOnUse">
<stop stop-color="#AA80F9"/>
<stop offset="0.9964" stop-color="#6165D7"/>
</linearGradient>
<linearGradient id="paint6_linear_17_84" x1="35.4372" y1="-9.98239" x2="36.3015" y2="24.556" gradientUnits="userSpaceOnUse">
<stop stop-color="#FFC444"/>
<stop offset="0.9964" stop-color="#F36F56"/>
</linearGradient>
<linearGradient id="paint7_linear_17_84" x1="33.6878" y1="-9.92436" x2="34.5521" y2="24.6115" gradientUnits="userSpaceOnUse">
<stop stop-color="#FFC444"/>
<stop offset="0.9964" stop-color="#F36F56"/>
</linearGradient>
<linearGradient id="paint8_linear_17_84" x1="28.9585" y1="12.2976" x2="42.2015" y2="12.2976" gradientUnits="userSpaceOnUse">
<stop stop-color="#FFC444"/>
<stop offset="0.9964" stop-color="#F36F56"/>
</linearGradient>
<linearGradient id="paint9_linear_17_84" x1="24.4587" y1="17.1933" x2="22.0271" y2="42.6086" gradientUnits="userSpaceOnUse">
<stop offset="0.0036" stop-color="#E38DDD"/>
<stop offset="1" stop-color="#9571F6"/>
</linearGradient>
<linearGradient id="paint10_linear_17_84" x1="26.7208" y1="16.7193" x2="24.2985" y2="42.0376" gradientUnits="userSpaceOnUse">
<stop offset="0.0036" stop-color="#E38DDD"/>
<stop offset="1" stop-color="#9571F6"/>
</linearGradient>
<linearGradient id="paint11_linear_17_84" x1="17.0777" y1="22.2605" x2="30.4976" y2="22.2605" gradientUnits="userSpaceOnUse">
<stop offset="0.0036" stop-color="#E38DDD"/>
<stop offset="1" stop-color="#9571F6"/>
</linearGradient>
<linearGradient id="paint12_linear_17_84" x1="24.7026" y1="16.9886" x2="18.1721" y2="24.9668" gradientUnits="userSpaceOnUse">
<stop stop-color="#311944"/>
<stop offset="1" stop-color="#A03976"/>
</linearGradient>
<linearGradient id="paint13_linear_17_84" x1="19.1609" y1="22.6426" x2="15.8621" y2="25.7122" gradientUnits="userSpaceOnUse">
<stop stop-color="#FFC444"/>
<stop offset="0.9964" stop-color="#F36F56"/>
</linearGradient>
<linearGradient id="paint14_linear_17_84" x1="2.84174" y1="35.5894" x2="3.60773" y2="30.3786" gradientUnits="userSpaceOnUse">
<stop stop-color="#FFC444"/>
<stop offset="0.9964" stop-color="#F36F56"/>
</linearGradient>
<linearGradient id="paint15_linear_17_84" x1="7.16395" y1="44.6898" x2="6.53709" y2="40.9316" gradientUnits="userSpaceOnUse">
<stop stop-color="#AA80F9"/>
<stop offset="0.9964" stop-color="#6165D7"/>
</linearGradient>
<linearGradient id="paint16_linear_17_84" x1="6.78048" y1="43.2324" x2="6.9893" y2="41.012" gradientUnits="userSpaceOnUse">
<stop stop-color="#FFC444"/>
<stop offset="0.9964" stop-color="#F36F56"/>
</linearGradient>
<linearGradient id="paint17_linear_17_84" x1="10.7064" y1="44.0989" x2="10.0796" y2="40.3408" gradientUnits="userSpaceOnUse">
<stop stop-color="#AA80F9"/>
<stop offset="0.9964" stop-color="#6165D7"/>
</linearGradient>
<linearGradient id="paint18_linear_17_84" x1="10.2241" y1="43.5562" x2="10.4329" y2="41.336" gradientUnits="userSpaceOnUse">
<stop stop-color="#FFC444"/>
<stop offset="0.9964" stop-color="#F36F56"/>
</linearGradient>
<linearGradient id="paint19_linear_17_84" x1="7.42915" y1="42.9427" x2="10.6839" y2="30.4933" gradientUnits="userSpaceOnUse">
<stop stop-color="#444B8C"/>
<stop offset="0.9964" stop-color="#26264F"/>
</linearGradient>
<linearGradient id="paint20_linear_17_84" x1="6.32099" y1="42.653" x2="9.57571" y2="30.2035" gradientUnits="userSpaceOnUse">
<stop stop-color="#444B8C"/>
<stop offset="0.9964" stop-color="#26264F"/>
</linearGradient>
<linearGradient id="paint21_linear_17_84" x1="2.9156" y1="28.6807" x2="18.0913" y2="28.6807" gradientUnits="userSpaceOnUse">
<stop stop-color="#FFC444"/>
<stop offset="0.9964" stop-color="#F36F56"/>
</linearGradient>
<linearGradient id="paint22_linear_17_84" x1="5.28503" y1="30.1866" x2="8.99304" y2="30.1866" gradientUnits="userSpaceOnUse">
<stop stop-color="#FFC444"/>
<stop offset="0.9964" stop-color="#F36F56"/>
</linearGradient>
<linearGradient id="paint23_linear_17_84" x1="9.4708" y1="25.3976" x2="8.32854" y2="23.6869" gradientUnits="userSpaceOnUse">
<stop stop-color="#FFC444"/>
<stop offset="0.9964" stop-color="#F36F56"/>
</linearGradient>
<linearGradient id="paint24_linear_17_84" x1="8.73051" y1="24.6274" x2="9.22434" y2="22.8477" gradientUnits="userSpaceOnUse">
<stop stop-color="#444B8C"/>
<stop offset="0.9964" stop-color="#3E4177"/>
</linearGradient>
<linearGradient id="paint25_linear_17_84" x1="10.3508" y1="24.0972" x2="8.49671" y2="23.0691" gradientUnits="userSpaceOnUse">
<stop stop-color="#FFC444"/>
<stop offset="0.9964" stop-color="#F36F56"/>
</linearGradient>
<linearGradient id="paint26_linear_17_84" x1="10.2075" y1="24.29" x2="9.02431" y2="23.4683" gradientUnits="userSpaceOnUse">
<stop stop-color="#444B8C"/>
<stop offset="0.9964" stop-color="#3E4177"/>
</linearGradient>
<linearGradient id="paint27_linear_17_84" x1="18.463" y1="2.19294" x2="29.2137" y2="13.9053" gradientUnits="userSpaceOnUse">
<stop stop-color="#FFC444"/>
<stop offset="0.9964" stop-color="#F36F56"/>
</linearGradient>
<linearGradient id="paint28_linear_17_84" x1="18.6035" y1="3.54551" x2="27.6684" y2="13.4213" gradientUnits="userSpaceOnUse">
<stop stop-color="#FFC444"/>
<stop offset="0.9964" stop-color="#F36F56"/>
</linearGradient>
<linearGradient id="paint29_linear_17_84" x1="23.5293" y1="-2.47158" x2="34.3519" y2="9.31914" gradientUnits="userSpaceOnUse">
<stop stop-color="#FFC444"/>
<stop offset="0.9964" stop-color="#F36F56"/>
</linearGradient>
<linearGradient id="paint30_linear_17_84" x1="23.5293" y1="-2.47158" x2="34.3519" y2="9.31914" gradientUnits="userSpaceOnUse">
<stop stop-color="#FFC444"/>
<stop offset="0.9964" stop-color="#F36F56"/>
</linearGradient>
<linearGradient id="paint31_linear_17_84" x1="23.7273" y1="-2.64066" x2="34.5375" y2="9.13661" gradientUnits="userSpaceOnUse">
<stop stop-color="#FFC444"/>
<stop offset="0.9964" stop-color="#F36F56"/>
</linearGradient>
<linearGradient id="paint32_linear_17_84" x1="41.3633" y1="26.8125" x2="31.2386" y2="18.3392" gradientUnits="userSpaceOnUse">
<stop offset="0.0036" stop-color="#E38DDD"/>
<stop offset="1" stop-color="#9571F6"/>
</linearGradient>
<linearGradient id="paint33_linear_17_84" x1="41.0986" y1="25.7164" x2="32.5615" y2="18.5719" gradientUnits="userSpaceOnUse">
<stop offset="0.0036" stop-color="#E38DDD"/>
<stop offset="1" stop-color="#9571F6"/>
</linearGradient>
<linearGradient id="paint34_linear_17_84" x1="37.7167" y1="31.1832" x2="27.5242" y2="22.6532" gradientUnits="userSpaceOnUse">
<stop offset="0.0036" stop-color="#E38DDD"/>
<stop offset="1" stop-color="#9571F6"/>
</linearGradient>
<linearGradient id="paint35_linear_17_84" x1="37.7167" y1="31.1832" x2="27.5242" y2="22.6532" gradientUnits="userSpaceOnUse">
<stop offset="0.0036" stop-color="#E38DDD"/>
<stop offset="1" stop-color="#9571F6"/>
</linearGradient>
<linearGradient id="paint36_linear_17_84" x1="37.5728" y1="31.3432" x2="27.3919" y2="22.8229" gradientUnits="userSpaceOnUse">
<stop offset="0.0036" stop-color="#E38DDD"/>
<stop offset="1" stop-color="#9571F6"/>
</linearGradient>
</defs>
</svg>
