<svg width="53" height="44" viewBox="0 0 53 44" fill="none" xmlns="http://www.w3.org/2000/svg">
<g clip-path="url(#clip0_17_83)">
<path d="M46.8191 5.16532C44.3809 3.24234 41.0107 2.64344 38.0714 2.00611C30.867 0.443926 23.7829 0.125552 16.4613 0.00494089C10.8063 -0.0882139 4.41153 1.09121 2.39926 7.27429C0.557563 12.9333 0.0522669 18.9678 0.000663542 24.8966C-0.03916 29.4719 1.66879 32.1926 6.30932 33.3655C13.555 35.1869 20.9358 36.4001 28.3772 36.9928C28.533 38.3092 28.7028 39.6237 28.8865 40.9365C29.0427 42.0408 29.2513 43.2291 30.0451 44C31.4244 42.7343 32.4422 41.1225 33.443 39.5314C33.8974 38.809 34.3518 38.0865 34.8063 37.364C36.0833 37.409 37.3607 37.4374 38.6384 37.4492C41.8439 37.4765 45.9534 36.2542 47.5528 33.1137C48.1389 31.8701 48.5572 30.5519 48.7963 29.1946C49.1744 27.3147 49.3854 25.3393 49.6626 23.6824C50.5993 18.0836 51.9487 9.21104 46.8191 5.16532Z" fill="#F4DBD6"/>
<path d="M47.5528 33.1137C48.1389 31.8701 48.5572 30.5519 48.7964 29.1946C49.0375 27.9953 49.2107 26.7579 49.3765 25.5884C48.4503 25.3949 47.5122 25.2718 46.5492 24.9937C46.4442 24.9634 46.2823 24.8622 46.1797 24.8994C46.1326 24.9165 46.0764 25 46.0236 25.0924C45.9476 25.0623 45.8727 25.0318 45.8013 24.9995C45.6481 24.9288 45.4953 24.8447 45.3423 24.7571C44.4303 23.8966 43.5553 22.9351 42.7631 22.0239C42.6257 21.0012 42.6254 19.9643 42.7625 18.9416C42.9252 17.9728 43.3831 17.0796 43.5344 16.1287C43.7097 15.0269 43.8034 13.8341 43.5336 12.7658C43.4091 12.273 42.9456 11.6917 42.6163 11.3085C42.4589 11.1096 42.2511 10.958 42.0153 10.8701C41.7795 10.7822 41.5246 10.7612 41.2779 10.8094C40.5971 8.80863 37.5198 9.20149 35.9273 9.11048C35.5203 9.11616 35.1168 9.0341 34.7434 8.86973C34.5167 8.74953 34.3252 8.56975 34.1012 8.44456C33.9939 8.37338 33.871 8.33021 33.7433 8.31888C33.6156 8.30755 33.4872 8.32842 33.3694 8.37962C33.1453 8.50481 33.0674 8.87645 33.2776 9.02434C32.6754 9.31137 31.8823 8.76527 31.3278 9.13845C30.8802 9.43976 30.8848 10.1633 30.4489 10.4819C30.1801 10.6784 29.8185 10.6648 29.5042 10.771C29.19 10.8772 28.8958 11.2498 29.0832 11.5272C29.3211 11.8793 29.8902 11.5515 30.2794 11.7127C29.9926 11.9578 29.687 12.2347 29.6235 12.61C29.5599 12.9854 29.9084 13.4312 30.2589 13.2963C30.2022 13.4603 30.1943 13.6375 30.2362 13.806C30.278 13.9745 30.3677 14.1268 30.4941 14.2438C30.679 14.4226 30.9059 14.5504 31.1531 14.6152C31.4003 14.6799 31.6597 14.6793 31.9067 14.6135C31.7909 15.5033 31.8615 16.4079 32.1137 17.2681C32.3384 18.0717 32.3983 19.1071 31.3716 19.396C31.2542 19.4107 31.144 19.4615 31.0557 19.5415C31.0254 19.5888 31.005 19.6419 30.9957 19.6975C30.9864 19.7532 30.9884 19.8101 31.0016 19.8649C31.1331 20.7732 31.8141 20.8609 32.4756 21.2213C33.0406 21.5292 32.9439 21.9972 33.0628 22.5587C33.4826 22.4366 35.4938 21.621 35.5109 21.5691C35.3592 21.9062 35.1722 22.2258 34.9531 22.5223C34.7754 22.7541 34.1416 23.6042 34.1416 23.6042C34.5398 24.0131 35.4045 24.7768 35.7848 24.6737C36.15 24.5847 37.24 24.0036 38.1961 23.3989C38.2499 23.4898 38.3052 23.5832 38.3606 23.6769L38.9279 24.6739C38.9306 24.6707 38.9326 24.6667 38.9352 24.6635C39.1556 25.0501 39.3596 25.4231 39.5227 25.7513C39.4048 25.8369 39.2864 25.9216 39.1676 26.0053C39.1208 25.913 39.0804 25.8175 39.0465 25.7195C38.8358 25.7648 38.6299 25.9125 38.3661 25.9783C37.2634 26.2535 34.9274 26.6816 34.225 27.734C34.102 27.9428 34.0226 28.1749 33.9914 28.4161C33.6656 30.2005 33.8444 32.0422 34.5069 33.7275C34.9358 34.8974 35.18 36.1289 35.2302 37.3763C36.3661 37.4131 37.5022 37.4395 38.6385 37.4492C41.844 37.4765 45.9534 36.2542 47.5528 33.1137ZM40.362 19.2068C40.3607 19.2235 40.3597 19.2406 40.3586 19.2577C40.3446 19.2429 40.3296 19.2262 40.3158 19.2118C40.3314 19.2084 40.347 19.2052 40.3624 19.2015L40.362 19.2068ZM42.3096 21.4983C42.472 21.6484 42.6172 21.8167 42.7425 22C42.595 21.8303 42.4508 21.6631 42.3096 21.4983Z" fill="#B75858"/>
<path d="M32.9381 40.3276C32.7957 38.7381 32.5799 37.1487 32.4851 35.5593C32.4115 33.6901 32.3379 28.9798 29.983 28.4565L29.9654 28.4994C29.734 28.3915 29.4928 28.3067 29.2454 28.246C28.1736 27.9487 24.2707 27.1186 23.3399 26.9756C23.2018 26.9414 23.0572 26.9462 22.9217 26.9893C22.6358 26.6431 22.2725 26.3714 21.8621 26.1968C21.4518 26.0223 21.0064 25.95 20.5629 25.9859C20.5976 26.123 20.6171 26.2636 20.6213 26.4051C20.1826 26.1303 19.8612 25.6983 19.7208 25.1945L19.7243 25.1931C19.5731 24.6513 19.4561 24.1002 19.3741 23.5432C19.49 23.4985 19.6048 23.4506 19.7174 23.398C20.9595 22.8182 21.5298 21.5152 21.4066 20.1598C21.3776 19.8903 21.3344 19.6226 21.277 19.3578C21.1849 18.8956 21.0898 18.4338 20.9995 17.9712C20.8568 17.2409 20.7259 16.5086 20.6369 15.7698C20.6136 15.5764 20.5929 15.3827 20.5705 15.1892C20.5859 15.1601 20.6037 15.1324 20.6235 15.1063C20.8192 14.8495 21.0646 14.6982 21.1256 14.3508C21.1536 14.0499 21.0912 13.7475 20.9467 13.4834C20.7071 12.9543 21.4122 12.4877 21.5269 11.9832C21.6124 11.6069 21.854 11.3172 21.8742 10.9109C21.896 10.7482 21.8701 10.5825 21.7997 10.4346C21.7293 10.2868 21.6175 10.1633 21.4784 10.0797C21.6194 9.7701 21.7044 9.51144 21.524 9.22C21.3651 8.96272 21.1443 8.7508 20.8824 8.60424C20.6214 8.45379 20.3328 8.35944 20.0344 8.32703C19.736 8.29463 19.4343 8.32486 19.1479 8.41586C18.6881 8.57484 18.3444 8.97726 17.8925 9.15805C17.1127 9.47002 16.3148 9.21686 15.5188 9.24879C15.0717 9.27922 14.6305 9.37039 14.2072 9.51986C13.3034 9.81151 12.2788 10.2263 11.9919 11.2419C11.9876 11.3594 11.9386 11.4707 11.8551 11.5521C11.7716 11.6336 11.6602 11.6789 11.5445 11.6784C10.9433 11.8445 10.4314 12.2458 10.1209 12.7945C9.81614 13.3403 9.62787 13.9452 9.56832 14.5698C9.49162 15.0675 9.50409 15.5753 9.60511 16.0685C9.83688 17.0538 10.5592 17.8263 11.2103 18.5953C10.9886 18.6993 10.7926 18.8523 10.6366 19.0431C10.4806 19.234 10.3685 19.4578 10.3086 19.6983C10.2419 20.0043 10.2491 20.3221 10.3295 20.6247C10.41 20.9272 10.5613 21.2055 10.7705 21.4358C10.9797 21.6661 11.2407 21.8415 11.5312 21.9471C11.8216 22.0527 12.1329 22.0854 12.4385 22.0423C12.6527 22.0089 12.862 21.9484 13.0615 21.8622C13.117 21.9039 13.1723 21.946 13.2311 21.9831C13.3626 22.0656 13.5038 22.1307 13.6515 22.1769C13.9721 23.4143 14.358 25.1125 14.5186 26.1837C14.1551 26.1742 13.7935 26.2409 13.4565 26.3796C13.1194 26.5183 12.8141 26.726 12.5595 26.9899C12.4946 27.0661 12.4215 27.1347 12.3416 27.1944C12.2079 27.2686 12.0608 27.3144 11.9091 27.3289C10.6317 27.5502 9.47098 28.111 8.21022 28.3715C7.38144 28.5428 6.8058 28.4617 6.18096 28.8453L6.18016 28.8428C5.19253 29.2347 4.50934 31.1496 4.2975 32.6721C4.94697 32.9623 5.62014 33.1943 6.30933 33.3655C13.555 35.1869 20.9359 36.4001 28.3772 36.9928C28.533 38.3092 28.7028 39.6237 28.8865 40.9365C29.0427 42.0408 29.2513 43.229 30.0451 44C31.1942 42.9455 32.0916 41.6504 32.9381 40.3276Z" fill="#EB724D"/>
<path d="M25.0029 18.4285L25.1231 18.386C25.1337 18.3823 25.1434 18.3766 25.1518 18.3691C25.1602 18.3615 25.167 18.3524 25.1719 18.3422C25.1768 18.332 25.1797 18.3209 25.1803 18.3096C25.181 18.2982 25.1794 18.2869 25.1757 18.2762C25.1721 18.2654 25.1663 18.2556 25.1589 18.2471C25.1515 18.2386 25.1424 18.2317 25.1324 18.2268C25.1223 18.2219 25.1114 18.2191 25.1002 18.2185C25.0891 18.2179 25.0779 18.2195 25.0673 18.2233L24.9472 18.2658C24.9366 18.2695 24.9269 18.2752 24.9185 18.2827C24.9101 18.2902 24.9033 18.2994 24.8984 18.3096C24.8935 18.3198 24.8907 18.3309 24.89 18.3422C24.8893 18.3535 24.8909 18.3649 24.8946 18.3756C24.8982 18.3863 24.9039 18.3962 24.9114 18.4047C24.9188 18.4131 24.9278 18.42 24.9379 18.4249C24.948 18.4298 24.9589 18.4327 24.9701 18.4333C24.9812 18.4339 24.9924 18.4323 25.0029 18.4285Z" fill="white"/>
<path d="M25.804 18.1452L25.9241 18.1027C25.9347 18.099 25.9444 18.0933 25.9527 18.0857C25.9611 18.0782 25.9679 18.0691 25.9728 18.0589C25.9776 18.0487 25.9805 18.0376 25.9811 18.0263C25.9818 18.015 25.9802 18.0037 25.9766 17.993C25.9729 17.9823 25.9672 17.9724 25.9598 17.9639C25.9523 17.9555 25.9433 17.9486 25.9333 17.9437C25.9232 17.9388 25.9123 17.9359 25.9012 17.9353C25.8901 17.9346 25.8789 17.9362 25.8684 17.94L25.7482 17.9825C25.727 17.99 25.7095 18.0058 25.6997 18.0263C25.69 18.0469 25.6886 18.0706 25.696 18.0921C25.7034 18.1137 25.7189 18.1314 25.7392 18.1414C25.7594 18.1513 25.7827 18.1527 25.804 18.1452Z" fill="white"/>
<path d="M25.4035 18.2869L25.5236 18.2444C25.5342 18.2407 25.544 18.235 25.5523 18.2274C25.5607 18.2199 25.5675 18.2108 25.5724 18.2006C25.5773 18.1904 25.5802 18.1793 25.5808 18.168C25.5815 18.1566 25.5799 18.1453 25.5763 18.1346C25.5726 18.1238 25.5669 18.114 25.5594 18.1055C25.552 18.097 25.543 18.0901 25.5329 18.0852C25.5228 18.0803 25.5119 18.0775 25.5007 18.0768C25.4896 18.0762 25.4784 18.0779 25.4679 18.0817L25.3477 18.1241C25.3265 18.1316 25.3091 18.1474 25.2993 18.168C25.2895 18.1886 25.2881 18.2122 25.2955 18.2338C25.3029 18.2554 25.3184 18.2731 25.3387 18.2831C25.3589 18.293 25.3822 18.2944 25.4035 18.2869Z" fill="white"/>
<path d="M24.2019 18.7118L24.3221 18.6693C24.3327 18.6656 24.3424 18.6598 24.3507 18.6523C24.3591 18.6448 24.3659 18.6357 24.3708 18.6255C24.3756 18.6153 24.3785 18.6042 24.3791 18.5929C24.3798 18.5816 24.3782 18.5702 24.3746 18.5595C24.3709 18.5488 24.3652 18.5389 24.3578 18.5305C24.3503 18.522 24.3413 18.5151 24.3313 18.5102C24.3212 18.5053 24.3103 18.5025 24.2992 18.5018C24.288 18.5012 24.2769 18.5028 24.2663 18.5066L24.1462 18.5491C24.1357 18.5528 24.126 18.5586 24.1177 18.5661C24.1094 18.5736 24.1026 18.5827 24.0977 18.5929C24.0929 18.6031 24.0901 18.6141 24.0894 18.6254C24.0888 18.6367 24.0903 18.6481 24.094 18.6587C24.0976 18.6694 24.1033 18.6793 24.1107 18.6877C24.1181 18.6962 24.1271 18.7031 24.1371 18.708C24.1472 18.7129 24.158 18.7158 24.1692 18.7164C24.1803 18.7171 24.1914 18.7155 24.2019 18.7118Z" fill="white"/>
<path d="M23.8014 18.8535L23.9216 18.811C23.9428 18.8035 23.9602 18.7877 23.97 18.7671C23.9798 18.7465 23.9812 18.7229 23.9738 18.7013C23.9664 18.6797 23.9509 18.662 23.9306 18.6521C23.9104 18.6421 23.8871 18.6407 23.8658 18.6482L23.7457 18.6907C23.7352 18.6944 23.7255 18.7002 23.7171 18.7078C23.7088 18.7153 23.7021 18.7244 23.6972 18.7346C23.6924 18.7448 23.6895 18.7558 23.6889 18.7671C23.6882 18.7784 23.6898 18.7897 23.6934 18.8004C23.6971 18.8111 23.7028 18.8209 23.7102 18.8294C23.7176 18.8378 23.7266 18.8447 23.7366 18.8496C23.7466 18.8546 23.7575 18.8574 23.7686 18.8581C23.7797 18.8588 23.7909 18.8572 23.8014 18.8535Z" fill="white"/>
<path d="M24.6024 18.5702L24.7226 18.5277C24.7332 18.524 24.7429 18.5182 24.7513 18.5107C24.7597 18.5032 24.7665 18.4941 24.7714 18.4839C24.7763 18.4737 24.7791 18.4626 24.7798 18.4512C24.7805 18.4399 24.7789 18.4286 24.7752 18.4178C24.7716 18.4071 24.7658 18.3972 24.7584 18.3888C24.7509 18.3803 24.7419 18.3734 24.7319 18.3685C24.7218 18.3636 24.7109 18.3607 24.6997 18.3601C24.6885 18.3595 24.6774 18.3612 24.6668 18.3649L24.5467 18.4074C24.5361 18.4111 24.5264 18.4169 24.518 18.4244C24.5096 18.4319 24.5028 18.441 24.4979 18.4512C24.493 18.4614 24.4901 18.4725 24.4895 18.4839C24.4888 18.4952 24.4904 18.5065 24.494 18.5173C24.4977 18.528 24.5034 18.5379 24.5109 18.5463C24.5183 18.5548 24.5273 18.5617 24.5374 18.5666C24.5475 18.5715 24.5584 18.5744 24.5696 18.575C24.5807 18.5756 24.5919 18.574 24.6024 18.5702Z" fill="white"/>
<path d="M23.4009 18.9951L23.5211 18.9526C23.5317 18.9489 23.5414 18.9432 23.5498 18.9356C23.5582 18.9281 23.565 18.919 23.5699 18.9088C23.5748 18.8986 23.5776 18.8875 23.5783 18.8762C23.5789 18.8648 23.5774 18.8535 23.5737 18.8428C23.57 18.832 23.5643 18.8222 23.5569 18.8137C23.5494 18.8052 23.5404 18.7983 23.5303 18.7934C23.5203 18.7885 23.5093 18.7857 23.4982 18.7851C23.487 18.7844 23.4758 18.7861 23.4653 18.7899L23.3452 18.8324C23.3346 18.836 23.3248 18.8418 23.3165 18.8493C23.3081 18.8568 23.3013 18.866 23.2964 18.8762C23.2915 18.8864 23.2886 18.8974 23.288 18.9088C23.2873 18.9201 23.2888 18.9315 23.2925 18.9422C23.2962 18.9529 23.3019 18.9628 23.3094 18.9712C23.3168 18.9797 23.3258 18.9866 23.3359 18.9915C23.3459 18.9964 23.3569 18.9993 23.368 18.9999C23.3792 19.0005 23.3904 18.9989 23.4009 18.9951Z" fill="white"/>
<path d="M26.2045 18.0036L26.3246 17.9611C26.3458 17.9535 26.3631 17.9377 26.3728 17.9172C26.3825 17.8966 26.3838 17.8731 26.3764 17.8515C26.3691 17.83 26.3536 17.8124 26.3335 17.8024C26.3133 17.7924 26.2901 17.791 26.2689 17.7984L26.1488 17.8409C26.1382 17.8445 26.1284 17.8503 26.1201 17.8578C26.1117 17.8653 26.1049 17.8744 26.1 17.8846C26.0951 17.8949 26.0922 17.9059 26.0915 17.9173C26.0909 17.9286 26.0924 17.94 26.0961 17.9507C26.0998 17.9614 26.1055 17.9713 26.1129 17.9797C26.1204 17.9882 26.1294 17.9951 26.1395 18C26.1495 18.0049 26.1605 18.0078 26.1716 18.0084C26.1828 18.009 26.1939 18.0074 26.2045 18.0036Z" fill="white"/>
<path d="M26.7855 20.3922C26.7804 20.3914 26.7753 20.3911 26.7703 20.3912L26.6433 20.395C26.6209 20.3958 26.5997 20.4056 26.5843 20.4222C26.569 20.4388 26.5607 20.4609 26.5614 20.4837C26.562 20.5064 26.5715 20.528 26.5878 20.5437C26.6041 20.5594 26.6258 20.5679 26.6482 20.5673L26.7753 20.5635C26.7965 20.5629 26.8167 20.5542 26.8318 20.5392C26.847 20.5242 26.8562 20.504 26.8574 20.4825C26.8587 20.4611 26.852 20.4399 26.8387 20.4232C26.8254 20.4065 26.8064 20.3954 26.7855 20.3922Z" fill="white"/>
<path d="M23.4801 20.6191C23.4793 20.6079 23.4763 20.5969 23.4712 20.5868C23.4662 20.5767 23.4593 20.5677 23.4508 20.5603C23.4424 20.5529 23.4326 20.5473 23.422 20.5438C23.4114 20.5403 23.4002 20.5389 23.3891 20.5397L23.2627 20.5494C23.2403 20.5512 23.2196 20.562 23.205 20.5793C23.1904 20.5966 23.1832 20.6191 23.1848 20.6418C23.1865 20.6646 23.197 20.6857 23.214 20.7006C23.231 20.7155 23.2531 20.7229 23.2755 20.7213L23.402 20.7116C23.4244 20.7099 23.4452 20.6991 23.4599 20.6818C23.4745 20.6645 23.4818 20.6419 23.4801 20.6191Z" fill="white"/>
<path d="M23.9012 20.5861C23.8998 20.5666 23.8918 20.5483 23.8788 20.534C23.8657 20.5198 23.8483 20.5104 23.8293 20.5075C23.823 20.5066 23.8166 20.5063 23.8102 20.5068L23.6839 20.5167C23.6727 20.5174 23.6617 20.5204 23.6516 20.5254C23.6415 20.5305 23.6325 20.5375 23.6251 20.5462C23.6177 20.5548 23.6121 20.5648 23.6086 20.5757C23.605 20.5866 23.6036 20.598 23.6045 20.6094C23.6054 20.6208 23.6085 20.632 23.6136 20.6421C23.6188 20.6523 23.6259 20.6613 23.6345 20.6687C23.6431 20.6761 23.6531 20.6816 23.6638 20.685C23.6746 20.6884 23.6859 20.6896 23.6971 20.6886L23.8232 20.6786C23.8343 20.6777 23.8451 20.6747 23.8551 20.6695C23.865 20.6644 23.8738 20.6574 23.8811 20.6488C23.8883 20.6402 23.8939 20.6302 23.8973 20.6195C23.9008 20.6087 23.9021 20.5974 23.9012 20.5861Z" fill="white"/>
<path d="M26.3622 20.4049C26.3572 20.4041 26.3521 20.4038 26.347 20.404L26.22 20.4077C26.2089 20.408 26.198 20.4106 26.1878 20.4152C26.1776 20.4198 26.1685 20.4264 26.1608 20.4347C26.1532 20.4429 26.1472 20.4526 26.1432 20.4632C26.1393 20.4737 26.1374 20.485 26.1377 20.4963C26.138 20.5076 26.1405 20.5188 26.1451 20.5291C26.1496 20.5394 26.1562 20.5487 26.1643 20.5565C26.1724 20.5643 26.1819 20.5703 26.1923 20.5744C26.2027 20.5784 26.2138 20.5803 26.2249 20.58L26.352 20.5762C26.3731 20.5756 26.3933 20.5669 26.4085 20.552C26.4237 20.537 26.4329 20.5168 26.4341 20.4953C26.4354 20.4738 26.4287 20.4526 26.4154 20.4359C26.4021 20.4192 26.3831 20.4081 26.3622 20.4049Z" fill="white"/>
<path d="M24.6615 20.6281C24.6826 20.6273 24.7026 20.6185 24.7177 20.6035C24.7328 20.5885 24.7418 20.5683 24.743 20.5468C24.7442 20.5254 24.7375 20.5043 24.7241 20.4876C24.7108 20.471 24.6919 20.46 24.671 20.4568C24.6658 20.456 24.6605 20.4557 24.6552 20.4559C24.6099 20.4576 24.5679 20.4592 24.5284 20.4609C24.5062 20.4622 24.4853 20.4723 24.4704 20.4891C24.4555 20.5058 24.4476 20.5279 24.4485 20.5505C24.4495 20.5731 24.4591 20.5944 24.4754 20.6098C24.4916 20.6253 24.5132 20.6336 24.5354 20.6331C24.5747 20.6314 24.6165 20.6298 24.6615 20.6281Z" fill="white"/>
<path d="M24.3219 20.5567C24.3207 20.537 24.3129 20.5184 24.2998 20.5038C24.2867 20.4893 24.2691 20.4797 24.2499 20.4768C24.244 20.4759 24.238 20.4756 24.2321 20.476C24.1901 20.4786 24.1484 20.4813 24.1052 20.4845C24.0828 20.486 24.0619 20.4966 24.0471 20.5139C24.0324 20.5311 24.025 20.5536 24.0265 20.5764C24.0281 20.5992 24.0385 20.6204 24.0555 20.6354C24.0725 20.6504 24.0946 20.6579 24.117 20.6563C24.1597 20.6533 24.2009 20.6506 24.2424 20.648C24.2535 20.6473 24.2644 20.6444 24.2744 20.6394C24.2844 20.6345 24.2934 20.6276 24.3008 20.6191C24.3082 20.6106 24.3138 20.6007 24.3174 20.59C24.3211 20.5793 24.3226 20.568 24.3219 20.5567Z" fill="white"/>
<path d="M25.939 20.4174C25.934 20.4167 25.9289 20.4164 25.9239 20.4165L25.7969 20.4203C25.7858 20.4206 25.7748 20.4231 25.7647 20.4278C25.7545 20.4324 25.7453 20.439 25.7377 20.4472C25.73 20.4555 25.7241 20.4651 25.7201 20.4757C25.7161 20.4863 25.7143 20.4975 25.7146 20.5089C25.7149 20.5202 25.7174 20.5313 25.722 20.5416C25.7265 20.552 25.733 20.5613 25.7411 20.569C25.7492 20.5768 25.7587 20.5829 25.7692 20.5869C25.7796 20.5909 25.7906 20.5929 25.8018 20.5925L25.9288 20.5888C25.95 20.5881 25.9702 20.5795 25.9854 20.5645C26.0006 20.5495 26.0097 20.5293 26.011 20.5078C26.0122 20.4864 26.0056 20.4652 25.9923 20.4484C25.9789 20.4317 25.9599 20.4206 25.939 20.4174Z" fill="white"/>
<path d="M25.0932 20.4427C25.0882 20.4419 25.0831 20.4416 25.078 20.4418L24.9512 20.4457L24.9574 20.618L25.0831 20.614C25.1043 20.6134 25.1245 20.6047 25.1396 20.5897C25.1548 20.5747 25.164 20.5545 25.1652 20.533C25.1665 20.5116 25.1598 20.4904 25.1465 20.4737C25.1332 20.457 25.1142 20.4459 25.0932 20.4427Z" fill="white"/>
<path d="M25.5038 20.6013L25.5034 20.5151L25.4988 20.4291L25.3741 20.4328C25.3516 20.4335 25.3304 20.4432 25.315 20.4598C25.2996 20.4764 25.2913 20.4985 25.2919 20.5213C25.2925 20.5441 25.302 20.5657 25.3183 20.5814C25.3346 20.5971 25.3564 20.6056 25.3788 20.605L25.5038 20.6013Z" fill="white"/>
<path d="M25.149 23.0103L25.0306 22.9696C25.0258 22.9679 25.0209 22.9667 25.016 22.966C24.995 22.9628 24.9736 22.9678 24.9561 22.9798C24.9385 22.9918 24.926 23.0101 24.9211 23.0311C24.9161 23.052 24.919 23.074 24.9293 23.0929C24.9395 23.1117 24.9563 23.126 24.9764 23.1329L25.0966 23.1742C25.1071 23.1778 25.1182 23.1792 25.1292 23.1785C25.1403 23.1777 25.1511 23.1747 25.161 23.1696C25.1709 23.1645 25.1797 23.1576 25.187 23.149C25.1942 23.1405 25.1997 23.1306 25.2031 23.1199C25.2102 23.098 25.2084 23.0743 25.1983 23.0538C25.1882 23.0332 25.1705 23.0176 25.149 23.0103Z" fill="white"/>
<path d="M23.171 22.2799L23.0529 22.233C23.032 22.2251 23.0089 22.2258 22.9885 22.2351C22.9682 22.2443 22.9522 22.2613 22.9441 22.2824C22.936 22.3035 22.9364 22.327 22.9452 22.3478C22.954 22.3686 22.9705 22.385 22.9911 22.3936L23.1092 22.4404C23.1301 22.4483 23.1531 22.4476 23.1735 22.4383C23.1938 22.4291 23.2097 22.4121 23.2178 22.3911C23.2259 22.37 23.2256 22.3466 23.2168 22.3258C23.2081 22.305 23.1916 22.2885 23.171 22.2799Z" fill="white"/>
<path d="M25.9528 23.2865L25.8324 23.2451C25.8219 23.2415 25.8107 23.2401 25.7996 23.2408C25.7885 23.2416 25.7776 23.2445 25.7676 23.2496C25.7475 23.2597 25.7321 23.2776 25.7249 23.2992C25.7177 23.3209 25.7193 23.3445 25.7293 23.365C25.7392 23.3855 25.7568 23.4011 25.7781 23.4084L25.8985 23.4498C25.9197 23.4567 25.9427 23.4549 25.9626 23.4447C25.9825 23.4345 25.9976 23.4168 26.0047 23.3953C26.0119 23.3739 26.0104 23.3505 26.0007 23.3301C25.991 23.3098 25.9738 23.2941 25.9528 23.2865Z" fill="white"/>
<path d="M26.354 23.4246L26.2335 23.3831C26.2229 23.3793 26.2117 23.3777 26.2005 23.3784C26.1892 23.379 26.1783 23.3819 26.1682 23.3869C26.1581 23.3919 26.1491 23.3989 26.1416 23.4075C26.1342 23.416 26.1285 23.426 26.125 23.4368C26.1214 23.4476 26.1199 23.4591 26.1207 23.4704C26.1215 23.4818 26.1245 23.4929 26.1295 23.5031C26.1346 23.5133 26.1416 23.5224 26.1501 23.5298C26.1586 23.5372 26.1685 23.5429 26.1792 23.5464L26.2995 23.5878C26.3208 23.595 26.344 23.5933 26.3641 23.5832C26.3842 23.5731 26.3995 23.5553 26.4067 23.5337C26.4139 23.5121 26.4124 23.4885 26.4025 23.4681C26.3926 23.4476 26.3752 23.432 26.354 23.4246Z" fill="white"/>
<path d="M23.9563 22.5906C23.9174 22.5758 23.8788 22.5609 23.8388 22.5454C23.833 22.5431 23.827 22.5414 23.8209 22.5405C23.8002 22.5374 23.7792 22.5422 23.7617 22.5538C23.7443 22.5655 23.7317 22.5833 23.7264 22.6039C23.7211 22.6244 23.7234 22.6462 23.7329 22.6651C23.7425 22.6839 23.7585 22.6986 23.778 22.7062C23.8184 22.722 23.8575 22.737 23.8969 22.752C23.9179 22.76 23.9413 22.7592 23.9617 22.7497C23.9822 22.7402 23.9982 22.7229 24.006 22.7015C24.0139 22.6801 24.0131 22.6564 24.0038 22.6356C23.9945 22.6148 23.9774 22.5986 23.9563 22.5906Z" fill="white"/>
<path d="M24.3513 22.7343C24.3087 22.7193 24.2693 22.7053 24.2322 22.692C24.2271 22.6902 24.2218 22.6889 24.2165 22.6881C24.1956 22.6849 24.1743 22.6898 24.1568 22.7017C24.1393 22.7137 24.1268 22.7318 24.1217 22.7526C24.1166 22.7734 24.1194 22.7954 24.1294 22.8142C24.1394 22.8331 24.156 22.8475 24.1758 22.8546C24.2132 22.868 24.2529 22.882 24.2957 22.8971C24.3062 22.9008 24.3173 22.9024 24.3284 22.9017C24.3396 22.901 24.3504 22.8982 24.3605 22.8932C24.3705 22.8883 24.3795 22.8814 24.3869 22.8729C24.3943 22.8645 24.3999 22.8546 24.4036 22.8439C24.4072 22.8332 24.4088 22.8219 24.4081 22.8106C24.4075 22.7993 24.4046 22.7883 24.3998 22.7781C24.3949 22.7679 24.3881 22.7588 24.3798 22.7513C24.3715 22.7438 24.3618 22.738 24.3513 22.7343Z" fill="white"/>
<path d="M25.5518 23.1487L25.4314 23.1073C25.4209 23.1037 25.4097 23.1022 25.3986 23.1029C25.3874 23.1036 25.3766 23.1066 25.3666 23.1116C25.3566 23.1166 25.3476 23.1236 25.3403 23.1321C25.3329 23.1406 25.3273 23.1506 25.3237 23.1613C25.3202 23.172 25.3187 23.1834 25.3195 23.1947C25.3202 23.206 25.3232 23.217 25.3281 23.2272C25.3331 23.2373 25.34 23.2464 25.3484 23.2538C25.3568 23.2613 25.3666 23.267 25.3771 23.2706L25.4974 23.3119C25.5186 23.3188 25.5417 23.317 25.5616 23.3068C25.5814 23.2966 25.5966 23.2789 25.6037 23.2575C25.6109 23.236 25.6094 23.2126 25.5997 23.1923C25.59 23.1719 25.5728 23.1562 25.5518 23.1487Z" fill="white"/>
<path d="M24.7504 22.8731L24.6304 22.8316C24.6199 22.828 24.6088 22.8265 24.5977 22.8272C24.5866 22.8279 24.5757 22.8309 24.5658 22.8359C24.5558 22.8409 24.5469 22.8479 24.5396 22.8564C24.5323 22.8649 24.5268 22.8749 24.5233 22.8856C24.5161 22.9073 24.5177 22.931 24.5277 22.9515C24.5377 22.9721 24.5553 22.9877 24.5766 22.9951L24.6959 23.0363C24.7064 23.0399 24.7176 23.0414 24.7287 23.0407C24.7398 23.0399 24.7507 23.037 24.7607 23.032C24.7707 23.027 24.7796 23.02 24.7869 23.0115C24.7943 23.003 24.7999 22.9931 24.8035 22.9824C24.8071 22.9717 24.8085 22.9603 24.8078 22.949C24.8071 22.9378 24.8042 22.9267 24.7992 22.9166C24.7943 22.9064 24.7875 22.8973 24.7791 22.8899C24.7707 22.8824 24.7609 22.8767 24.7504 22.8731Z" fill="white"/>
<path d="M23.5643 22.4367L23.4465 22.3897C23.4405 22.3873 23.4343 22.3856 23.428 22.3847C23.4074 22.3816 23.3863 22.3863 23.3689 22.3979C23.3515 22.4095 23.3389 22.4272 23.3336 22.4477C23.3282 22.4681 23.3304 22.4899 23.3398 22.5087C23.3492 22.5276 23.3651 22.5424 23.3845 22.5501L23.5023 22.5971C23.5127 22.6013 23.5238 22.6033 23.5349 22.6031C23.546 22.6028 23.557 22.6004 23.5672 22.5959C23.5774 22.5913 23.5867 22.5848 23.5944 22.5767C23.6021 22.5685 23.6082 22.5589 23.6122 22.5484C23.6163 22.5378 23.6183 22.5266 23.6181 22.5153C23.6179 22.504 23.6155 22.4928 23.611 22.4824C23.6066 22.4721 23.6001 22.4627 23.5921 22.4548C23.5841 22.447 23.5746 22.4408 23.5643 22.4367Z" fill="white"/>
<path d="M48.4355 25.755C48.4256 25.752 48.4155 25.7496 48.4053 25.7479C48.3396 25.7364 48.272 25.7498 48.2155 25.7856C48.1589 25.8214 48.1173 25.8771 48.0985 25.9421L47.229 28.9532C47.2087 29.0234 47.2167 29.0989 47.2512 29.1632C47.2857 29.2274 47.3439 29.2751 47.413 29.2957C47.4821 29.3163 47.5565 29.3082 47.6197 29.2731C47.6829 29.2381 47.7299 29.1789 47.7502 29.1087L48.6198 26.0974C48.6298 26.0626 48.633 26.0262 48.6292 25.9901C48.6254 25.9541 48.6146 25.9192 48.5975 25.8874C48.5804 25.8556 48.5573 25.8275 48.5295 25.8048C48.5017 25.7821 48.4698 25.7652 48.4355 25.755Z" fill="#C6AEAB"/>
<path d="M4.437 30.7261C5.36093 31.247 6.38287 31.5633 7.43569 31.6543C7.50741 31.6603 7.57853 31.6371 7.63343 31.5898C7.68833 31.5426 7.72253 31.4751 7.72851 31.4022C7.7345 31.3294 7.71177 31.2571 7.66534 31.2013C7.6189 31.1454 7.55255 31.1106 7.48084 31.1044C6.50498 31.0199 5.55773 30.7268 4.70127 30.2441C4.67011 30.2264 4.63581 30.2151 4.60034 30.2108C4.56487 30.2066 4.52893 30.2095 4.49456 30.2194C4.4602 30.2293 4.42809 30.2459 4.40008 30.2685C4.37207 30.291 4.34871 30.3189 4.33133 30.3506C4.31395 30.3823 4.3029 30.4171 4.2988 30.4532C4.29471 30.4892 4.29765 30.5257 4.30747 30.5606C4.31728 30.5955 4.33378 30.6281 4.356 30.6565C4.37823 30.6849 4.40575 30.7086 4.437 30.7261Z" fill="#C6AEAB"/>
<path d="M8.74987 32.1792L15.864 33.6667C15.899 33.674 15.935 33.6743 15.9701 33.6675C16.0051 33.6607 16.0385 33.6469 16.0683 33.627C16.0981 33.607 16.1238 33.5813 16.1438 33.5513C16.1638 33.5213 16.1778 33.4876 16.185 33.4521C16.1922 33.4166 16.1925 33.38 16.1857 33.3444C16.179 33.3088 16.1654 33.2749 16.1458 33.2446C16.1261 33.2143 16.1008 33.1883 16.0712 33.168C16.0417 33.1477 16.0085 33.1335 15.9735 33.1262L8.85933 31.6387C8.82439 31.6314 8.78836 31.6311 8.75331 31.6379C8.71825 31.6447 8.68487 31.6585 8.65506 31.6784C8.62525 31.6983 8.59959 31.724 8.57956 31.7541C8.55954 31.7841 8.54553 31.8178 8.53833 31.8533C8.53114 31.8888 8.53091 31.9254 8.53765 31.961C8.54439 31.9966 8.55797 32.0305 8.57762 32.0608C8.59726 32.091 8.62259 32.1171 8.65214 32.1374C8.6817 32.1577 8.71491 32.1719 8.74987 32.1792Z" fill="#C6AEAB"/>
<path d="M47.0921 30.1848C47.0313 30.1456 46.9577 30.1324 46.8874 30.1483C46.8171 30.1642 46.7558 30.2078 46.7172 30.2695C45.7259 31.8254 44.3905 33.1244 42.8175 34.063C41.2446 35.0017 39.4775 35.554 37.6572 35.6759C37.5853 35.6802 37.518 35.7133 37.4701 35.7679C37.4222 35.8226 37.3976 35.8943 37.4017 35.9674C37.4021 35.9734 37.4026 35.9795 37.4034 35.9855C37.4119 36.055 37.4461 36.1186 37.4991 36.1634C37.5521 36.2082 37.6198 36.2309 37.6887 36.2269C39.5947 36.0992 41.445 35.5208 43.0921 34.538C44.7392 33.5551 46.1375 32.1949 47.1754 30.5658C47.2141 30.504 47.227 30.4292 47.2114 30.3578C47.1958 30.2863 47.1528 30.2241 47.0921 30.1848Z" fill="#C6AEAB"/>
<path d="M7.64256 4.97335C10.9461 2.98521 14.7761 2.08897 18.6029 2.4086C18.6758 2.41481 18.7481 2.39136 18.804 2.34341C18.86 2.29546 18.8948 2.22692 18.901 2.15286C18.9072 2.07879 18.8843 2.00525 18.8371 1.94839C18.79 1.89154 18.7226 1.85601 18.6497 1.84962C14.7079 1.52031 10.7628 2.44349 7.36002 4.49149C7.32887 4.51034 7.30169 4.53524 7.28002 4.56476C7.25834 4.59428 7.24261 4.62785 7.23371 4.66355C7.2248 4.69925 7.22291 4.73638 7.22813 4.77282C7.23335 4.80927 7.24559 4.84431 7.26414 4.87595C7.28269 4.90758 7.3072 4.9352 7.33626 4.95722C7.36531 4.97924 7.39836 4.99522 7.43349 5.00427C7.46863 5.01331 7.50518 5.01524 7.54106 5.00993C7.57693 5.00463 7.61142 4.9922 7.64256 4.97335Z" fill="#C6AEAB"/>
<path d="M49.9422 7.63293C48.1994 7.5837 46.7352 9.42491 46.6868 11.1953C46.6384 12.9658 48.024 13.9951 49.7667 14.0443C51.5094 14.0936 52.9492 13.144 52.9976 11.3736C53.065 8.91092 51.6848 7.68213 49.9422 7.63293Z" fill="#567995"/>
<path d="M46.35 14.1806C46.0962 14.1298 45.8328 14.1832 45.6176 14.3291C45.4023 14.475 45.2526 14.7015 45.2013 14.9592C45.0961 15.4944 45.5014 15.8011 46.0283 15.9079C46.5551 16.0149 47.0039 15.8815 47.1091 15.3462C47.2555 14.6018 46.8769 14.2876 46.35 14.1806Z" fill="#567995"/>
</g>
<defs>
<clipPath id="clip0_17_83">
<rect width="53" height="44" fill="white"/>
</clipPath>
</defs>
</svg>
